<?xml version="1.0" encoding="UTF-8" standalone="no"?>
<!-- Created with Inkscape (http://www.inkscape.org/) -->

<svg
   xmlns:dc="http://purl.org/dc/elements/1.1/"
   xmlns:cc="http://creativecommons.org/ns#"
   xmlns:rdf="http://www.w3.org/1999/02/22-rdf-syntax-ns#"
   xmlns:svg="http://www.w3.org/2000/svg"
   xmlns="http://www.w3.org/2000/svg"
   xmlns:sodipodi="http://sodipodi.sourceforge.net/DTD/sodipodi-0.dtd"
   xmlns:inkscape="http://www.inkscape.org/namespaces/inkscape"
   width="45"
   height="45"
   id="svg2"
   version="1.1"
   inkscape:version="0.48.5 r10040"
   sodipodi:docname="starcaptain.svg"
   inkscape:export-filename="C:\Users\Nick\Desktop\HTML5 Games\Childhood\starcaptain.png"
   inkscape:export-xdpi="90"
   inkscape:export-ydpi="90">
  <defs
     id="defs4" />
  <sodipodi:namedview
     id="base"
     pagecolor="#ffffff"
     bordercolor="#666666"
     borderopacity="1.0"
     inkscape:pageopacity="0.0"
     inkscape:pageshadow="2"
     inkscape:zoom="1"
     inkscape:cx="51.73994"
     inkscape:cy="28.687655"
     inkscape:document-units="px"
     inkscape:current-layer="layer1"
     showgrid="false"
     fit-margin-top="0"
     fit-margin-left="0"
     fit-margin-right="0"
     fit-margin-bottom="0"
     inkscape:window-width="1920"
     inkscape:window-height="1018"
     inkscape:window-x="-8"
     inkscape:window-y="-8"
     inkscape:window-maximized="1" />
  <metadata
     id="metadata7">
    <rdf:RDF>
      <cc:Work
         rdf:about="">
        <dc:format>image/svg+xml</dc:format>
        <dc:type
           rdf:resource="http://purl.org/dc/dcmitype/StillImage" />
        <dc:title></dc:title>
      </cc:Work>
    </rdf:RDF>
  </metadata>
  <g
     inkscape:label="Layer 1"
     inkscape:groupmode="layer"
     id="layer1"
     transform="translate(-221.5,-155.86218)">
    <path
       sodipodi:type="arc"
       style="fill:#cccccc;fill-opacity:1;fill-rule:nonzero;stroke:#000000;stroke-width:1;stroke-linejoin:miter;stroke-miterlimit:4;stroke-opacity:1;stroke-dasharray:none;stroke-dashoffset:0"
       id="path2985"
       sodipodi:cx="244"
       sodipodi:cy="178.36218"
       sodipodi:rx="22"
       sodipodi:ry="22"
       d="m 266,178.36218 c 0,12.15027 -9.84974,22 -22,22 -12.15026,0 -22,-9.84973 -22,-22 0,-12.15026 9.84974,-22 22,-22 12.15026,0 22,9.84974 22,22 z" />
    <path
       style="fill:#800000;stroke:#000000;stroke-width:1px;stroke-linecap:butt;stroke-linejoin:miter;stroke-opacity:1"
       d="m 244.16007,160.23249 c -6.7576,1.88257 -5.23775,12.59276 -8.89317,16.24849 -3.1192,2.63708 -6.05999,4.59407 -10.05612,5.02848 2.73845,3.26389 4.65579,3.78382 8.51692,3.86543 1.02115,0.007 2.27221,0.0707 2.94159,1.77878 0.30073,8.5416 1.59095,8.72287 7.28555,8.72287 5.77816,0 6.87309,0.13503 7.1204,-8.80889 0.1339,-1.31247 1.32997,-1.5674 1.62908,-1.50999 4.53976,-1.14358 5.46007,1.08212 9.34469,-3.5693 -3.77344,-1.07439 -6.98853,-2.8346 -9.37203,-5.1311 -3.55624,-3.55655 -1.07381,-14.63023 -8.51691,-16.62477 z"
       id="path2987"
       inkscape:connector-curvature="0"
       sodipodi:nodetypes="cccccsccccc" />
  </g>
</svg>
