<?xml version="1.0" encoding="UTF-8" standalone="no"?>
<!-- Created with Inkscape (http://www.inkscape.org/) -->

<svg
   xmlns:dc="http://purl.org/dc/elements/1.1/"
   xmlns:cc="http://creativecommons.org/ns#"
   xmlns:rdf="http://www.w3.org/1999/02/22-rdf-syntax-ns#"
   xmlns:svg="http://www.w3.org/2000/svg"
   xmlns="http://www.w3.org/2000/svg"
   xmlns:sodipodi="http://sodipodi.sourceforge.net/DTD/sodipodi-0.dtd"
   xmlns:inkscape="http://www.inkscape.org/namespaces/inkscape"
   width="600"
   height="100"
   id="svg2"
   version="1.1"
   inkscape:version="0.48.5 r10040"
   sodipodi:docname="generalmean.svg"
   inkscape:export-filename="C:\Users\Nick\Desktop\HTML5 Games\Childhood\img\generalmean.png"
   inkscape:export-xdpi="90"
   inkscape:export-ydpi="90">
  <defs
     id="defs4">
    <filter
       inkscape:label="Ink paint"
       inkscape:menu="Textures"
       inkscape:menu-tooltip="Ink paint on paper with some turbulent color shift"
       height="1.3"
       y="-0.15000001"
       width="1.3"
       x="-0.15000001"
       color-interpolation-filters="sRGB"
       id="filter3923">
      <feTurbulence
         type="fractalNoise"
         baseFrequency="0.07"
         numOctaves="4"
         result="result0"
         id="feTurbulence3925" />
      <feDisplacementMap
         in2="result0"
         in="SourceGraphic"
         xChannelSelector="R"
         yChannelSelector="G"
         scale="10"
         result="result2"
         id="feDisplacementMap3927" />
      <feBlend
         result="result5"
         in="result2"
         mode="multiply"
         in2="result2"
         id="feBlend3929" />
      <feGaussianBlur
         stdDeviation="10"
         in="result2"
         result="result4"
         id="feGaussianBlur3931" />
      <feComposite
         operator="arithmetic"
         in2="result4"
         in="result0"
         k3="0.5"
         k1="2"
         result="result6"
         id="feComposite3933"
         k2="0"
         k4="0" />
      <feComposite
         operator="in"
         in2="result5"
         in="result6"
         result="result7"
         id="feComposite3935" />
    </filter>
  </defs>
  <sodipodi:namedview
     id="base"
     pagecolor="#ffffff"
     bordercolor="#666666"
     borderopacity="1.0"
     inkscape:pageopacity="0.0"
     inkscape:pageshadow="2"
     inkscape:zoom="1"
     inkscape:cx="558.87641"
     inkscape:cy="-22.455554"
     inkscape:document-units="px"
     inkscape:current-layer="layer1"
     showgrid="false"
     showguides="true"
     inkscape:guide-bbox="true"
     inkscape:window-width="1920"
     inkscape:window-height="1018"
     inkscape:window-x="-8"
     inkscape:window-y="-8"
     inkscape:window-maximized="1">
    <sodipodi:guide
       orientation="1,0"
       position="100,-174"
       id="guide3008" />
    <sodipodi:guide
       orientation="1,0"
       position="200,-243"
       id="guide3010" />
    <sodipodi:guide
       orientation="1,0"
       position="300,-222"
       id="guide4091" />
    <sodipodi:guide
       orientation="1,0"
       position="400,-190"
       id="guide4093" />
    <sodipodi:guide
       orientation="1,0"
       position="500,-112"
       id="guide3135" />
  </sodipodi:namedview>
  <metadata
     id="metadata7">
    <rdf:RDF>
      <cc:Work
         rdf:about="">
        <dc:format>image/svg+xml</dc:format>
        <dc:type
           rdf:resource="http://purl.org/dc/dcmitype/StillImage" />
        <dc:title />
      </cc:Work>
    </rdf:RDF>
  </metadata>
  <g
     inkscape:label="Layer 1"
     inkscape:groupmode="layer"
     id="layer1"
     transform="translate(0,-952.36218)">
    <path
       style="fill:#999999;fill-opacity:1;fill-rule:nonzero;stroke:#000000;stroke-width:0.99999994;stroke-linejoin:miter;stroke-miterlimit:4;stroke-opacity:1;stroke-dashoffset:0"
       d="m 440.64798,957.46799 c -1.02401,0 -1.84838,1.23717 -1.84838,2.77391 l 0,1.55455 c 0,1.25505 0.54605,2.31364 1.30541,2.65833 -0.25678,1.52296 -0.51187,2.82472 -0.83149,4.01553 -0.31961,1.1908 -0.45374,2.27064 -0.9686,3.34976 -0.51485,1.07913 -1.41043,2.15753 -2.25293,3.34545 -0.84251,1.18792 -1.88194,2.48536 -3.1845,4.00256 -0.83768,0.26478 -1.46138,1.37217 -1.46138,2.71035 l 0,1.55455 c 0,1.36246 0.64698,2.48958 1.50758,2.72768 l 0,0.0116 c -0.16669,-0.0207 -0.33811,-0.0347 -0.51407,-0.0347 -1.55869,-0.0934 -1.63651,0.1645 -2.83213,1.84929 -0.0625,1.59802 -0.16016,2.85009 -0.26465,3.93656 -0.10449,1.08648 0.49129,1.83059 0.40144,2.76625 -0.0898,0.93566 -0.86531,2.06287 -0.88386,3.20844 -0.0186,1.14558 0.0127,2.4863 0.12207,4.2025 0.0652,1.0224 0.0991,5.1178 2.14756,4.9743 l 1.12207,1 c 0.13136,0.1171 0.53488,0.6735 0.70157,0.6525 l 0,1.4852 c -0.16669,-0.021 -0.34132,-0.068 -0.51407,-0.035 l -1.82474,0.3536 c -0.97204,0.1884 -1.45818,0.7452 -1.39626,1.8049 l 0.74373,5.8328 -0.15089,7.0119 c 0.54442,0.7935 0.42002,1.9412 1.47802,1.4412 2.26566,2.8648 2.9719,2.8973 4.7347,4.9962 3.02601,2.3258 1.67726,2.8853 2.76344,6.9743 l 0.0519,0 0,0.3178 c 0,1.5368 0.82438,2.7739 1.84838,2.7739 l 0.0867,0 c -0.057,0.2678 -0.0867,0.5527 -0.0867,0.8496 l 0,1.5545 c 0,1.5367 0.82437,2.7739 1.84837,2.7739 l 15.21441,0 c 1.024,0 1.84837,-1.2372 1.84837,-2.7739 l 0,-1.5545 c 0,-0.2969 -0.0297,-0.5818 -0.0867,-0.8496 0,0 0.0661,0.02 0.0867,0 1.14901,-1.125 1.84838,-1.2371 1.84838,-2.7739 0,-0.1156 0,-0.3467 0,-0.3467 3.21888,-0.8218 2.56082,-4.9026 5.16254,-4.7851 l 1.11763,-1.7678 c 0.82078,-1.2983 2.21841,0.02 2.59578,-2.1145 0.86609,-1.3991 0.45885,-3.4321 0.17678,-5.1735 l 1.32583,-4.4663 -0.35357,-4.5549 -0.53033,-4.1128 c -0.13102,-1.016 8.8e-4,-1.4073 -1.53512,-1.4073 l -1.14946,0 0,-1.4158 1.14946,0 c 2.17262,-0.3522 1.99759,-2.5924 1.57932,-5.0548 l -2.78424,-2.3216 0.39775,-3.04514 -0.66291,-3.39869 0.79549,-3.43865 c 1.67691,-2.26412 2.02885,-1.25812 2.09544,-3.06215 0.0401,-1.08625 -0.82235,-0.55377 -2.04585,-2.30377 l -1.31996,-0.0884 0.17678,-0.49936 c 0.36042,-0.50557 0.57462,-0.96695 0.67178,-1.76327 l 0.26516,-2.17325 c 0.16936,-1.38804 -0.41729,-2.2782 -1.31172,-2.47409 -0.92833,-1.37516 -1.75995,-2.57308 -2.50632,-3.69765 -0.74638,-1.12458 -1.40751,-2.17581 -1.99487,-3.25761 -0.58736,-1.08179 -1.10094,-2.19415 -1.55221,-3.44096 -0.45127,-1.24682 -1.1054,-2.36293 -1.44352,-3.98256 0.81443,-0.29027 1.68033,-1.65041 1.68033,-2.96394 l 0,-1.55455 c 0,-1.53676 -0.82437,-2.77392 -1.84838,-2.77392 l -18.91115,0 z"
       id="rect2990-1-1-1-6-8-5-9-3-6-0-2"
       inkscape:connector-curvature="0"
       sodipodi:nodetypes="csscssscssccccsssscsccsssccccccsscsssssscssccsccccssccccccccscccsscssscssscc" />
    <path
       style="fill:#999999;fill-opacity:1;fill-rule:nonzero;stroke:#000000;stroke-width:0.99999994;stroke-linejoin:miter;stroke-miterlimit:4;stroke-opacity:1;stroke-dashoffset:0"
       d="m 340.64798,957.46799 c -1.02401,0 -1.84838,1.23717 -1.84838,2.77391 l 0,1.55455 c 0,1.25505 0.54605,2.31364 1.30541,2.65833 -0.25678,1.52296 -0.51187,2.82472 -0.83149,4.01553 -0.31961,1.1908 -0.45374,2.27064 -0.9686,3.34976 -0.51485,1.07913 -1.41043,2.15753 -2.25293,3.34545 -0.84251,1.18792 -1.88194,2.48536 -3.1845,4.00256 -0.83768,0.26478 -1.46138,1.37217 -1.46138,2.71035 l 0,1.55455 c 0,1.36246 0.64698,2.48958 1.50758,2.72768 l 0,0.0116 c -0.16669,-0.0207 -0.33811,-0.0347 -0.51407,-0.0347 -1.55869,-0.0934 -1.63651,0.1645 -2.83213,1.84929 -0.25,6.39208 -1.0625,7.2489 -0.625,14.11375 0.0652,1.0224 0.0991,5.1178 2.14756,4.9743 l 1.12207,1 c 0.13136,0.1171 0.53488,0.6735 0.70157,0.6525 l 0,1.4852 c -0.16669,-0.021 -0.34132,-0.068 -0.51407,-0.035 l -1.82474,0.3536 c -1.50796,0.2921 -2.19956,0.9141 -2.15384,1.9375 l 0.85356,7.6636 0.1875,5.1369 c 0.54442,0.7935 0.72938,1.8528 1.78738,1.3528 2.26566,2.8648 2.9719,2.8973 4.7347,4.9962 3.02601,2.3258 1.67726,2.8853 2.76344,6.9743 l 0.0519,0 0,0.3178 c 0,1.5368 0.82438,2.7739 1.84838,2.7739 l 0.0867,0 c -0.057,0.2678 -0.0867,0.5527 -0.0867,0.8496 l 0,1.5545 c 0,1.5367 0.82437,2.7739 1.84837,2.7739 l 15.21441,0 c 1.024,0 1.84837,-1.2372 1.84837,-2.7739 l 0,-1.5545 c 0,-0.2969 -0.0297,-0.5818 -0.0867,-0.8496 l 0.0867,0 c 1.02401,0 1.84838,-1.2371 1.84838,-2.7739 l 0,-0.3467 c 3.21888,-0.8218 2.56082,-4.9026 5.16254,-4.7851 l 1.73635,-1.2375 c 1.25085,-0.8914 2.33657,-0.5929 2.59578,-1.5841 l -0.17677,-4.7316 1.06066,-5.9689 -0.35357,-4.5549 -0.53033,-4.1128 c -0.13102,-1.016 8.8e-4,-1.4073 -1.53512,-1.4073 l -1.14946,0 0,-1.4158 1.14946,0 c 1.536,0 2.77256,-0.8248 2.77256,-1.8493 l 0,-4.7316 -0.61872,-2.73152 0.61872,-2.73155 0.0625,-7.48156 c 0.009,-1.08696 -2.23656,-1.34927 -3.46006,-3.09927 l -1.31996,-0.0884 0.17678,-0.49936 c 0.36042,-0.50557 0.57462,-0.96695 0.67178,-1.76327 l 0.26516,-2.17325 c 0.16936,-1.38804 -0.41729,-2.2782 -1.31172,-2.47409 -3.71331,-5.50064 -5.87928,-8.1654 -7.23175,-14.64395 0.81443,-0.29027 1.41516,-1.38524 1.41516,-2.69877 l 0,-1.55455 c 0,-1.53676 -0.82437,-2.77392 -1.84838,-2.77392 l -18.91115,0 z"
       id="rect2990-1-1-1-6-8-5-9-3-6"
       inkscape:connector-curvature="0"
       sodipodi:nodetypes="csscssscssccccscsccsssccccccsscsssssscssccsscccssccsscccscccssccssscc" />
    <path
       style="fill:#999999;fill-opacity:1;fill-rule:nonzero;stroke:#000000;stroke-width:0.99999994;stroke-linejoin:miter;stroke-miterlimit:4;stroke-opacity:1;stroke-dashoffset:0"
       d="m 240.64798,957.46799 c -1.02401,0 -1.84838,1.23717 -1.84838,2.77391 l 0,1.55455 c 0,1.25505 0.54605,2.31364 1.30541,2.65833 -0.25678,1.52296 -0.51187,2.82472 -0.83149,4.01553 -0.31961,1.1908 -0.45374,2.27064 -0.9686,3.34976 -0.51485,1.07913 -1.41043,2.15753 -2.25293,3.34545 -0.84251,1.18792 -1.88194,2.48536 -3.1845,4.00256 -0.83768,0.26478 -1.46138,1.37217 -1.46138,2.71035 l 0,1.55455 c 0,1.36246 0.64698,2.48958 1.50758,2.72768 l 0,0.0116 c -0.16669,-0.0207 -0.33811,-0.0347 -0.51407,-0.0347 -1.55869,-0.0934 -1.63651,0.1645 -2.83213,1.84929 -0.25,6.39208 -1,2.6864 -0.625,16.17625 0.0285,1.0241 0.36155,4.5993 1.89756,4.5993 l 1.55957,0 c 0.17596,0 0.34738,-0.014 0.51407,-0.035 l 0,1.4852 c -0.16669,-0.021 -0.34132,-0.068 -0.51407,-0.035 l -1.82474,0.3536 c -1.50796,0.2921 -2.19956,0.9141 -2.15384,1.9375 l 0.85356,7.6636 -0.5,5.5119 0.61872,4.7785 c 0.13156,1.016 -0.0893,2.3796 1.44673,2.3796 l 1.55957,0 c 0.16804,0 0.33131,-0.016 0.49097,-0.035 3.02601,2.3258 2.29598,4.2111 5.85703,5.8252 l 0.0519,0 0,0.3178 c 0,1.5368 0.82438,2.7739 1.84838,2.7739 l 0.0867,0 c -0.057,0.2678 -0.0867,0.5527 -0.0867,0.8496 l 0,1.5545 c 0,1.5367 0.82437,2.7739 1.84837,2.7739 l 15.21441,0 c 1.024,0 1.84837,-1.2372 1.84837,-2.7739 l 0,-1.5545 c 0,-0.2969 -0.0297,-0.5818 -0.0867,-0.8496 l 0.0867,0 c 1.02401,0 1.84838,-1.2371 1.84838,-2.7739 l 0,-0.3467 c 3.57437,-1.7459 4.00053,-3.642 6.28446,-5.7674 0.0387,7e-4 0.0763,0.01 0.11552,0.01 l 1.55957,0 c 1.536,0 2.77256,-0.8248 2.77256,-1.8493 l 0,-18.9262 c 0,-1.0245 -1.23656,-1.8493 -2.77256,-1.8493 l -1.14946,0 0,-1.4158 1.14946,0 c 1.536,0 2.77256,-0.8248 2.77256,-1.8493 l 0,-4.7316 -0.61872,-2.73152 0.61872,-2.73155 0,-8.73156 c 0,-1.0245 -1.23656,-1.84927 -2.77256,-1.84927 l -1.14946,0 0,-0.67614 c 0.36042,-0.50557 0.58339,-1.22621 0.58339,-2.02843 l 0,-1.55453 c 0,-1.39834 -0.68246,-2.54337 -1.57689,-2.73926 -3.71331,-5.50064 -5.87928,-8.1654 -7.23175,-14.64395 0.81443,-0.29027 1.41516,-1.38524 1.41516,-2.69877 l 0,-1.55455 c 0,-1.53676 -0.82437,-2.77392 -1.84838,-2.77392 l -18.91115,0 z"
       id="rect2990-1-1-1-6-8-5-9"
       inkscape:connector-curvature="0"
       sodipodi:nodetypes="csscssscssccccsssccsssccssscccsscsssssscssccsssssccsscccssccssccssscc" />
    <path
       style="fill:#999999;fill-opacity:1;fill-rule:nonzero;stroke:#000000;stroke-width:0.99999994;stroke-linejoin:miter;stroke-miterlimit:4;stroke-opacity:1;stroke-dashoffset:0"
       d="m 140.64798,957.46799 c -1.02401,0 -1.84838,1.23717 -1.84838,2.77391 l 0,1.55455 c 0,1.25505 0.54605,2.31364 1.30541,2.65833 -1.02712,6.09185 -2.02727,8.6445 -7.23752,14.7133 -0.83768,0.26478 -1.46138,1.37217 -1.46138,2.71035 l 0,1.55455 c 0,1.36246 0.64698,2.48958 1.50758,2.72768 l 0,0.0116 c -0.16669,-0.0207 -0.33811,-0.0347 -0.51407,-0.0347 l -1.55957,0 c -1.53601,0 -2.77256,0.82478 -2.77256,1.84929 l 0,18.92625 c 0,1.0245 1.23655,1.8493 2.77256,1.8493 l 1.55957,0 c 0.17596,0 0.34738,-0.014 0.51407,-0.035 l 0,1.4852 c -0.16669,-0.021 -0.33811,-0.035 -0.51407,-0.035 l -1.55957,0 c -1.53601,0 -2.77256,0.8247 -2.77256,1.8492 l 0,18.9262 c 0,1.0245 1.23655,1.8493 2.77256,1.8493 l 1.55957,0 c 0.16804,0 0.33131,-0.016 0.49097,-0.035 3.02601,2.3258 2.29598,4.2111 5.85703,5.8252 l 0.0519,0 0,0.3178 c 0,1.5368 0.82438,2.7739 1.84838,2.7739 l 0.0867,0 c -0.057,0.2678 -0.0867,0.5527 -0.0867,0.8496 l 0,1.5545 c 0,1.5367 0.82437,2.7739 1.84837,2.7739 l 15.21441,0 c 1.024,0 1.84837,-1.2372 1.84837,-2.7739 l 0,-1.5545 c 0,-0.2969 -0.0297,-0.5818 -0.0867,-0.8496 l 0.0867,0 c 1.02401,0 1.84838,-1.2371 1.84838,-2.7739 l 0,-0.3467 c 3.57437,-1.7459 4.00053,-3.642 6.28446,-5.7674 0.0387,7e-4 0.0763,0.01 0.11552,0.01 l 1.55957,0 c 1.536,0 2.77256,-0.8248 2.77256,-1.8493 l 0,-18.9262 c 0,-1.0245 -1.23656,-1.8493 -2.77256,-1.8493 l -1.14946,0 0,-1.4158 1.14946,0 c 1.536,0 2.77256,-0.8248 2.77256,-1.8493 l 0,-4.7316 -0.61872,-2.73152 0.61872,-2.73155 0,-8.73156 c 0,-1.0245 -1.23656,-1.84927 -2.77256,-1.84927 l -1.14946,0 0,-0.67614 c 0.36042,-0.50557 0.58339,-1.22621 0.58339,-2.02843 l 0,-1.55453 c 0,-1.39834 -0.68246,-2.54337 -1.57689,-2.73926 -3.71331,-5.50064 -5.87928,-8.1654 -7.23175,-14.64395 0.81443,-0.29027 1.41516,-1.38524 1.41516,-2.69877 l 0,-1.55455 c 0,-1.53676 -0.82437,-2.77392 -1.84838,-2.77392 l -18.91115,0 z"
       id="rect2990-1-1-1-6-8"
       inkscape:connector-curvature="0"
       sodipodi:nodetypes="cssccssccssssssccsssssscccsscsssssscssccsssssccsscccssccssccssscc" />
    <path
       style="fill:#4d4d4d;fill-opacity:1;fill-rule:nonzero;stroke:#000000;stroke-width:0.99999994;stroke-linejoin:miter;stroke-miterlimit:4;stroke-opacity:1;stroke-dashoffset:0"
       d="m 170.25,37.40625 c -0.38192,0.38192 0.37983,1.90143 0.15625,2.125 -0.0884,0.0884 -0.44286,-0.0884 -0.53125,0 -0.17677,0.17678 -0.16697,0.54197 -0.34375,0.71875 -0.25821,0.25821 -3.71875,-0.10523 -3.71875,1.9375 0,1.17037 -1.24519,2.4952 -1.75,3 -0.79634,0.79634 1.36952,1.66721 1.21875,1.96875 -0.0909,0.18175 -0.98196,0.8257 -1.21875,1.0625 -0.41926,0.4193 -2.02221,1.98685 -1.96875,2.09375 0.51178,1.0235 3.52073,0.33325 3.90625,0.71875 0.2805,0.2805 0.18935,1.53215 0.6875,1.78125 0.57618,0.2881 2.35834,0 2.5,0 0.11072,0 0.8203,0.74225 1.21875,0.34375 0.33918,-0.3391 0.86143,-0.6739 1.25,-1.0625 0.0982,-0.098 0.27211,-0.1253 0.46875,-0.125 l 0,-2.15625 -0.59375,-2.71875 0.59375,-2.71875 0,-6.03125 c -0.96196,-0.56456 -1.77651,-1.03599 -1.875,-0.9375 z"
       transform="translate(0,952.36218)"
       id="rect2990-1-1-1-6"
       inkscape:connector-curvature="0" />
    <path
       style="fill:#cccccc;fill-opacity:1;fill-rule:nonzero;stroke:#000000;stroke-width:1;stroke-linejoin:miter;stroke-miterlimit:4;stroke-opacity:1;stroke-dashoffset:0"
       d="m -223.16979,492.39366 102.32948,0 c 5.54,0 10,6.69 10,15 l 0,8.416 c 0,8.31 -4.46,15 -10,15 l -102.32948,0 c -5.54,0 -10,-6.69 -10,-15 l 0,-8.416 c 0,-8.31 4.46,-15 10,-15 z"
       id="rect2990"
       inkscape:connector-curvature="0"
       sodipodi:nodetypes="sssssssss" />
    <path
       style="fill:#999999;fill-opacity:1;fill-rule:nonzero;stroke:#000000;stroke-width:0.99999994;stroke-linejoin:miter;stroke-miterlimit:4;stroke-opacity:1;stroke-dashoffset:0"
       d="m 40.64798,957.46799 c -1.02401,0 -1.84838,1.23717 -1.84838,2.77391 l 0,1.55455 c 0,1.25505 0.54605,2.31364 1.30541,2.65833 -1.02712,6.09185 -2.02727,8.6445 -7.23752,14.7133 -0.83768,0.26478 -1.46138,1.37217 -1.46138,2.71035 l 0,1.55455 c 0,1.36246 0.64698,2.48958 1.50758,2.72768 l 0,0.0116 c -0.16669,-0.0207 -0.33811,-0.0347 -0.51407,-0.0347 l -1.55957,0 c -1.53601,0 -2.77256,0.82478 -2.77256,1.84929 l 0,18.92625 c 0,1.0245 1.23655,1.8493 2.77256,1.8493 l 1.55957,0 c 0.17596,0 0.34738,-0.014 0.51407,-0.035 l 0,1.4852 c -0.16669,-0.021 -0.33811,-0.035 -0.51407,-0.035 l -1.55957,0 c -1.53601,0 -2.77256,0.8247 -2.77256,1.8492 l 0,18.9262 c 0,1.0245 1.23655,1.8493 2.77256,1.8493 l 1.55957,0 c 0.16804,0 0.33131,-0.016 0.49097,-0.035 3.02601,2.3258 2.29598,4.2111 5.85703,5.8252 l 0.0519,0 0,0.3178 c 0,1.5368 0.82438,2.7739 1.84838,2.7739 l 0.0867,0 c -0.057,0.2678 -0.0867,0.5527 -0.0867,0.8496 l 0,1.5545 c 0,1.5367 0.82437,2.7739 1.84837,2.7739 l 15.21441,0 c 1.024,0 1.84837,-1.2372 1.84837,-2.7739 l 0,-1.5545 c 0,-0.2969 -0.0297,-0.5818 -0.0867,-0.8496 l 0.0867,0 c 1.02401,0 1.84838,-1.2371 1.84838,-2.7739 l 0,-0.3467 c 3.57437,-1.7459 4.00053,-3.642 6.28446,-5.7674 0.0387,7e-4 0.0763,0.01 0.11552,0.01 l 1.55957,0 c 1.536,0 2.77256,-0.8248 2.77256,-1.8493 l 0,-18.9262 c 0,-1.0245 -1.23656,-1.8493 -2.77256,-1.8493 l -1.14946,0 0,-1.4158 1.14946,0 c 1.536,0 2.77256,-0.8248 2.77256,-1.8493 l 0,-18.92623 c 0,-1.0245 -1.23656,-1.84927 -2.77256,-1.84927 l -1.14946,0 0,-0.67614 c 0.36042,-0.50557 0.58339,-1.22621 0.58339,-2.02843 l 0,-1.55453 c 0,-1.39834 -0.68246,-2.54337 -1.57689,-2.73926 -3.71331,-5.50064 -5.87928,-8.1654 -7.23175,-14.64395 0.81443,-0.29027 1.41516,-1.38524 1.41516,-2.69877 l 0,-1.55455 c 0,-1.53676 -0.82437,-2.77392 -1.84838,-2.77392 l -18.91115,0 z"
       id="rect2990-1"
       inkscape:connector-curvature="0" />
    <path
       inkscape:connector-curvature="0"
       style="fill:#800000;fill-opacity:1;fill-rule:nonzero;stroke:#000000;stroke-width:1;stroke-linejoin:miter;stroke-miterlimit:4;stroke-opacity:1;stroke-dashoffset:0"
       d="m -513.15625,412.65908 c -5.54,0 -10,6.69 -10,15 l 0,8.40625 c 0,6.78666 2.9542,12.51102 7.0625,14.375 -5.55693,32.94184 -10.96786,46.74528 -39.15625,79.5625 -4.53195,1.4318 -7.90625,7.42004 -7.90625,14.65625 l 0,8.40625 c 0,7.36757 3.50026,13.46249 8.15625,14.75 l 0,0.0625 c -0.90186,-0.11199 -1.82925,-0.1875 -2.78125,-0.1875 l -8.4375,0 c -8.31,0 -15,4.46 -15,10 l 0,102.34375 c 0,5.54 6.69,10 15,10 l 8.4375,0 c 0.952,0 1.87939,-0.0755 2.78125,-0.1875 l 0,8.03125 c -0.90186,-0.11199 -1.82925,-0.1875 -2.78125,-0.1875 l -8.4375,0 c -8.31,0 -15,4.46 -15,10 l 0,102.34375 c 0,5.54 6.69,10 15,10 l 8.4375,0 c 0.90919,0 1.79249,-0.0851 2.65625,-0.1875 16.3712,12.57723 12.42162,22.77205 31.6875,31.5 l 0.28125,0 0,1.71875 c 0,8.31 4.46,15 10,15 l 0.46875,0 c -0.30852,1.44788 -0.46875,2.98841 -0.46875,4.59375 l 0,8.40625 c 0,8.31 4.46,15 10,15 l 82.3125,0 c 5.54,0 10,-6.69 10,-15 l 0,-8.40625 c 0,-1.60534 -0.16023,-3.14587 -0.46875,-4.59375 l 0.46875,0 c 5.54,0 10,-6.69 10,-15 l 0,-1.875 c 19.33797,-9.44107 21.64356,-19.69394 34,-31.1875 0.20987,0.006 0.41293,0.0312 0.625,0.0312 l 8.4375,0 c 8.31,0 15,-4.46 15,-10 l 0,-102.34375 c 0,-5.54 -6.69,-10 -15,-10 l -6.21875,0 0,-7.65625 6.21875,0 c 8.31,0 15,-4.46 15,-10 l 0,-102.34375 c 0,-5.54 -6.69,-10 -15,-10 l -6.21875,0 0,-3.65625 c 1.94994,-2.73385 3.15625,-6.63075 3.15625,-10.96875 l 0,-8.40625 c 0,-7.56149 -3.69224,-13.7533 -8.53125,-14.8125 -20.08964,-29.74491 -31.80787,-44.15462 -39.125,-79.1875 4.4062,-1.56972 7.65625,-7.49077 7.65625,-14.59375 l 0,-8.40625 c 0,-8.31 -4.46,-15 -10,-15 l -102.3125,0 z"
       id="rect2990-1-5" />
    <path
       style="fill:none;stroke:#000000;stroke-width:1px;stroke-linecap:butt;stroke-linejoin:miter;stroke-opacity:1"
       d="m 38.991044,1038.6122 22.109382,0"
       id="path2985"
       inkscape:connector-curvature="0"
       sodipodi:nodetypes="cc" />
    <path
       style="fill:none;stroke:#000000;stroke-width:1px;stroke-linecap:butt;stroke-linejoin:miter;stroke-opacity:1"
       d="m 40.761685,1041.664 18.588946,0"
       id="path2985-1"
       inkscape:connector-curvature="0"
       sodipodi:nodetypes="cc" />
    <path
       sodipodi:type="arc"
       style="fill:#808080;fill-opacity:1;fill-rule:nonzero;stroke:#000000"
       id="path3005"
       sodipodi:cx="-22.097088"
       sodipodi:cy="61.462681"
       sodipodi:rx="1.9445436"
       sodipodi:ry="1.9445436"
       d="m -20.152544,61.462681 c 0,1.073942 -0.870602,1.944543 -1.944544,1.944543 -1.073942,0 -1.944543,-0.870601 -1.944543,-1.944543 0,-1.073942 0.870601,-1.944544 1.944543,-1.944544 1.073942,0 1.944544,0.870602 1.944544,1.944544 z"
       transform="translate(72.124892,921.20417)" />
    <path
       style="fill:none;stroke:#000000;stroke-width:1px;stroke-linecap:butt;stroke-linejoin:miter;stroke-opacity:1"
       d="m 33.001786,979.08824 c 9.840569,-0.48113 24.244401,-0.4616 34.08497,0"
       id="path3013"
       inkscape:connector-curvature="0"
       sodipodi:nodetypes="cc" />
    <path
       sodipodi:type="arc"
       style="fill:#808080;fill-opacity:1;fill-rule:nonzero;stroke:#000000;stroke-width:1.07605517"
       id="path3005-7"
       sodipodi:cx="-22.097088"
       sodipodi:cy="61.462681"
       sodipodi:rx="1.9445436"
       sodipodi:ry="1.9445436"
       d="m -20.152544,61.462681 c 0,1.073942 -0.870602,1.944543 -1.944544,1.944543 -1.073942,0 -1.944543,-0.870601 -1.944543,-1.944543 0,-1.073942 0.870601,-1.944544 1.944543,-1.944544 1.073942,0 1.944544,0.870602 1.944544,1.944544 z"
       transform="matrix(0.86363636,0,0,1,83.376818,921.20417)" />
    <path
       sodipodi:type="arc"
       style="fill:#808080;fill-opacity:1;fill-rule:nonzero;stroke:#000000;stroke-width:1.07605517"
       id="path3005-7-4"
       sodipodi:cx="-22.097088"
       sodipodi:cy="61.462681"
       sodipodi:rx="1.9445436"
       sodipodi:ry="1.9445436"
       d="m -20.152544,61.462681 c 0,1.073942 -0.870602,1.944543 -1.944544,1.944543 -1.073942,0 -1.944543,-0.870601 -1.944543,-1.944543 0,-1.073942 0.870601,-1.944544 1.944543,-1.944544 1.073942,0 1.944544,0.870602 1.944544,1.944544 z"
       transform="matrix(0.86363636,0,0,1,55.376818,921.20417)" />
    <path
       style="fill:none;stroke:#000000;stroke-width:1px;stroke-linecap:butt;stroke-linejoin:miter;stroke-opacity:1"
       d="m 33.057242,33.797127 c 11.726188,0.531184 23.452375,0.408208 35.178563,0"
       id="path3051"
       inkscape:connector-curvature="0"
       transform="translate(0,952.36218)"
       sodipodi:nodetypes="cc" />
    <path
       style="fill:none;stroke:#000000;stroke-width:1px;stroke-linecap:butt;stroke-linejoin:miter;stroke-opacity:1"
       d="m 49.76264,90.277282 0,3.270369"
       id="path3071"
       inkscape:connector-curvature="0"
       transform="translate(0,952.36218)" />
    <path
       style="fill:none;stroke:#000000;stroke-width:1px;stroke-linecap:butt;stroke-linejoin:miter;stroke-opacity:1"
       d="m 55.76264,1042.6395 0,3.2703"
       id="path3071-9"
       inkscape:connector-curvature="0" />
    <path
       style="fill:none;stroke:#000000;stroke-width:1px;stroke-linecap:butt;stroke-linejoin:miter;stroke-opacity:1"
       d="m 43.76264,1042.6395 0,3.2703"
       id="path3071-4"
       inkscape:connector-curvature="0" />
    <path
       style="fill:none;stroke:#000000;stroke-width:1px;stroke-linecap:butt;stroke-linejoin:miter;stroke-opacity:1"
       d="m 32.879021,1011.7814 c -0.129897,6.2443 -0.580191,17.5181 0.0395,19.8308"
       id="path3098"
       inkscape:connector-curvature="0"
       sodipodi:nodetypes="cc" />
    <path
       style="fill:none;stroke:#000000;stroke-width:1px;stroke-linecap:butt;stroke-linejoin:miter;stroke-opacity:1"
       d="m 68.159169,1011.2372 c -0.02052,7.4141 0.110513,19.3025 -0.346423,20.5"
       id="path3118"
       inkscape:connector-curvature="0"
       sodipodi:nodetypes="cc" />
    <path
       style="fill:none;stroke:#000000;stroke-width:1px;stroke-linecap:butt;stroke-linejoin:miter;stroke-opacity:1"
       d="m 41.25,12 17.625,0"
       id="path3120"
       inkscape:connector-curvature="0"
       transform="translate(0,952.36218)" />
    <path
       style="fill:none;stroke:#000000;stroke-width:1px;stroke-linecap:butt;stroke-linejoin:miter;stroke-opacity:1"
       d="m 32.904592,1007.6122 c 0,-14.06497 0.286235,-19.5545 -0.287426,-20.75002"
       id="path3122"
       inkscape:connector-curvature="0"
       sodipodi:nodetypes="cc" />
    <path
       style="fill:none;stroke:#000000;stroke-width:1px;stroke-linecap:butt;stroke-linejoin:miter;stroke-opacity:1"
       d="m 68.1875,1007.2904 0,-20.10642"
       id="path3124"
       inkscape:connector-curvature="0" />
    <path
       style="fill:none;stroke:#000000;stroke-width:1px;stroke-linecap:butt;stroke-linejoin:miter;stroke-opacity:1"
       d="m 37.830213,56.866486 25.455844,0"
       id="path3128"
       inkscape:connector-curvature="0"
       transform="translate(0,952.36218)" />
    <path
       style="fill:none;stroke:#000000;stroke-width:1px;stroke-linecap:butt;stroke-linejoin:miter;stroke-opacity:1"
       d="m 36.625,55.25 1.6875,1.6875 -1.625,1.625"
       id="path3130"
       inkscape:connector-curvature="0"
       transform="translate(0,952.36218)" />
    <path
       style="fill:none;stroke:#000000;stroke-width:1px;stroke-linecap:butt;stroke-linejoin:miter;stroke-opacity:1"
       d="m 64.3125,1007.6122 -1.6875,1.6875 1.625,1.625"
       id="path3130-8"
       inkscape:connector-curvature="0" />
    <path
       sodipodi:type="arc"
       style="fill:#cccccc;fill-opacity:1;fill-rule:nonzero;stroke:#000000;stroke-width:1;stroke-linejoin:miter;stroke-miterlimit:4;stroke-opacity:1;stroke-dasharray:none;stroke-dashoffset:0"
       id="path3234"
       sodipodi:cx="50.734913"
       sodipodi:cy="45.022449"
       sodipodi:rx="8.0088596"
       sodipodi:ry="4.9497476"
       d="m 58.743773,45.022449 c 0,2.733671 -3.585689,4.949748 -8.00886,4.949748 -4.423171,0 -8.00886,-2.216077 -8.00886,-4.949748 0,-2.73367 3.585689,-4.949747 8.00886,-4.949747 4.423171,0 8.00886,2.216077 8.00886,4.949747 z"
       transform="translate(-0.70710678,953.12474)" />
    <path
       style="fill:none;stroke:#000000;stroke-width:1px;stroke-linecap:butt;stroke-linejoin:miter;stroke-opacity:1"
       d="m 50,966.36218 0,10.375"
       id="path3240"
       inkscape:connector-curvature="0" />
    <path
       style="fill:none;stroke:#000000;stroke-width:1px;stroke-linecap:butt;stroke-linejoin:miter;stroke-opacity:1"
       d="m 56,966.36218 c 0.603863,3.3746 0.509571,5.81832 2,10.375"
       id="path3240-1"
       inkscape:connector-curvature="0"
       sodipodi:nodetypes="cc" />
    <path
       style="fill:none;stroke:#000000;stroke-width:1px;stroke-linecap:butt;stroke-linejoin:miter;stroke-opacity:1"
       d="m 44,966.36218 c -0.603863,3.3746 -0.509571,5.81832 -2,10.375"
       id="path3240-1-1"
       inkscape:connector-curvature="0"
       sodipodi:nodetypes="cc" />
    <path
       style="fill:none;stroke:#000000;stroke-width:0.99999994px;stroke-linecap:butt;stroke-linejoin:miter;stroke-opacity:1"
       d="m 36.592775,1033.3399 c 9.074462,0.9464 18.246758,1.0389 27.400386,0"
       id="path3280"
       inkscape:connector-curvature="0"
       sodipodi:nodetypes="cc" />
    <path
       style="fill:#4d4d4d;fill-opacity:1;fill-rule:nonzero;stroke:#000000;stroke-width:0.99999994;stroke-linejoin:miter;stroke-miterlimit:4;stroke-opacity:1;stroke-dashoffset:0"
       d="m 134.59375,75.40625 c -0.0138,0.0019 -0.0393,0.0081 -0.0625,0.03125 -1.16719,1.167183 -2.59504,2.406852 -4.0625,4.21875 0.0835,0.134178 0.15093,0.417479 0.21875,0.78125 0.0524,0.002 0.10308,0 0.15625,0 l 1.5625,0 c 0.16804,0 0.30909,-0.01225 0.46875,-0.03125 3.02601,2.3258 2.31395,4.1984 5.875,5.8125 l 0.0625,0 0,0.34375 c 0,1.5368 0.81975,2.75 1.84375,2.75 l 0.0937,0 c -0.006,0.02939 0.006,0.06395 0,0.09375 0.43907,-0.203631 0.87544,-0.53125 1.03125,-0.53125 0.42268,0 0.62814,-1.003135 0.875,-1.25 0.84628,-0.846278 2.69485,-1.444843 3.1875,-1.9375 0.34179,-0.341786 0.75637,-1.100115 1.0625,-1.40625 0.0884,-0.08839 0.44285,0.08839 0.53125,0 0.34499,-0.344985 -0.45765,-0.83261 -0.53125,-0.90625 -0.0408,-0.0408 0.13935,-0.713818 -0.21025,-1.06342 -0.2357,-0.235706 -0.61654,-0.450878 -0.85225,-0.68658 -0.125,-0.125001 0,-1.053644 0,-1.25 0,-0.497483 -0.74071,-0.643572 -0.53125,-1.0625 0.2153,-0.430596 1.59375,-2.92945 1.59375,-3 0,-0.08333 -0.1286,0.12857 -0.1875,0.1875 -0.18925,0.189247 -0.92543,0.15625 -1.21875,0.15625 -1.54555,0 -2.90309,0.90625 -4.4375,0.90625 -1.08787,0 -0.75466,0.0891 -1.21875,-0.375 -0.51146,-0.511453 -3.62404,0.313462 -4.09375,-0.15625 -0.0884,-0.08839 0.0884,-0.44286 0,-0.53125 -0.26516,-0.265165 -0.76608,-0.266085 -1.03125,-0.53125 -0.12895,-0.128953 -0.0286,-0.575983 -0.125,-0.5625 z"
       transform="translate(0,952.36218)"
       id="rect2990-1-1"
       inkscape:connector-curvature="0"
       sodipodi:nodetypes="ccccsscccssccssssccscscscssccccc" />
    <path
       style="fill:none;stroke:#000000;stroke-width:1px;stroke-linecap:butt;stroke-linejoin:miter;stroke-opacity:1"
       d="m 138.99104,1038.6122 22.10939,0"
       id="path2985-7"
       inkscape:connector-curvature="0"
       sodipodi:nodetypes="cc" />
    <path
       style="fill:none;stroke:#000000;stroke-width:1px;stroke-linecap:butt;stroke-linejoin:miter;stroke-opacity:1"
       d="m 140.76169,1041.664 18.58894,0"
       id="path2985-1-4"
       inkscape:connector-curvature="0"
       sodipodi:nodetypes="cc" />
    <path
       sodipodi:type="arc"
       style="fill:#808080;fill-opacity:1;fill-rule:nonzero;stroke:#000000"
       id="path3005-0"
       sodipodi:cx="-22.097088"
       sodipodi:cy="61.462681"
       sodipodi:rx="1.9445436"
       sodipodi:ry="1.9445436"
       d="m -20.152544,61.462681 c 0,1.073942 -0.870602,1.944543 -1.944544,1.944543 -1.073942,0 -1.944543,-0.870601 -1.944543,-1.944543 0,-1.073942 0.870601,-1.944544 1.944543,-1.944544 1.073942,0 1.944544,0.870602 1.944544,1.944544 z"
       transform="translate(172.12489,921.20417)" />
    <path
       style="fill:none;stroke:#000000;stroke-width:1px;stroke-linecap:butt;stroke-linejoin:miter;stroke-opacity:1"
       d="m 133.00179,979.08824 c 9.84056,-0.48113 24.2444,-0.4616 34.08497,0"
       id="path3013-9"
       inkscape:connector-curvature="0"
       sodipodi:nodetypes="cc" />
    <path
       sodipodi:type="arc"
       style="fill:#808080;fill-opacity:1;fill-rule:nonzero;stroke:#000000;stroke-width:1.07605517"
       id="path3005-7-48"
       sodipodi:cx="-22.097088"
       sodipodi:cy="61.462681"
       sodipodi:rx="1.9445436"
       sodipodi:ry="1.9445436"
       d="m -20.152544,61.462681 c 0,1.073942 -0.870602,1.944543 -1.944544,1.944543 -1.073942,0 -1.944543,-0.870601 -1.944543,-1.944543 0,-1.073942 0.870601,-1.944544 1.944543,-1.944544 1.073942,0 1.944544,0.870602 1.944544,1.944544 z"
       transform="matrix(0.86363636,0,0,1,183.37682,921.20417)" />
    <path
       sodipodi:type="arc"
       style="fill:#808080;fill-opacity:1;fill-rule:nonzero;stroke:#000000;stroke-width:1.07605517"
       id="path3005-7-4-8"
       sodipodi:cx="-22.097088"
       sodipodi:cy="61.462681"
       sodipodi:rx="1.9445436"
       sodipodi:ry="1.9445436"
       d="m -20.152544,61.462681 c 0,1.073942 -0.870602,1.944543 -1.944544,1.944543 -1.073942,0 -1.944543,-0.870601 -1.944543,-1.944543 0,-1.073942 0.870601,-1.944544 1.944543,-1.944544 1.073942,0 1.944544,0.870602 1.944544,1.944544 z"
       transform="matrix(0.86363636,0,0,1,155.37682,921.20417)" />
    <path
       style="fill:none;stroke:#000000;stroke-width:1px;stroke-linecap:butt;stroke-linejoin:miter;stroke-opacity:1"
       d="m 133.05724,986.15931 c 11.72619,0.53118 23.45238,0.40821 35.17857,0"
       id="path3051-2"
       inkscape:connector-curvature="0"
       sodipodi:nodetypes="cc" />
    <path
       style="fill:none;stroke:#000000;stroke-width:1px;stroke-linecap:butt;stroke-linejoin:miter;stroke-opacity:1"
       d="m 149.76264,1042.6395 0,3.2703"
       id="path3071-45"
       inkscape:connector-curvature="0" />
    <path
       style="fill:none;stroke:#000000;stroke-width:1px;stroke-linecap:butt;stroke-linejoin:miter;stroke-opacity:1"
       d="m 155.76264,1042.6395 0,3.2703"
       id="path3071-9-5"
       inkscape:connector-curvature="0" />
    <path
       style="fill:none;stroke:#000000;stroke-width:1px;stroke-linecap:butt;stroke-linejoin:miter;stroke-opacity:1"
       d="m 143.76264,1042.6395 0,3.2703"
       id="path3071-4-1"
       inkscape:connector-curvature="0" />
    <path
       style="fill:none;stroke:#000000;stroke-width:1px;stroke-linecap:butt;stroke-linejoin:miter;stroke-opacity:1"
       d="m 132.87902,1011.7814 c -0.1299,6.2443 -0.58019,17.5181 0.0395,19.8308"
       id="path3098-7"
       inkscape:connector-curvature="0"
       sodipodi:nodetypes="cc" />
    <path
       style="fill:none;stroke:#000000;stroke-width:1px;stroke-linecap:butt;stroke-linejoin:miter;stroke-opacity:1"
       d="m 168.15917,1011.2372 c -0.0205,7.4141 0.11051,19.3025 -0.34642,20.5"
       id="path3118-1"
       inkscape:connector-curvature="0"
       sodipodi:nodetypes="cc" />
    <path
       style="fill:none;stroke:#000000;stroke-width:1px;stroke-linecap:butt;stroke-linejoin:miter;stroke-opacity:1"
       d="m 141.25,964.36218 17.625,0"
       id="path3120-1"
       inkscape:connector-curvature="0" />
    <path
       style="fill:none;stroke:#000000;stroke-width:1px;stroke-linecap:butt;stroke-linejoin:miter;stroke-opacity:1"
       d="m 132.90459,1007.6122 c 0,-14.06497 0.28624,-19.5545 -0.28742,-20.75002"
       id="path3122-5"
       inkscape:connector-curvature="0"
       sodipodi:nodetypes="cc" />
    <path
       style="fill:none;stroke:#000000;stroke-width:1px;stroke-linecap:butt;stroke-linejoin:miter;stroke-opacity:1"
       d="m 168.1875,1007.2904 0,-20.10642"
       id="path3124-2"
       inkscape:connector-curvature="0" />
    <path
       style="fill:none;stroke:#000000;stroke-width:1px;stroke-linecap:butt;stroke-linejoin:miter;stroke-opacity:1"
       d="m 137.83021,1009.2287 25.45585,0"
       id="path3128-7"
       inkscape:connector-curvature="0" />
    <path
       style="fill:none;stroke:#000000;stroke-width:1px;stroke-linecap:butt;stroke-linejoin:miter;stroke-opacity:1"
       d="m 136.625,1007.6122 1.6875,1.6875 -1.625,1.625"
       id="path3130-6"
       inkscape:connector-curvature="0" />
    <path
       style="fill:none;stroke:#000000;stroke-width:1px;stroke-linecap:butt;stroke-linejoin:miter;stroke-opacity:1"
       d="m 164.3125,1007.6122 -1.6875,1.6875 1.625,1.625"
       id="path3130-8-1"
       inkscape:connector-curvature="0" />
    <path
       sodipodi:type="arc"
       style="fill:#cccccc;fill-opacity:1;fill-rule:nonzero;stroke:#000000;stroke-width:1;stroke-linejoin:miter;stroke-miterlimit:4;stroke-opacity:1;stroke-dasharray:none;stroke-dashoffset:0"
       id="path3234-4"
       sodipodi:cx="50.734913"
       sodipodi:cy="45.022449"
       sodipodi:rx="8.0088596"
       sodipodi:ry="4.9497476"
       d="m 58.743773,45.022449 c 0,2.733671 -3.585689,4.949748 -8.00886,4.949748 -4.423171,0 -8.00886,-2.216077 -8.00886,-4.949748 0,-2.73367 3.585689,-4.949747 8.00886,-4.949747 4.423171,0 8.00886,2.216077 8.00886,4.949747 z"
       transform="translate(99.292893,953.12474)" />
    <path
       style="fill:none;stroke:#000000;stroke-width:1px;stroke-linecap:butt;stroke-linejoin:miter;stroke-opacity:1"
       d="m 150,966.36218 0,10.375"
       id="path3240-2"
       inkscape:connector-curvature="0" />
    <path
       style="fill:none;stroke:#000000;stroke-width:1px;stroke-linecap:butt;stroke-linejoin:miter;stroke-opacity:1"
       d="m 156,966.36218 c 0.60386,3.3746 0.50957,5.81832 2,10.375"
       id="path3240-1-3"
       inkscape:connector-curvature="0"
       sodipodi:nodetypes="cc" />
    <path
       style="fill:none;stroke:#000000;stroke-width:1px;stroke-linecap:butt;stroke-linejoin:miter;stroke-opacity:1"
       d="m 144,966.36218 c -0.60386,3.3746 -0.50957,5.81832 -2,10.375"
       id="path3240-1-1-2"
       inkscape:connector-curvature="0"
       sodipodi:nodetypes="cc" />
    <path
       style="fill:none;stroke:#000000;stroke-width:0.99999994px;stroke-linecap:butt;stroke-linejoin:miter;stroke-opacity:1"
       d="m 136.59278,1033.3399 c 2.26862,0.2366 4.91834,-0.2052 7.19737,-0.08 2.27902,0.1255 4.18734,0.8183 6.47313,0.8241 2.28579,0.01 4.57406,-0.051 6.86298,-0.1731 2.28892,-0.1227 4.57849,-0.3117 6.8669,-0.5714"
       id="path3280-2"
       inkscape:connector-curvature="0"
       sodipodi:nodetypes="csssc" />
    <path
       style="fill:#4d4d4d;fill-opacity:1;fill-rule:nonzero;stroke:#000000;stroke-width:0.99999994;stroke-linejoin:miter;stroke-miterlimit:4;stroke-opacity:1;stroke-dashoffset:0"
       d="m 240.21875,16.6875 c -0.23584,-0.0045 -0.66632,0.0795 -1.125,0.1875 -0.20436,0.885354 -0.3835,1.760084 -0.78125,2.59375 -0.51485,1.07913 -1.4075,2.15583 -2.25,3.34375 -0.17496,0.246687 -0.40122,0.52413 -0.59375,0.78125 0.19553,0.166515 0.39939,0.34032 0.65625,0.46875 0.34238,0.17119 0.51581,0.49228 0.90625,0.6875 0.3308,0.1654 0.67137,-0.23387 0.78125,-0.34375 0.14732,-0.14732 0.72768,0.14731 0.875,0 0.0737,-0.07366 0.02,-0.27005 0.0937,-0.34375 0.11786,-0.11785 0.6009,0.11785 0.71875,0 0.45973,-0.45973 0.84202,-0.93577 1.3125,-1.40625 0.12318,-0.12318 0.7405,-0.303 0.8125,-0.375 0.0269,-0.02693 -1.08776,-1.72474 -0.96875,-1.84375 0.25167,-0.25167 1.125,-0.25895 1.125,-0.34375 0,-0.23067 -0.56855,-0.69355 -0.6875,-0.8125 -0.19151,-0.19151 -0.18349,-0.58975 -0.375,-0.78125 -0.11748,-0.11748 -0.48903,-0.17653 -0.59375,-0.28125 -0.34028,-0.34027 0.59633,-1.15368 0.25,-1.5 -0.0258,-0.02577 -0.0757,-0.02972 -0.15625,-0.03125 z"
       transform="translate(0,952.36218)"
       id="rect2990-1-1-1-6-8-5"
       inkscape:connector-curvature="0" />
    <path
       style="fill:#4d4d4d;stroke:#000000;stroke-width:1px;stroke-linecap:butt;stroke-linejoin:miter;stroke-opacity:1"
       d="m 237.12142,996.895 c 1.84032,0.13864 0.74501,0.69015 1.08424,1.75343 0.16557,0.51897 1.94117,0.73808 2.11803,1.29237 0.29835,0.9352 -0.59757,1.417 -0.11677,2.9238 0.16391,0.514 -0.50917,0.2937 -0.55748,0.3091 -0.23813,0.076 -0.24834,0.8665 -0.48651,0.9425 -0.2779,0.089 -0.59374,0.058 -0.87163,0.1469 -0.0202,0.01 -1.26808,2.2415 -2.08792,2.503 -0.38547,0.123 -2.18979,-1.3293 -2.7464,-1.6166 -0.30376,-0.1568 -1.63518,-0.6015 -1.72788,-0.892 -0.0526,-0.1651 0.30102,-0.7015 0.24838,-0.8665 -0.16044,-0.5028 -1.09066,-1.2564 -1.07916,-2.1487 0.0151,-1.1729 0.21658,-2.19981 -0.11624,-3.24314 -0.22042,-0.69066 1.41203,0.86162 1.80894,0.73498 0.19011,-0.0607 0.23804,-0.66319 0.40546,-0.78541 0.17261,-0.12596 2.87784,0.50768 4.12494,-1.05373 z"
       id="path4098"
       inkscape:connector-curvature="0" />
    <path
       inkscape:connector-curvature="0"
       style="fill:#4d4d4d;fill-opacity:1;fill-rule:nonzero;stroke:#000000;stroke-width:0.99999994;stroke-linejoin:miter;stroke-miterlimit:4;stroke-opacity:1;stroke-dashoffset:0"
       d="m 270.25,989.76843 c -0.38192,0.38192 0.37983,1.90143 0.15625,2.125 -0.0884,0.0884 -0.44286,-0.0884 -0.53125,0 -0.17677,0.17678 -0.16697,0.54197 -0.34375,0.71875 -0.25821,0.25821 -3.71875,-0.10523 -3.71875,1.9375 0,1.17037 -1.24519,2.4952 -1.75,3 -0.79634,0.79634 1.36952,1.66721 1.21875,1.96875 -0.0909,0.18175 -0.98196,0.82567 -1.21875,1.06247 -0.41926,0.4193 -2.02221,1.9869 -1.96875,2.0938 0.51178,1.0235 3.52073,0.3332 3.90625,0.7187 0.2805,0.2805 0.18935,1.5322 0.6875,1.7813 0.57618,0.2881 2.35834,0 2.5,0 0.11072,0 0.8203,0.7422 1.21875,0.3437 0.33918,-0.3391 0.86143,-0.6739 1.25,-1.0625 0.0982,-0.098 0.27211,-0.1253 0.46875,-0.125 l 0,-2.1562 -0.59375,-2.71877 0.59375,-2.71875 0,-6.03125 c -0.96196,-0.56456 -1.77651,-1.03599 -1.875,-0.9375 z"
       id="rect2990-1-1-1-6-7" />
    <path
       style="fill:#4d4d4d;fill-opacity:1;fill-rule:nonzero;stroke:#000000;stroke-width:0.99999994;stroke-linejoin:miter;stroke-miterlimit:4;stroke-opacity:1;stroke-dashoffset:0"
       d="m 234.59375,1027.7684 c -0.0138,0 -0.0393,0.01 -0.0625,0.031 -1.16719,1.1672 -2.59504,2.4068 -4.0625,4.2187 0.0835,0.1342 0.15093,0.4175 0.21875,0.7813 0.0524,0 0.10308,0 0.15625,0 l 1.5625,0 c 0.16804,0 0.30909,-0.012 0.46875,-0.031 3.02601,2.3258 2.31395,4.1984 5.875,5.8125 l 0.0625,0 0,0.3438 c 0,1.5368 0.81975,2.75 1.84375,2.75 l 0.0937,0 c -0.006,0.029 0.006,0.064 0,0.094 0.43907,-0.2036 0.87544,-0.5312 1.03125,-0.5312 0.42268,0 0.62814,-1.0032 0.875,-1.25 0.84628,-0.8463 2.69485,-1.4449 3.1875,-1.9375 0.34179,-0.3418 0.75637,-1.1001 1.0625,-1.4063 0.0884,-0.088 0.44285,0.088 0.53125,0 0.34499,-0.345 -0.45765,-0.8326 -0.53125,-0.9062 -0.0408,-0.041 0.13935,-0.7138 -0.21025,-1.0634 -0.2357,-0.2358 -0.61654,-0.4509 -0.85225,-0.6866 -0.125,-0.125 0,-1.0537 0,-1.25 0,-0.4975 -0.74071,-0.6436 -0.53125,-1.0625 0.2153,-0.4306 1.59375,-2.9295 1.59375,-3 0,-0.083 -0.1286,0.1285 -0.1875,0.1875 -0.18925,0.1892 -0.92543,0.1562 -1.21875,0.1562 -1.54555,0 -2.90309,0.9063 -4.4375,0.9063 -1.08787,0 -0.75466,0.089 -1.21875,-0.375 -0.51146,-0.5115 -3.62404,0.3134 -4.09375,-0.1563 -0.0884,-0.088 0.0884,-0.4428 0,-0.5312 -0.26516,-0.2652 -0.76608,-0.2661 -1.03125,-0.5313 -0.12895,-0.1289 -0.0286,-0.576 -0.125,-0.5625 z"
       id="rect2990-1-1-6"
       inkscape:connector-curvature="0"
       sodipodi:nodetypes="ccccsscccssccssssccscscscssccccc" />
    <path
       style="fill:none;stroke:#000000;stroke-width:1px;stroke-linecap:butt;stroke-linejoin:miter;stroke-opacity:1"
       d="m 238.99104,1038.6122 22.10939,0"
       id="path2985-7-1"
       inkscape:connector-curvature="0"
       sodipodi:nodetypes="cc" />
    <path
       style="fill:none;stroke:#000000;stroke-width:1px;stroke-linecap:butt;stroke-linejoin:miter;stroke-opacity:1"
       d="m 240.76169,1041.664 18.58894,0"
       id="path2985-1-4-8"
       inkscape:connector-curvature="0"
       sodipodi:nodetypes="cc" />
    <path
       sodipodi:type="arc"
       style="fill:#808080;fill-opacity:1;fill-rule:nonzero;stroke:#000000"
       id="path3005-0-9"
       sodipodi:cx="-22.097088"
       sodipodi:cy="61.462681"
       sodipodi:rx="1.9445436"
       sodipodi:ry="1.9445436"
       d="m -20.152544,61.462681 c 0,1.073942 -0.870602,1.944543 -1.944544,1.944543 -1.073942,0 -1.944543,-0.870601 -1.944543,-1.944543 0,-1.073942 0.870601,-1.944544 1.944543,-1.944544 1.073942,0 1.944544,0.870602 1.944544,1.944544 z"
       transform="translate(272.12489,921.20417)" />
    <path
       style="fill:none;stroke:#000000;stroke-width:1px;stroke-linecap:butt;stroke-linejoin:miter;stroke-opacity:1"
       d="m 233.00179,979.08824 c 2.46014,-0.12028 5.70549,0.41573 8.59343,0.35711 2.88795,-0.0586 5.4185,-0.71185 8.44905,-0.71063 3.03055,10e-4 6.0611,0.0319 8.94905,0.0911 2.88795,0.0592 5.6333,0.147 8.09344,0.2624"
       id="path3013-9-2"
       inkscape:connector-curvature="0"
       sodipodi:nodetypes="csssc" />
    <path
       sodipodi:type="arc"
       style="fill:#808080;fill-opacity:1;fill-rule:nonzero;stroke:#000000;stroke-width:1.07605517"
       id="path3005-7-48-7"
       sodipodi:cx="-22.097088"
       sodipodi:cy="61.462681"
       sodipodi:rx="1.9445436"
       sodipodi:ry="1.9445436"
       d="m -20.152544,61.462681 c 0,1.073942 -0.870602,1.944543 -1.944544,1.944543 -1.073942,0 -1.944543,-0.870601 -1.944543,-1.944543 0,-1.073942 0.870601,-1.944544 1.944543,-1.944544 1.073942,0 1.944544,0.870602 1.944544,1.944544 z"
       transform="matrix(0.86363636,0,0,1,283.37682,921.20417)" />
    <path
       transform="matrix(0.86363636,0,0,1,255.37682,921.20417)"
       style="fill:#808080;fill-opacity:1;fill-rule:nonzero;stroke:#000000;stroke-width:1.07605517"
       d="m -21.165702,61.837681 c 0,1.073942 0.142556,1.569543 -0.931386,1.569543 -1.073942,0 -1.944543,-0.870601 -1.944543,-1.944543 0,-1.073942 1.015338,-1.444544 2.08928,-1.444544 1.073942,0 0.786649,0.745602 0.786649,1.819544 z"
       id="path3005-7-4-8-9"
       inkscape:connector-curvature="0"
       sodipodi:nodetypes="sssss" />
    <path
       style="fill:none;stroke:#000000;stroke-width:1px;stroke-linecap:butt;stroke-linejoin:miter;stroke-opacity:1"
       d="m 233.05724,986.15931 c 1.46577,0.0664 3.55655,0.49757 5.02232,0.54425 1.46578,0.0467 2.55655,-0.54115 4.02232,-0.51275 1.46578,0.0284 2.68155,0.29801 4.14732,0.30956 1.46578,0.0116 2.93155,0.015 4.39732,0.0112 1.46578,-0.004 2.93155,-0.015 4.39733,-0.0328 1.46577,-0.0178 2.93154,-0.0422 4.39732,-0.0725 1.46577,-0.0303 2.93154,-0.0665 4.39732,-0.10792 1.46577,-0.0414 2.93155,-0.088 4.39732,-0.13899"
       id="path3051-2-5"
       inkscape:connector-curvature="0"
       sodipodi:nodetypes="csssssssc" />
    <path
       style="fill:none;stroke:#000000;stroke-width:1px;stroke-linecap:butt;stroke-linejoin:miter;stroke-opacity:1"
       d="m 249.76264,1042.6395 0,3.2703"
       id="path3071-45-4"
       inkscape:connector-curvature="0" />
    <path
       style="fill:none;stroke:#000000;stroke-width:1px;stroke-linecap:butt;stroke-linejoin:miter;stroke-opacity:1"
       d="m 255.76264,1042.6395 0,3.2703"
       id="path3071-9-5-3"
       inkscape:connector-curvature="0" />
    <path
       style="fill:none;stroke:#000000;stroke-width:1px;stroke-linecap:butt;stroke-linejoin:miter;stroke-opacity:1"
       d="m 243.76264,1042.6395 0,3.2703"
       id="path3071-4-1-1"
       inkscape:connector-curvature="0" />
    <path
       style="fill:none;stroke:#000000;stroke-width:1px;stroke-linecap:butt;stroke-linejoin:miter;stroke-opacity:1"
       d="m 233.25402,1012.5314 c -0.0325,1.5611 -0.46,1.9365 -0.51077,3.9077 -0.0508,1.9711 0.69559,4.6996 0.66992,6.6437 -0.0257,1.944 -0.82342,3.4116 -0.78052,4.8913 0.0429,1.4797 0.30772,2.4412 0.46265,3.0194"
       id="path3098-7-2"
       inkscape:connector-curvature="0"
       sodipodi:nodetypes="csssc" />
    <path
       style="fill:none;stroke:#000000;stroke-width:1px;stroke-linecap:butt;stroke-linejoin:miter;stroke-opacity:1"
       d="m 268.15917,1011.2372 c -0.0205,7.4141 0.11051,19.3025 -0.34642,20.5"
       id="path3118-1-3"
       inkscape:connector-curvature="0"
       sodipodi:nodetypes="cc" />
    <path
       style="fill:none;stroke:#000000;stroke-width:1px;stroke-linecap:butt;stroke-linejoin:miter;stroke-opacity:1"
       d="m 241.25,964.36218 17.625,0"
       id="path3120-1-3"
       inkscape:connector-curvature="0" />
    <path
       style="fill:none;stroke:#000000;stroke-width:1px;stroke-linecap:butt;stroke-linejoin:miter;stroke-opacity:1"
       d="m 232.90459,1007.6122 c 0,-3.5162 1.26789,-6.1215 1.28576,-8.63273 -0.282,-3.22169 -1.89886,-3.93546 -1.28625,-6.72363 -0.0538,-0.90252 1.7315,-2.21978 -0.0369,-3.89366"
       id="path3122-5-4"
       inkscape:connector-curvature="0"
       sodipodi:nodetypes="cccc" />
    <path
       style="fill:none;stroke:#000000;stroke-width:1px;stroke-linecap:butt;stroke-linejoin:miter;stroke-opacity:1"
       d="m 268.1875,1007.2904 0,-20.10642"
       id="path3124-2-1"
       inkscape:connector-curvature="0" />
    <path
       style="fill:none;stroke:#000000;stroke-width:1px;stroke-linecap:butt;stroke-linejoin:miter;stroke-opacity:1"
       d="m 237.83021,1009.2287 3.35876,0.4419 3.0052,-0.4419 3.18198,0 3.18198,0 3.18199,0 3.0052,-0.4419 3.09359,0.1767 3.44715,0.2652"
       id="path3128-7-1"
       inkscape:connector-curvature="0"
       sodipodi:nodetypes="ccccccccc" />
    <path
       style="fill:none;stroke:#000000;stroke-width:1px;stroke-linecap:butt;stroke-linejoin:miter;stroke-opacity:1"
       d="m 236.625,1007.6122 1.6875,1.6875 -1.625,1.625"
       id="path3130-6-3"
       inkscape:connector-curvature="0" />
    <path
       style="fill:none;stroke:#000000;stroke-width:1px;stroke-linecap:butt;stroke-linejoin:miter;stroke-opacity:1"
       d="m 264.3125,1007.6122 -1.6875,1.6875 1.625,1.625"
       id="path3130-8-1-8"
       inkscape:connector-curvature="0" />
    <path
       sodipodi:type="arc"
       style="fill:#cccccc;fill-opacity:1;fill-rule:nonzero;stroke:#000000;stroke-width:1;stroke-linejoin:miter;stroke-miterlimit:4;stroke-opacity:1;stroke-dasharray:none;stroke-dashoffset:0"
       id="path3234-4-7"
       sodipodi:cx="50.734913"
       sodipodi:cy="45.022449"
       sodipodi:rx="8.0088596"
       sodipodi:ry="4.9497476"
       d="m 58.743773,45.022449 c 0,2.733671 -3.585689,4.949748 -8.00886,4.949748 -4.423171,0 -8.00886,-2.216077 -8.00886,-4.949748 0,-2.73367 3.585689,-4.949747 8.00886,-4.949747 4.423171,0 8.00886,2.216077 8.00886,4.949747 z"
       transform="translate(199.29289,953.12474)" />
    <path
       style="fill:none;stroke:#000000;stroke-width:1px;stroke-linecap:butt;stroke-linejoin:miter;stroke-opacity:1"
       d="m 250,966.36218 0,10.375"
       id="path3240-2-4"
       inkscape:connector-curvature="0" />
    <path
       style="fill:none;stroke:#000000;stroke-width:1px;stroke-linecap:butt;stroke-linejoin:miter;stroke-opacity:1"
       d="m 256,966.36218 c 0.60386,3.3746 0.50957,5.81832 2,10.375"
       id="path3240-1-3-2"
       inkscape:connector-curvature="0"
       sodipodi:nodetypes="cc" />
    <path
       style="fill:none;stroke:#000000;stroke-width:1px;stroke-linecap:butt;stroke-linejoin:miter;stroke-opacity:1"
       d="m 244,966.36218 c -0.15096,0.84365 -0.2583,1.62912 -0.35766,2.40397 -0.0994,0.77485 -0.19077,1.53908 -0.30988,2.34025 -0.1191,0.80117 -0.0159,2.26428 -0.2261,3.18689 -0.21019,0.92261 -0.73375,1.30472 -1.10636,2.44389"
       id="path3240-1-1-2-7"
       inkscape:connector-curvature="0"
       sodipodi:nodetypes="csssc" />
    <path
       style="fill:none;stroke:#000000;stroke-width:0.99999994px;stroke-linecap:butt;stroke-linejoin:miter;stroke-opacity:1"
       d="m 236.59278,1033.3399 c 2.26862,0.2366 4.91834,-0.2052 7.19737,-0.08 2.27902,0.1255 4.18734,0.8183 6.47313,0.8241 2.28579,0.01 4.57406,-0.051 6.86298,-0.1731 2.28892,-0.1227 4.57849,-0.3117 6.8669,-0.5714"
       id="path3280-2-7"
       inkscape:connector-curvature="0"
       sodipodi:nodetypes="csssc" />
    <path
       style="fill:#4d4d4d;fill-opacity:1;fill-rule:nonzero;stroke:#000000;stroke-width:0.99999994;stroke-linejoin:miter;stroke-miterlimit:4;stroke-opacity:1;stroke-dashoffset:0"
       d="m 362.03125,18.4375 c -0.0961,0.12099 0.33932,0.25987 0.0433,0.4375 L 361.5,20.625 c -0.30345,0.924295 -0.036,2.589032 0.5,3.125 0.4146,0.414599 1.39279,0.01779 1.75,0.375 0.23899,0.238987 1.41505,1.09293 2.3125,0.96875 -1.64807,-2.416118 -2.99795,-4.453505 -4.03125,-6.65625 z"
       transform="translate(0,952.36218)"
       id="rect2990-1-1-1-6-8-5-9-3"
       inkscape:connector-curvature="0"
       sodipodi:nodetypes="ccscscc" />
    <path
       inkscape:connector-curvature="0"
       style="fill:#4d4d4d;fill-opacity:1;fill-rule:nonzero;stroke:#000000;stroke-width:0.99999994;stroke-linejoin:miter;stroke-miterlimit:4;stroke-opacity:1;stroke-dashoffset:0"
       d="m 340.21875,969.04968 c -0.23584,-0.004 -0.66632,0.0795 -1.125,0.1875 -0.20436,0.88535 -0.3835,1.76008 -0.78125,2.59375 -0.51485,1.07913 -1.4075,2.15583 -2.25,3.34375 -0.17496,0.24669 -0.40122,0.52413 -0.59375,0.78125 0.19553,0.16652 0.39939,0.34032 0.65625,0.46875 0.34238,0.17119 0.51581,0.49228 0.90625,0.6875 0.3308,0.1654 0.67137,-0.23387 0.78125,-0.34375 0.14732,-0.14732 0.72768,0.14731 0.875,0 0.0737,-0.0737 0.02,-0.27005 0.0937,-0.34375 0.11786,-0.11785 0.6009,0.11785 0.71875,0 0.45973,-0.45973 0.84202,-0.93577 1.3125,-1.40625 0.12318,-0.12318 0.7405,-0.303 0.8125,-0.375 0.0269,-0.0269 -1.08776,-1.72474 -0.96875,-1.84375 0.25167,-0.25167 1.125,-0.25895 1.125,-0.34375 0,-0.23067 -0.56855,-0.69355 -0.6875,-0.8125 -0.19151,-0.19151 -0.18349,-0.58975 -0.375,-0.78125 -0.11748,-0.11748 -0.48903,-0.17653 -0.59375,-0.28125 -0.34028,-0.34027 0.59633,-1.15368 0.25,-1.5 -0.0258,-0.0258 -0.0757,-0.0297 -0.15625,-0.0312 z"
       id="rect2990-1-1-1-6-8-5-1" />
    <path
       style="fill:#4d4d4d;stroke:#000000;stroke-width:1px;stroke-linecap:butt;stroke-linejoin:miter;stroke-opacity:1"
       d="m 337.12142,996.895 c 1.84032,0.13864 0.74501,0.69015 1.08424,1.75343 0.16557,0.51897 1.94117,0.73808 2.11803,1.29237 0.29835,0.9352 -0.59757,1.417 -0.11677,2.9238 0.16391,0.514 -0.50917,0.2937 -0.55748,0.3091 -0.23813,0.076 -0.24834,0.8665 -0.48651,0.9425 -0.2779,0.089 -0.59374,0.058 -0.87163,0.1469 -0.0202,0.01 -1.26808,2.2415 -2.08792,2.503 -0.38547,0.123 -2.18979,-1.3293 -2.7464,-1.6166 -0.30376,-0.1568 -1.63518,-0.6015 -1.72788,-0.892 -0.0526,-0.1651 0.30102,-0.7015 0.24838,-0.8665 -0.16044,-0.5028 -1.09066,-1.2564 -1.07916,-2.1487 0.0151,-1.1729 0.21658,-2.19981 -0.11624,-3.24314 -0.22042,-0.69066 1.41203,0.86162 1.80894,0.73498 0.19011,-0.0607 0.23804,-0.66319 0.40546,-0.78541 0.17261,-0.12596 2.87784,0.50768 4.12494,-1.05373 z"
       id="path4098-9"
       inkscape:connector-curvature="0" />
    <path
       inkscape:connector-curvature="0"
       style="fill:#4d4d4d;fill-opacity:1;fill-rule:nonzero;stroke:#000000;stroke-width:0.99999994;stroke-linejoin:miter;stroke-miterlimit:4;stroke-opacity:1;stroke-dashoffset:0"
       d="m 370.25,989.76843 c -0.38192,0.38192 0.37983,1.90143 0.15625,2.125 -0.0884,0.0884 -0.44286,-0.0884 -0.53125,0 -0.17677,0.17678 -0.16697,0.54197 -0.34375,0.71875 -0.25821,0.25821 -3.71875,-0.10523 -3.71875,1.9375 0,1.17037 -1.24519,2.4952 -1.75,3 -0.79634,0.79634 1.36952,1.66721 1.21875,1.96875 -0.0909,0.18175 -0.98196,0.82567 -1.21875,1.06247 -0.41926,0.4193 -2.02221,1.9869 -1.96875,2.0938 0.51178,1.0235 3.52073,0.3332 3.90625,0.7187 0.2805,0.2805 0.18935,1.5322 0.6875,1.7813 0.57618,0.2881 2.35834,0 2.5,0 0.11072,0 0.8203,0.7422 1.21875,0.3437 0.33918,-0.3391 0.86143,-0.6739 1.25,-1.0625 0.0982,-0.098 0.27211,-0.1253 0.46875,-0.125 l 0,-2.1562 -0.59375,-2.71877 0.59375,-2.71875 0,-6.03125 c -0.96196,-0.56456 -1.77651,-1.03599 -1.875,-0.9375 z"
       id="rect2990-1-1-1-6-7-8" />
    <path
       style="fill:#4d4d4d;fill-opacity:1;fill-rule:nonzero;stroke:#000000;stroke-width:0.99999994;stroke-linejoin:miter;stroke-miterlimit:4;stroke-opacity:1;stroke-dashoffset:0"
       d="m 338.75,1038.5809 0.0625,0 0,0.3438 c 0,1.5368 0.81975,2.75 1.84375,2.75 l 0.0937,0 c -0.006,0.029 0.006,0.064 0,0.094 0.43907,-0.2036 0.87544,-0.5312 1.03125,-0.5312 0.42268,0 0.62814,-1.0032 0.875,-1.25 0.84628,-0.8463 2.69485,-1.4449 3.1875,-1.9375 0.34179,-0.3418 0.75637,-1.1001 1.0625,-1.4063 0.0884,-0.088 0.44285,0.088 0.53125,0 0.34499,-0.345 -0.45765,-0.8326 -0.53125,-0.9062 -0.0408,-0.041 0.13935,-0.7138 -0.21025,-1.0634 -0.2357,-0.2358 -0.61654,-0.4509 -0.85225,-0.6866 -0.125,-0.125 0.9375,-1.0537 0.9375,-1.25 0,-0.4975 -0.99071,-0.6436 -0.78125,-1.0625 0.2153,-0.4306 1.78125,-1.367 1.96875,-2.625 0.0122,-0.082 -1.0661,-0.2465 -2.0625,0 -0.18925,0.1892 -0.55043,-0.8438 -0.84375,-0.8438 -1.54555,0 -1.24462,0.6001 -2.77903,0.6001 -1.08787,0 -0.24892,-1.7994 -0.35945,-2.396 -1.04179,-0.07 -2.74406,1.3299 -3.21377,0.8602 -0.17679,-0.7951 -0.89958,-2.2401 -0.98798,-2.3285 -0.26516,-0.2652 -2.20488,1.6897 -2.47005,1.4245 -0.0645,-0.064 -1.37202,-0.9598 -1.81499,-1.1496 -0.44296,-0.1899 -0.24231,1.1655 -1.44466,1.9783 -0.0182,1.7137 5.72554,3.2611 6.75748,11.3861 z"
       id="rect2990-1-1-6-6"
       inkscape:connector-curvature="0"
       sodipodi:nodetypes="ccssccssssccscscscssccccsccc" />
    <path
       style="fill:none;stroke:#000000;stroke-width:1px;stroke-linecap:butt;stroke-linejoin:miter;stroke-opacity:1"
       d="m 338.99104,1038.6122 22.10939,0"
       id="path2985-7-1-5"
       inkscape:connector-curvature="0"
       sodipodi:nodetypes="cc" />
    <path
       style="fill:none;stroke:#000000;stroke-width:1px;stroke-linecap:butt;stroke-linejoin:miter;stroke-opacity:1"
       d="m 340.76169,1041.664 18.58894,0"
       id="path2985-1-4-8-0"
       inkscape:connector-curvature="0"
       sodipodi:nodetypes="cc" />
    <path
       sodipodi:type="arc"
       style="fill:#808080;fill-opacity:1;fill-rule:nonzero;stroke:#000000"
       id="path3005-0-9-2"
       sodipodi:cx="-22.097088"
       sodipodi:cy="61.462681"
       sodipodi:rx="1.9445436"
       sodipodi:ry="1.9445436"
       d="m -20.152544,61.462681 c 0,1.073942 -0.870602,1.944543 -1.944544,1.944543 -1.073942,0 -1.944543,-0.870601 -1.944543,-1.944543 0,-1.073942 0.870601,-1.944544 1.944543,-1.944544 1.073942,0 1.944544,0.870602 1.944544,1.944544 z"
       transform="translate(372.12489,921.20417)" />
    <path
       style="fill:none;stroke:#000000;stroke-width:1px;stroke-linecap:butt;stroke-linejoin:miter;stroke-opacity:1"
       d="m 333.00179,979.08824 c 2.46014,-0.12028 5.70549,0.41573 8.59343,0.35711 2.88795,-0.0586 5.4185,-0.71185 8.44905,-0.71063 3.03055,10e-4 6.0611,-0.67521 8.94905,-0.61601 2.88795,0.0592 5.27975,0.85411 7.73989,0.96951"
       id="path3013-9-2-8"
       inkscape:connector-curvature="0"
       sodipodi:nodetypes="csssc" />
    <path
       transform="matrix(0.86363636,0,0,1,383.37682,921.20417)"
       style="fill:#808080;fill-opacity:1;fill-rule:nonzero;stroke:#000000;stroke-width:1.07605517"
       d="m -20.152544,61.462681 c 0,1.073942 -0.870602,1.944543 -1.944544,1.944543 -1.073942,0 -1.432821,-1.047378 -1.432821,-2.12132 0,-1.073942 -0.255187,-2.12132 0.818755,-2.12132 1.073942,0 2.55861,1.224155 2.55861,2.298097 z"
       id="path3005-7-48-7-6"
       inkscape:connector-curvature="0"
       sodipodi:nodetypes="sssss" />
    <path
       style="fill:#808080;fill-opacity:1;fill-rule:nonzero;stroke:#000000;stroke-width:1"
       d="m 337.09735,983.04185 c 0,1.07394 0.12312,1.56954 -0.80437,1.56954 -0.9275,0 -1.67938,-0.8706 -1.67938,-1.94454 0,-1.07394 0.87688,-1.44454 1.80438,-1.44454 0.92749,0 0.67937,0.7456 0.67937,1.81954 z"
       id="path3005-7-4-8-9-0"
       inkscape:connector-curvature="0"
       sodipodi:nodetypes="sssss" />
    <path
       style="fill:none;stroke:#000000;stroke-width:1px;stroke-linecap:butt;stroke-linejoin:miter;stroke-opacity:1"
       d="m 333.05724,986.15931 c 1.46577,0.0664 3.55655,0.49757 5.02232,0.54425 1.46578,0.0467 2.55655,-0.54115 4.02232,-0.51275 1.46578,0.0284 2.68155,0.29801 4.14732,0.30956 1.46578,0.0116 2.93155,0.015 4.39732,0.0112 1.46578,-0.004 2.93155,-0.015 4.39733,-0.0328 1.46577,-0.0178 2.93154,-0.0422 4.39732,-0.0725 1.46577,-0.0303 2.93154,-0.0665 4.39732,-0.10792 1.46577,-0.0414 2.13605,-0.17639 3.60182,-0.22738"
       id="path3051-2-5-2"
       inkscape:connector-curvature="0"
       sodipodi:nodetypes="csssssssc" />
    <path
       style="fill:none;stroke:#000000;stroke-width:1px;stroke-linecap:butt;stroke-linejoin:miter;stroke-opacity:1"
       d="m 349.76264,1042.6395 0,3.2703"
       id="path3071-45-4-4"
       inkscape:connector-curvature="0" />
    <path
       style="fill:none;stroke:#000000;stroke-width:1px;stroke-linecap:butt;stroke-linejoin:miter;stroke-opacity:1"
       d="m 355.76264,1042.6395 0,3.2703"
       id="path3071-9-5-3-8"
       inkscape:connector-curvature="0" />
    <path
       style="fill:none;stroke:#000000;stroke-width:1px;stroke-linecap:butt;stroke-linejoin:miter;stroke-opacity:1"
       d="m 343.76264,1042.6395 0,3.2703"
       id="path3071-4-1-1-6"
       inkscape:connector-curvature="0" />
    <path
       style="fill:none;stroke:#000000;stroke-width:1px;stroke-linecap:butt;stroke-linejoin:miter;stroke-opacity:1"
       d="m 333.25402,1012.5314 c -0.0325,1.5611 -0.45997,1.9365 -0.51077,3.9077 -0.0254,0.9855 0.78931,2.4919 0.90006,4.4368 0.11075,1.945 -0.30569,3.7981 -0.31853,4.7702"
       id="path3098-7-2-5"
       inkscape:connector-curvature="0"
       sodipodi:nodetypes="cssc" />
    <path
       style="fill:#4d4d4d;stroke:#000000;stroke-width:1px;stroke-linecap:butt;stroke-linejoin:miter;stroke-opacity:1"
       d="m 357.2657,1016.4765 c 1.54933,-0.4845 1.30042,-2.0075 2.12133,-2.8284 0.25149,-0.2515 0.72243,0.6264 0.88388,0.7071 0.60094,0.3005 0.60279,0.1768 1.41421,0.1768 0.35053,0 1.31126,-0.4565 1.41422,-0.3536 0.2357,0.2357 0.29462,0.6482 0.53033,0.8839 0.30503,0.305 0.98433,0.2772 1.23743,0.5303 0.15668,0.1567 0.49709,2.9387 0.70711,3.3588 0.20568,0.4114 2.14822,0.734 2.47487,1.0606 0.70057,0.7006 -1.20786,1.3551 -1.41421,1.7678 -0.0714,0.1427 -0.9303,2.6052 -0.53033,3.0052 0.0512,0.051 0.7213,0.5162 0.35355,0.8839 -0.27897,0.279 -1.41583,0.8855 -1.59099,1.0607 -0.52156,0.5215 -0.67908,1.0326 -1.06066,1.4142 -0.30245,0.3024 -1.18532,0.3014 -1.41421,0.5303 -0.0833,0.083 0.11785,0.3536 0,0.3536 -0.49678,0 -1.18698,-2.1214 -1.23744,-2.1214 -1.79104,0 -4.89828,0.5818 -6.01041,-0.5303 -0.4773,-0.4773 0.40476,-2.6004 -0.53033,-3.5355 -0.0286,-0.029 -0.51961,-0.1554 -0.53033,-0.1768 -0.097,-0.1941 -0.20595,-0.9131 -0.35355,-1.0607 -0.0358,-0.036 -0.43637,-0.4475 -0.35355,-0.5303 0.17919,-0.1792 2.34157,-1.0172 1.41421,-1.9445 -0.11785,-0.1179 -0.41248,-0.059 -0.53033,-0.1768 -0.14731,-0.1473 0.14732,-0.7366 0,-0.8839 -0.0735,-0.073 -0.77197,-0.9958 -0.53033,-1.2374 0.24155,-0.2416 2.71492,-0.025 3.53553,-0.3536 z"
       id="path4220"
       inkscape:connector-curvature="0" />
    <path
       style="fill:none;stroke:#000000;stroke-width:1px;stroke-linecap:butt;stroke-linejoin:miter;stroke-opacity:1"
       d="m 367.34667,1012.0497 c -0.005,1.8535 1.06172,2.4867 1.06398,4.6625 0.002,2.1759 0.12743,2.8944 0.11397,4.9187 -0.0135,2.0243 -0.85306,3.8543 -0.90536,5.2531 -0.0523,1.3988 0.68272,3.3038 0.56849,3.6032"
       id="path3118-1-3-0"
       inkscape:connector-curvature="0"
       sodipodi:nodetypes="csssc" />
    <path
       style="fill:none;stroke:#000000;stroke-width:1px;stroke-linecap:butt;stroke-linejoin:miter;stroke-opacity:1"
       d="m 341.25,964.36218 17.625,0"
       id="path3120-1-3-9"
       inkscape:connector-curvature="0" />
    <path
       style="fill:none;stroke:#000000;stroke-width:1px;stroke-linecap:butt;stroke-linejoin:miter;stroke-opacity:1"
       d="m 332.90459,1007.6122 c 0,-3.5162 1.26789,-6.1215 1.28576,-8.63273 -0.282,-3.22169 -1.89886,-3.93546 -1.28625,-6.72363 -0.0538,-0.90252 1.7315,-2.21978 -0.0369,-3.89366"
       id="path3122-5-4-0"
       inkscape:connector-curvature="0"
       sodipodi:nodetypes="cccc" />
    <path
       style="fill:none;stroke:#000000;stroke-width:1px;stroke-linecap:butt;stroke-linejoin:miter;stroke-opacity:1"
       d="m 367.75,1006.7904 c 0.87979,-1.5532 0.49074,-2.8179 0.4375,-4.5266 l -0.8125,-3.02661 0.8125,-3.0266 c -0.13693,-2.83982 0.13548,-5.149 -0.75,-7.83911"
       id="path3124-2-1-0"
       inkscape:connector-curvature="0"
       sodipodi:nodetypes="ccccc" />
    <path
       style="fill:none;stroke:#000000;stroke-width:1px;stroke-linecap:butt;stroke-linejoin:miter;stroke-opacity:1"
       d="m 337.83021,1009.2287 3.35876,0.4419 3.0052,-0.4419 3.18198,0 3.18198,0 3.18199,0 3.0052,-0.4419 3.09359,0.1767 3.44715,0.2652"
       id="path3128-7-1-6"
       inkscape:connector-curvature="0"
       sodipodi:nodetypes="ccccccccc" />
    <path
       style="fill:none;stroke:#000000;stroke-width:1px;stroke-linecap:butt;stroke-linejoin:miter;stroke-opacity:1"
       d="m 336.625,1007.6122 1.6875,1.6875 -1.625,1.625"
       id="path3130-6-3-1"
       inkscape:connector-curvature="0" />
    <path
       style="fill:none;stroke:#000000;stroke-width:1px;stroke-linecap:butt;stroke-linejoin:miter;stroke-opacity:1"
       d="m 364.3125,1007.6122 -1.6875,1.6875 1.625,1.625"
       id="path3130-8-1-8-3"
       inkscape:connector-curvature="0" />
    <path
       sodipodi:type="arc"
       style="fill:#cccccc;fill-opacity:1;fill-rule:nonzero;stroke:#000000;stroke-width:1;stroke-linejoin:miter;stroke-miterlimit:4;stroke-opacity:1;stroke-dasharray:none;stroke-dashoffset:0"
       id="path3234-4-7-8"
       sodipodi:cx="50.734913"
       sodipodi:cy="45.022449"
       sodipodi:rx="8.0088596"
       sodipodi:ry="4.9497476"
       d="m 58.743773,45.022449 c 0,2.733671 -3.585689,4.949748 -8.00886,4.949748 -4.423171,0 -8.00886,-2.216077 -8.00886,-4.949748 0,-2.73367 3.585689,-4.949747 8.00886,-4.949747 4.423171,0 8.00886,2.216077 8.00886,4.949747 z"
       transform="translate(299.29289,953.12474)" />
    <path
       style="fill:none;stroke:#000000;stroke-width:1px;stroke-linecap:butt;stroke-linejoin:miter;stroke-opacity:1"
       d="m 350,966.36218 0,10.375"
       id="path3240-2-4-9"
       inkscape:connector-curvature="0" />
    <path
       style="fill:none;stroke:#000000;stroke-width:1px;stroke-linecap:butt;stroke-linejoin:miter;stroke-opacity:1"
       d="m 356,966.36218 c 0.60386,3.3746 0.50957,5.81832 2,10.375"
       id="path3240-1-3-2-3"
       inkscape:connector-curvature="0"
       sodipodi:nodetypes="cc" />
    <path
       style="fill:none;stroke:#000000;stroke-width:1px;stroke-linecap:butt;stroke-linejoin:miter;stroke-opacity:1"
       d="m 344,966.36218 c -0.15096,0.84365 -0.2583,1.62912 -0.35766,2.40397 -0.0994,0.77485 -0.19077,1.53908 -0.30988,2.34025 -0.1191,0.80117 -0.0159,2.26428 -0.2261,3.18689 -0.21019,0.92261 -0.73375,1.30472 -1.10636,2.44389"
       id="path3240-1-1-2-7-4"
       inkscape:connector-curvature="0"
       sodipodi:nodetypes="csssc" />
    <path
       style="fill:none;stroke:#000000;stroke-width:0.99999994px;stroke-linecap:butt;stroke-linejoin:miter;stroke-opacity:1"
       d="m 337.91861,1032.2792 c 2.26862,0.2366 3.59251,0.8555 5.87154,0.9807 2.27902,0.1255 4.18734,0.8183 6.47313,0.8241 2.28579,0.01 4.57406,-0.051 6.86298,-0.1731 2.28892,-0.1227 4.57849,-0.3117 6.8669,-0.5714"
       id="path3280-2-7-4"
       inkscape:connector-curvature="0"
       sodipodi:nodetypes="csssc" />
    <path
       style="fill:none;stroke:#000000;stroke-width:1px;stroke-linecap:butt;stroke-linejoin:miter;stroke-opacity:1"
       d="m 346.25,41.5 c 0.48488,1.153939 1.20922,1.334221 2,2.125 0.125,0.125 0.125,0.375 0.25,0.5 0.1875,0.1875 0.9375,-0.1875 1.125,0 0.27996,0.279961 0.38106,0.756064 0.625,1"
       id="path4223"
       inkscape:connector-curvature="0"
       transform="translate(0,952.36218)" />
    <path
       style="fill:#4d4d4d;fill-opacity:1;fill-rule:nonzero;stroke:#000000;stroke-width:0.99999994;stroke-linejoin:miter;stroke-miterlimit:4;stroke-opacity:1;stroke-dashoffset:0"
       d="m 469.46875,38.03125 c -0.58712,-0.844234 -1.4842,-0.438277 -2.33159,-0.567825 -0.90989,0.620451 -0.39509,1.017896 -2.65847,1.281638 0.0358,1.152484 0.45881,2.645155 0.45881,3.317437 0,1.17037 -1.74519,1.8702 -2.25,2.375 -0.79634,0.79634 2.74452,2.41721 2.59375,2.71875 -0.0909,0.18175 -0.98196,0.8257 -1.21875,1.0625 -0.41926,0.4193 -2.02221,1.98685 -1.96875,2.09375 0.51178,1.0235 3.52073,0.33325 3.90625,0.71875 0.2805,0.2805 0.18935,1.53215 0.6875,1.78125 0.57618,0.2881 2.35834,0 2.5,0 0.11072,0 0.8203,0.74225 1.21875,0.34375 0.19553,-0.195481 0.43098,-0.389996 0.6875,-0.59375 -0.0468,-0.399241 -0.0848,-0.798254 -0.15625,-1.21875 l -2.78125,-2.3125 0.40625,-3.0625 -0.65625,-3.375 c 0.36942,-2.025547 0.70823,-4.153133 1.5625,-4.5625 z"
       transform="translate(0,952.36218)"
       id="rect2990-1-1-1-6-8-5-9-3-6-0"
       inkscape:connector-curvature="0"
       sodipodi:nodetypes="cccsscccccsccccccc" />
    <path
       style="fill:#4d4d4d;fill-opacity:1;fill-rule:nonzero;stroke:#000000;stroke-width:0.99999994;stroke-linejoin:miter;stroke-miterlimit:4;stroke-opacity:1;stroke-dashoffset:0"
       d="m 462.03125,970.79968 c -0.0961,0.12099 0.33932,0.25987 0.0433,0.4375 l -0.57455,1.75 c -0.30345,0.9243 -0.036,2.58903 0.5,3.125 0.4146,0.4146 1.39279,0.0178 1.75,0.375 0.23899,0.23899 1.41505,1.09293 2.3125,0.96875 -1.64807,-2.41612 -2.99795,-4.4535 -4.03125,-6.65625 z"
       id="rect2990-1-1-1-6-8-5-9-3-66"
       inkscape:connector-curvature="0"
       sodipodi:nodetypes="ccscscc" />
    <path
       inkscape:connector-curvature="0"
       style="fill:#4d4d4d;fill-opacity:1;fill-rule:nonzero;stroke:#000000;stroke-width:0.99999994;stroke-linejoin:miter;stroke-miterlimit:4;stroke-opacity:1;stroke-dashoffset:0"
       d="m 440.21875,969.04968 c -0.23584,-0.004 -0.66632,0.0795 -1.125,0.1875 -0.20436,0.88535 -0.3835,1.76008 -0.78125,2.59375 -0.51485,1.07913 -1.4075,2.15583 -2.25,3.34375 -0.17496,0.24669 -0.40122,0.52413 -0.59375,0.78125 0.19553,0.16652 0.39939,0.34032 0.65625,0.46875 0.34238,0.17119 0.51581,0.49228 0.90625,0.6875 0.3308,0.1654 0.67137,-0.23387 0.78125,-0.34375 0.14732,-0.14732 0.72768,0.14731 0.875,0 0.0737,-0.0737 0.02,-0.27005 0.0937,-0.34375 0.11786,-0.11785 0.6009,0.11785 0.71875,0 0.45973,-0.45973 0.84202,-0.93577 1.3125,-1.40625 0.12318,-0.12318 0.7405,-0.303 0.8125,-0.375 0.0269,-0.0269 -1.08776,-1.72474 -0.96875,-1.84375 0.25167,-0.25167 1.125,-0.25895 1.125,-0.34375 0,-0.23067 -0.56855,-0.69355 -0.6875,-0.8125 -0.19151,-0.19151 -0.18349,-0.58975 -0.375,-0.78125 -0.11748,-0.11748 -0.48903,-0.17653 -0.59375,-0.28125 -0.34028,-0.34027 0.59633,-1.15368 0.25,-1.5 -0.0258,-0.0258 -0.0757,-0.0297 -0.15625,-0.0312 z"
       id="rect2990-1-1-1-6-8-5-1-1" />
    <path
       style="fill:#4d4d4d;stroke:#000000;stroke-width:1px;stroke-linecap:butt;stroke-linejoin:miter;stroke-opacity:1"
       d="m 437.12142,996.895 c 1.84032,0.13864 0.74501,0.69015 1.08424,1.75343 0.16557,0.51897 1.94117,0.73808 2.11803,1.29237 0.29835,0.9352 -0.59757,1.417 -0.11677,2.9238 0.16391,0.514 -0.50917,0.2937 -0.55748,0.3091 -0.23813,0.076 -0.24834,0.8665 -0.48651,0.9425 -0.2779,0.089 -0.59374,0.058 -0.87163,0.1469 -0.0202,0.01 -1.26808,2.2415 -2.08792,2.503 -0.38547,0.123 -2.18979,-1.3293 -2.7464,-1.6166 -0.30376,-0.1568 -1.63518,-0.6015 -1.72788,-0.892 -0.0526,-0.1651 0.30102,-0.7015 0.24838,-0.8665 -0.16044,-0.5028 -1.09066,-1.2564 -1.07916,-2.1487 0.0151,-1.1729 0.21658,-2.19981 -0.11624,-3.24314 -0.22042,-0.69066 1.41203,0.86162 1.80894,0.73498 0.19011,-0.0607 0.23804,-0.66319 0.40546,-0.78541 0.17261,-0.12596 2.87784,0.50768 4.12494,-1.05373 z"
       id="path4098-9-8"
       inkscape:connector-curvature="0" />
    <path
       style="fill:#4d4d4d;fill-opacity:1;fill-rule:nonzero;stroke:#000000;stroke-width:0.99999994;stroke-linejoin:miter;stroke-miterlimit:4;stroke-opacity:1;stroke-dashoffset:0"
       d="m 438.75,1038.5809 0.0625,0 0,0.3438 c 0,1.5368 0.81975,2.75 1.84375,2.75 l 0.0937,0 c -0.006,0.029 0.006,0.064 0,0.094 0.43907,-0.2036 0.87544,-0.5312 1.03125,-0.5312 0.42268,0 0.62814,-1.0032 0.875,-1.25 0.84628,-0.8463 2.69485,-1.4449 3.1875,-1.9375 0.34179,-0.3418 0.75637,-1.1001 1.0625,-1.4063 0.0884,-0.088 0.44285,0.088 0.53125,0 0.34499,-0.345 -0.45765,-0.8326 -0.53125,-0.9062 -0.0408,-0.041 0.13935,-0.7138 -0.21025,-1.0634 -0.2357,-0.2358 -0.61654,-0.4509 -0.85225,-0.6866 -0.125,-0.125 0.9375,-1.0537 0.9375,-1.25 0,-0.4975 -0.99071,-0.6436 -0.78125,-1.0625 0.2153,-0.4306 1.78125,-1.367 1.96875,-2.625 0.0122,-0.082 -1.0661,-0.2465 -2.0625,0 -0.18925,0.1892 -0.55043,-0.8438 -0.84375,-0.8438 -1.54555,0 -1.24462,0.6001 -2.77903,0.6001 -1.08787,0 -0.24892,-1.7994 -0.35945,-2.396 -1.04179,-0.07 -2.74406,1.3299 -3.21377,0.8602 -0.17679,-0.7951 -0.89958,-2.2401 -0.98798,-2.3285 -0.26516,-0.2652 -2.20488,1.6897 -2.47005,1.4245 -0.0645,-0.064 -1.37202,-0.9598 -1.81499,-1.1496 -0.44296,-0.1899 -0.24231,1.1655 -1.44466,1.9783 -0.0182,1.7137 5.72554,3.2611 6.75748,11.3861 z"
       id="rect2990-1-1-6-6-9"
       inkscape:connector-curvature="0"
       sodipodi:nodetypes="ccssccssssccscscscssccccsccc" />
    <path
       style="fill:none;stroke:#000000;stroke-width:1px;stroke-linecap:butt;stroke-linejoin:miter;stroke-opacity:1"
       d="m 438.99104,1038.6122 22.10939,0"
       id="path2985-7-1-5-6"
       inkscape:connector-curvature="0"
       sodipodi:nodetypes="cc" />
    <path
       style="fill:none;stroke:#000000;stroke-width:1px;stroke-linecap:butt;stroke-linejoin:miter;stroke-opacity:1"
       d="m 440.76169,1041.664 18.58894,0"
       id="path2985-1-4-8-0-3"
       inkscape:connector-curvature="0"
       sodipodi:nodetypes="cc" />
    <path
       sodipodi:type="arc"
       style="fill:#808080;fill-opacity:1;fill-rule:nonzero;stroke:#000000"
       id="path3005-0-9-2-7"
       sodipodi:cx="-22.097088"
       sodipodi:cy="61.462681"
       sodipodi:rx="1.9445436"
       sodipodi:ry="1.9445436"
       d="m -20.152544,61.462681 c 0,1.073942 -0.870602,1.944543 -1.944544,1.944543 -1.073942,0 -1.944543,-0.870601 -1.944543,-1.944543 0,-1.073942 0.870601,-1.944544 1.944543,-1.944544 1.073942,0 1.944544,0.870602 1.944544,1.944544 z"
       transform="translate(472.12489,921.20417)" />
    <path
       style="fill:none;stroke:#000000;stroke-width:1px;stroke-linecap:butt;stroke-linejoin:miter;stroke-opacity:1"
       d="m 433.00179,979.08824 c 2.46014,-0.12028 5.70549,0.41573 8.59343,0.35711 2.88795,-0.0586 5.4185,-0.71185 8.44905,-0.71063 3.03055,10e-4 6.0611,-0.67521 8.94905,-0.61601 2.88795,0.0592 5.27975,0.85411 7.73989,0.96951"
       id="path3013-9-2-8-8"
       inkscape:connector-curvature="0"
       sodipodi:nodetypes="csssc" />
    <path
       style="fill:#808080;fill-opacity:1;fill-rule:nonzero;stroke:#000000;stroke-width:1"
       d="m 465.97235,982.66685 c 0,1.07394 -0.12688,1.69454 -1.05438,1.69454 -0.92749,0 -1.86243,-0.79737 -1.86243,-1.87132 0,-1.07394 -0.22039,-2.12132 0.70711,-2.12132 0.92749,0 2.2097,1.22416 2.2097,2.2981 z"
       id="path3005-7-48-7-6-8"
       inkscape:connector-curvature="0"
       sodipodi:nodetypes="sssss" />
    <path
       style="fill:#808080;fill-opacity:1;fill-rule:nonzero;stroke:#000000;stroke-width:1"
       d="m 437.09735,983.04185 c 0,1.07394 0.12312,1.56954 -0.80437,1.56954 -0.9275,0 -1.67938,-0.8706 -1.67938,-1.94454 0,-1.07394 0.87688,-1.44454 1.80438,-1.44454 0.92749,0 0.67937,0.7456 0.67937,1.81954 z"
       id="path3005-7-4-8-9-0-2"
       inkscape:connector-curvature="0"
       sodipodi:nodetypes="sssss" />
    <path
       style="fill:none;stroke:#000000;stroke-width:1px;stroke-linecap:butt;stroke-linejoin:miter;stroke-opacity:1"
       d="m 433.05724,986.15931 c 1.46577,0.0664 3.55655,0.49757 5.02232,0.54425 1.46578,0.0467 2.55655,-0.54115 4.02232,-0.51275 1.46578,0.0284 2.68155,0.29801 4.14732,0.30956 1.46578,0.0116 2.93155,0.015 4.39732,0.0112 1.46578,-0.004 2.93155,0.61 4.39733,0.5922 1.46577,-0.0178 3.05654,-1.2922 4.52232,-1.3225 1.46577,-0.0303 2.80654,0.5585 4.27232,0.51708 1.46577,-0.0414 2.13605,-0.17639 3.60182,-0.22738"
       id="path3051-2-5-2-9"
       inkscape:connector-curvature="0"
       sodipodi:nodetypes="csssssssc" />
    <path
       style="fill:none;stroke:#000000;stroke-width:1px;stroke-linecap:butt;stroke-linejoin:miter;stroke-opacity:1"
       d="m 449.76264,1042.6395 0,3.2703"
       id="path3071-45-4-4-1"
       inkscape:connector-curvature="0" />
    <path
       style="fill:none;stroke:#000000;stroke-width:1px;stroke-linecap:butt;stroke-linejoin:miter;stroke-opacity:1"
       d="m 455.76264,1042.6395 0,3.2703"
       id="path3071-9-5-3-8-3"
       inkscape:connector-curvature="0" />
    <path
       style="fill:none;stroke:#000000;stroke-width:1px;stroke-linecap:butt;stroke-linejoin:miter;stroke-opacity:1"
       d="m 443.76264,1042.6395 0,3.2703"
       id="path3071-4-1-1-6-5"
       inkscape:connector-curvature="0" />
    <path
       style="fill:none;stroke:#000000;stroke-width:1px;stroke-linecap:butt;stroke-linejoin:miter;stroke-opacity:1"
       d="m 433.25402,1012.5314 c -0.0325,1.5611 -0.45997,1.9365 -0.51077,3.9077 -0.0254,0.9855 0.78931,2.4919 0.90006,4.4368 0.11075,1.945 -0.30569,3.7981 -0.31853,4.7702"
       id="path3098-7-2-5-9"
       inkscape:connector-curvature="0"
       sodipodi:nodetypes="cssc" />
    <path
       style="fill:#4d4d4d;stroke:#000000;stroke-width:1px;stroke-linecap:butt;stroke-linejoin:miter;stroke-opacity:1"
       d="m 457.2657,1016.4765 c 1.54933,-0.4845 1.30042,-2.0075 2.12133,-2.8284 0.25149,-0.2515 0.72243,0.6264 0.88388,0.7071 0.60094,0.3005 0.60279,0.1768 1.41421,0.1768 0.35053,0 1.31126,-0.4565 1.41422,-0.3536 0.2357,0.2357 0.29462,0.6482 0.53033,0.8839 0.30503,0.305 0.98433,0.2772 1.23743,0.5303 0.15668,0.1567 0.49709,2.9387 0.70711,3.3588 0.20568,0.4114 2.14822,0.734 2.47487,1.0606 0.70057,0.7006 -1.20786,1.3551 -1.41421,1.7678 -0.0714,0.1427 -0.9303,2.6052 -0.53033,3.0052 0.0512,0.051 0.7213,0.5162 0.35355,0.8839 -0.27897,0.279 -1.41583,0.8855 -1.59099,1.0607 -0.52156,0.5215 -0.67908,1.0326 -1.06066,1.4142 -0.30245,0.3024 -1.18532,0.3014 -1.41421,0.5303 -0.0833,0.083 0.11785,0.3536 0,0.3536 -0.49678,0 -1.18698,-2.1214 -1.23744,-2.1214 -1.79104,0 -4.89828,0.5818 -6.01041,-0.5303 -0.4773,-0.4773 0.40476,-2.6004 -0.53033,-3.5355 -0.0286,-0.029 -0.51961,-0.1554 -0.53033,-0.1768 -0.097,-0.1941 -0.20595,-0.9131 -0.35355,-1.0607 -0.0358,-0.036 -0.43637,-0.4475 -0.35355,-0.5303 0.17919,-0.1792 2.34157,-1.0172 1.41421,-1.9445 -0.11785,-0.1179 -0.41248,-0.059 -0.53033,-0.1768 -0.14731,-0.1473 0.14732,-0.7366 0,-0.8839 -0.0735,-0.073 -0.77197,-0.9958 -0.53033,-1.2374 0.24155,-0.2416 2.71492,-0.025 3.53553,-0.3536 z"
       id="path4220-8"
       inkscape:connector-curvature="0" />
    <path
       style="fill:none;stroke:#000000;stroke-width:1px;stroke-linecap:butt;stroke-linejoin:miter;stroke-opacity:1"
       d="m 466.46279,1012.6684 c -0.005,1.8535 1.06172,2.4867 1.06398,4.6625 0.002,2.1759 0.12743,2.8944 0.11397,4.9187 -0.0135,2.0243 -0.85306,3.8543 -0.90536,5.2531"
       id="path3118-1-3-0-4"
       inkscape:connector-curvature="0"
       sodipodi:nodetypes="cssc" />
    <path
       style="fill:none;stroke:#000000;stroke-width:1px;stroke-linecap:butt;stroke-linejoin:miter;stroke-opacity:1"
       d="m 441.25,964.36218 4.40625,0 4.40625,0 4.40625,-0.17678 4.0527,0.44195"
       id="path3120-1-3-9-0"
       inkscape:connector-curvature="0"
       sodipodi:nodetypes="ccccc" />
    <path
       style="fill:none;stroke:#000000;stroke-width:1px;stroke-linecap:butt;stroke-linejoin:miter;stroke-opacity:1"
       d="m 432.90459,1007.6122 c 0,-3.5162 1.26789,-6.1215 1.28576,-8.63273 -0.141,-1.61084 -0.0854,-2.94826 -0.44827,-3.87794 -0.36289,-0.92967 -1.14429,-1.45161 -0.83798,-2.84569 -0.0538,-0.90252 1.7315,-2.21978 -0.0369,-3.89366"
       id="path3122-5-4-0-7"
       inkscape:connector-curvature="0"
       sodipodi:nodetypes="ccscc" />
    <path
       style="fill:none;stroke:#000000;stroke-width:1px;stroke-linecap:butt;stroke-linejoin:miter;stroke-opacity:1"
       d="m 437.83021,1009.2287 3.35876,0.4419 3.0052,-0.4419 3.18198,0 3.18198,0.6187 3.18199,-0.6187 3.0052,-0.4419 3.09359,0.1767 3.44715,0.2652"
       id="path3128-7-1-6-3"
       inkscape:connector-curvature="0"
       sodipodi:nodetypes="ccccccccc" />
    <path
       style="fill:none;stroke:#000000;stroke-width:1px;stroke-linecap:butt;stroke-linejoin:miter;stroke-opacity:1"
       d="m 436.625,1007.6122 1.6875,1.6875 -1.625,1.625"
       id="path3130-6-3-1-6"
       inkscape:connector-curvature="0" />
    <path
       style="fill:none;stroke:#000000;stroke-width:1px;stroke-linecap:butt;stroke-linejoin:miter;stroke-opacity:1"
       d="m 463.69378,1007.2586 -1.06878,2.0411 1.35983,0.9179"
       id="path3130-8-1-8-3-1"
       inkscape:connector-curvature="0"
       sodipodi:nodetypes="ccc" />
    <path
       sodipodi:type="arc"
       style="fill:#4d4d4d;fill-opacity:1;fill-rule:nonzero;stroke:#000000;stroke-width:1;stroke-linejoin:miter;stroke-miterlimit:4;stroke-opacity:1;stroke-dasharray:none;stroke-dashoffset:0"
       id="path3234-4-7-8-5"
       sodipodi:cx="50.734913"
       sodipodi:cy="45.022449"
       sodipodi:rx="8.0088596"
       sodipodi:ry="4.9497476"
       d="m 58.743773,45.022449 c 0,2.733671 -3.585689,4.949748 -8.00886,4.949748 -4.423171,0 -8.00886,-2.216077 -8.00886,-4.949748 0,-2.73367 3.585689,-4.949747 8.00886,-4.949747 4.423171,0 8.00886,2.216077 8.00886,4.949747 z"
       transform="translate(399.29289,953.12474)" />
    <path
       style="fill:none;stroke:#000000;stroke-width:1px;stroke-linecap:butt;stroke-linejoin:miter;stroke-opacity:1"
       d="m 450.5,966.36218 -0.5,2.74556 0,7.62944"
       id="path3240-2-4-9-4"
       inkscape:connector-curvature="0"
       sodipodi:nodetypes="ccc" />
    <path
       style="fill:none;stroke:#000000;stroke-width:1px;stroke-linecap:butt;stroke-linejoin:miter;stroke-opacity:1"
       d="m 456,966.36218 c 0.15096,0.84365 -0.007,1.62912 0.0925,2.40397 0.0994,0.77485 0.45593,1.53908 0.57504,2.34025 0.1191,0.80117 0.26592,1.63928 0.4761,2.56189 0.21019,0.92261 0.48375,1.92972 0.85636,3.06889"
       id="path3240-1-3-2-3-2"
       inkscape:connector-curvature="0"
       sodipodi:nodetypes="csssc" />
    <path
       style="fill:none;stroke:#000000;stroke-width:1px;stroke-linecap:butt;stroke-linejoin:miter;stroke-opacity:1"
       d="m 444,966.36218 c -0.15096,0.84365 -0.2583,1.62912 -0.35766,2.40397 -0.0994,0.77485 -0.19077,1.53908 -0.30988,2.34025 -0.1191,0.80117 -0.0159,2.26428 -0.2261,3.18689 -0.21019,0.92261 -0.73375,1.30472 -1.10636,2.44389"
       id="path3240-1-1-2-7-4-0"
       inkscape:connector-curvature="0"
       sodipodi:nodetypes="csssc" />
    <path
       style="fill:none;stroke:#000000;stroke-width:0.99999994px;stroke-linecap:butt;stroke-linejoin:miter;stroke-opacity:1"
       d="m 437.91861,1032.2792 c 2.26862,0.2366 3.59251,0.8555 5.87154,0.9807 2.27902,0.1255 4.18734,0.8183 6.47313,0.8241 2.28579,0.01 4.57409,-0.05 6.86298,-0.1731 1.14446,-0.061 2.03908,-0.7643 3.18364,-0.8593 1.14456,-0.095 1.66405,-0.5394 2.80826,-0.6691"
       id="path3280-2-7-4-9"
       inkscape:connector-curvature="0"
       sodipodi:nodetypes="cssssc" />
    <path
       style="fill:#cccccc;fill-opacity:1;fill-rule:nonzero;stroke:#000000;stroke-width:1;stroke-linejoin:miter;stroke-miterlimit:4;stroke-opacity:1;stroke-dashoffset:0"
       d="m 457.97416,998.14719 c -1.2735,0.29047 -3.18441,-0.0295 -3.18441,-0.0295 l -1.45505,-2.65894 -2.24885,-0.5634 c 0,0 -0.57335,-1.05936 -0.9018,-1.51038 1.1058,0 1.97175,-0.049 2.92991,0.20148 0.95817,0.25047 1.82105,0.6129 2.54571,1.06077 0.72466,0.44786 1.3111,0.98115 1.71637,1.57333 0.40527,0.59218 0.59812,1.24325 0.59812,1.92667 z"
       id="path3234-4-7-8-5-3"
       inkscape:connector-curvature="0"
       sodipodi:nodetypes="cccccssscc" />
    <path
       transform="translate(399.29289,953.12474)"
       style="fill:#cccccc;fill-opacity:1;fill-rule:nonzero;stroke:#000000;stroke-width:1;stroke-linejoin:miter;stroke-miterlimit:4;stroke-opacity:1;stroke-dashoffset:0"
       d="m 46.505598,49.087394 c -0.438399,-0.06093 -0.980591,-0.280231 -1.517299,-0.618599 -0.536709,-0.338369 -1.067935,-0.795805 -1.484403,-1.333005 -0.416468,-0.5372 -0.718178,-1.154165 -0.795855,-1.81159 -0.07768,-0.657425 0.06868,-1.35531 0.548342,-2.054353 0.919137,0.246624 2.182524,1.134752 2.182524,1.134752 l 0.05715,1.761175 1.390241,1.580099 c 0,0 -0.160625,1.002999 -0.380698,1.341521 z"
       id="path3234-4-7-8-5-7"
       inkscape:connector-curvature="0"
       sodipodi:nodetypes="csssccccc" />
    <path
       style="fill:#999999;fill-opacity:1;fill-rule:nonzero;stroke:#000000;stroke-width:1;stroke-miterlimit:4;stroke-dasharray:none"
       d="m 567.5,1000.8622 c 0,-1.10802 -0.892,-2.00002 -2,-2.00002 l -0.9375,0 c -1.57606,-6.59682 -7.48284,-11.5 -14.5625,-11.5 -7.07966,0 -12.98644,4.90318 -14.5625,11.5 l -0.9375,0 c -1.108,0 -2,0.892 -2,2.00002 l 0,3 c 0,1.108 0.892,2 2,2 l 0.9375,0 c 1.57606,6.5968 7.48284,11.5 14.5625,11.5 7.07966,0 12.98644,-4.9032 14.5625,-11.5 l 0.9375,0 c 1.108,0 2,-0.892 2,-2 l 0,-3 z"
       id="path3137"
       inkscape:connector-curvature="0" />
    <path
       style="fill:#cccccc;fill-opacity:1;fill-rule:nonzero;stroke:#000000;stroke-width:0.99999994;stroke-miterlimit:4;stroke-dasharray:none"
       d="m 559.17044,990.52621 c -3.62223,-3.06023 -7.41336,-3.20603 -9.1075,-3.20603 -1.69415,0 -5.37961,0.14032 -8.80792,2.91978 3.49527,2.33328 13.36576,2.51905 17.91542,0.28625 z"
       id="path3137-7"
       inkscape:connector-curvature="0"
       sodipodi:nodetypes="czcc" />
    <path
       style="fill:#808080;fill-opacity:1;fill-rule:nonzero;stroke:#000000;stroke-width:0.99999994;stroke-linejoin:miter;stroke-miterlimit:4;stroke-opacity:1;stroke-dashoffset:0"
       d="m 543.5,1015.8622 c 4.33333,-1.0331 8.66667,-0.9678 13,0 l -2,4 c -3,0.755 -6,0.9087 -9,0 z"
       id="rect3990"
       inkscape:connector-curvature="0"
       sodipodi:nodetypes="ccccc" />
    <path
       style="fill:none;stroke:#000000;stroke-width:1px;stroke-linecap:butt;stroke-linejoin:miter;stroke-opacity:1"
       d="m 535.625,1005.8622 29.25,0"
       id="path4003"
       inkscape:connector-curvature="0" />
  </g>
</svg>
