<?xml version="1.0" encoding="UTF-8" standalone="no"?>
<!-- Created with Inkscape (http://www.inkscape.org/) -->

<svg
   xmlns:dc="http://purl.org/dc/elements/1.1/"
   xmlns:cc="http://creativecommons.org/ns#"
   xmlns:rdf="http://www.w3.org/1999/02/22-rdf-syntax-ns#"
   xmlns:svg="http://www.w3.org/2000/svg"
   xmlns="http://www.w3.org/2000/svg"
   xmlns:xlink="http://www.w3.org/1999/xlink"
   xmlns:sodipodi="http://sodipodi.sourceforge.net/DTD/sodipodi-0.dtd"
   xmlns:inkscape="http://www.inkscape.org/namespaces/inkscape"
   width="280"
   height="280"
   id="svg2"
   version="1.1"
   inkscape:version="0.48.5 r10040"
   sodipodi:docname="jupiter.svg"
   inkscape:export-filename="C:\Users\Nick\Desktop\HTML5 Games\Childhood\img\jupiter.png"
   inkscape:export-xdpi="90"
   inkscape:export-ydpi="90">
  <defs
     id="defs4">
    <linearGradient
       id="linearGradient3769">
      <stop
         style="stop-color:#aaaaaa;stop-opacity:0.06666667;"
         offset="0"
         id="stop3771" />
      <stop
         style="stop-color:#999999;stop-opacity:0.2;"
         offset="1"
         id="stop3773" />
    </linearGradient>
    <radialGradient
       inkscape:collect="always"
       xlink:href="#linearGradient3769"
       id="radialGradient3775"
       cx="-190"
       cy="-110"
       fx="-190"
       fy="-110"
       r="86"
       gradientUnits="userSpaceOnUse" />
  </defs>
  <sodipodi:namedview
     id="base"
     pagecolor="#ffffff"
     bordercolor="#666666"
     borderopacity="1.0"
     inkscape:pageopacity="0.0"
     inkscape:pageshadow="2"
     inkscape:zoom="1"
     inkscape:cx="91.84106"
     inkscape:cy="239.29495"
     inkscape:document-units="px"
     inkscape:current-layer="layer1"
     showgrid="false"
     inkscape:window-width="1920"
     inkscape:window-height="1018"
     inkscape:window-x="-8"
     inkscape:window-y="-8"
     inkscape:window-maximized="1" />
  <metadata
     id="metadata7">
    <rdf:RDF>
      <cc:Work
         rdf:about="">
        <dc:format>image/svg+xml</dc:format>
        <dc:type
           rdf:resource="http://purl.org/dc/dcmitype/StillImage" />
        <dc:title />
      </cc:Work>
    </rdf:RDF>
  </metadata>
  <g
     inkscape:label="Layer 1"
     inkscape:groupmode="layer"
     id="layer1"
     transform="translate(0,-772.36218)">
    <g
       id="g4088">
      <path
         id="path4067"
         d="m 78.90625,786.34375 c -26.882797,13.05904 -48.946676,34.4883 -62.84375,60.875 2.901822,0.15042 12.676183,-0.33809 13.6875,-0.84375 0.911463,-0.45573 2.547694,0.22616 3.5,-0.25 1.741461,-0.87073 3.645531,-0.63184 5.5,-1.25 1.111052,-0.37035 2.23998,-1.24749 3.25,-1.5 0.404226,-0.10105 0.854715,0.13176 1.25,0 3.025535,-1.00851 4.895917,-3.19796 7.5,-4.5 0.59123,-0.29561 0.79482,-1.0737 1.5,-1.25 3.286131,-0.82153 7.07458,-3.66229 10.25,-5.25 3.005228,-1.50261 6.0655,-2.7393 9,-4.5 3.014692,-1.80881 5.710852,-4.14057 8.5,-6 1.350732,-0.90049 2.292967,-3.02148 3.75,-3.75 1.630185,-0.81509 3.191527,-2.58114 4.75,-3.75 0.98912,-0.74184 1.583426,-2.13895 2.5,-2.75 0.353522,-0.23568 0.846416,-0.0964 1.25,-0.5 1.57188,-1.57188 2.61168,-3.36168 4,-4.75 0.902144,-0.90214 -2.481044,-2.46209 -2.75,-3 -0.438882,-0.87776 -2.41604,-2.13805 -3.25,-3.25 -1.003537,-1.33805 -1.672285,-2.99266 -2.75,-4.25 -1.643946,-1.91793 -3.413548,-3.88473 -5,-6 -0.619486,-0.82598 -1.644726,-1.19297 -2.25,-2 -0.409033,-0.54538 -0.867236,-1.05479 -1.34375,-1.53125 z"
         style="fill:#ff992a;fill-opacity:1;stroke:none"
         inkscape:connector-curvature="0" />
      <path
         id="path2985-1-7-4-0-4-8-8-4-5-5"
         d="m 126.3125,773.03125 c -19.04379,1.84796 -36.964162,7.48264 -53,16.1875 3.990004,3.45608 8.629466,7.06697 9.78125,8.21875 1.559477,1.55948 3.974382,2.17469 6,3.1875 0.390909,0.19545 2.644572,2.66793 3.1875,2.125 0.91287,-0.91287 2.187898,-1.45333 3.53125,-2.125 0.554367,-0.27719 0.752294,-1.43979 1.0625,-1.75 0.295772,-0.29577 1.447015,-0.38451 1.78125,-0.71875 0.53033,-0.53033 0.50092,-1.59467 1.03125,-2.125 0.53911,-0.53911 2.42713,-0.64588 3.1875,-1.40625 l 3.53125,-3.53125 c 0.33841,-0.33842 1.71189,-0.6494 2.125,-1.0625 4.71014,-4.71014 10.19072,-8.40947 14.15625,-12.375 0.73935,-0.73936 1.91583,-3.00957 2.8125,-3.90625 0.26414,-0.26414 0.54362,-0.49183 0.8125,-0.71875 z"
         style="fill:#5fd3b3;fill-opacity:1;fill-rule:nonzero;stroke:none"
         inkscape:connector-curvature="0" />
      <path
         id="path2985-1-7-4-0-4-8-8-4-5"
         d="m 40.34375,827.21875 c -0.454211,-2.5e-4 -0.931159,0.0787 -1.4375,0.28125 -2.664177,0.99825 -3.346028,2.28353 -4.96875,3.90625 -0.745423,0.74542 -5.473618,1.47936 -9.625,2.09375 C 8.9717272,855.9596 0,883.12364 0,912.375 c 0,8.05415 0.6940532,15.94285 2,23.625 0.6296852,0.006 1.2561248,0.0312 1.875,0.0312 4.7310567,0 9.678802,0.43186 14.15625,-0.6875 1.090624,-0.27266 2.468644,0.3542 3.53125,0 2.934919,-0.97831 5.804761,-2.084 8.84375,-2.84375 2.42978,-0.60744 5.442733,-0.28299 7.78125,-1.0625 0.474342,-0.15811 0.646475,-0.78515 1.0625,-1.0625 0.836523,-0.55768 4.863978,-1.38511 6.34375,-2.125 1.351223,-0.67561 5.672905,-0.70416 6.71875,-1.75 1.50179,-1.50179 4.177982,-1.70923 5.65625,-3.1875 2.510328,-2.51032 6.916251,-5.5675 9.90625,-7.0625 1.507593,-0.7538 2.514563,-3.23332 3.53125,-4.25 0.843719,-0.84372 3.394782,-2.21302 4.59375,-2.8125 1.851282,-0.92564 4.183453,-4.55845 5.65625,-6.03125 0.772444,-0.77244 0.663569,-2.01463 1.0625,-2.8125 2.489052,-4.9781 2.903431,-12.54253 1.4375,-18.40625 -0.292897,-1.17159 -1.401784,-2.39285 -1.78125,-3.53125 -0.590699,-1.77209 -3.95257,-15.26508 -4.25,-15.5625 -1.331461,-1.33147 -5.695153,-9.9257 -6.34375,-10.25 -1.275189,-0.6376 -1.883657,-3.94183 -3.1875,-4.59375 -0.877441,-0.43872 -5.086494,-4.7115 -6.375,-6 -0.787109,-0.78711 -2.19851,-3.03675 -3.1875,-3.53125 -1.475759,-0.73788 -7.404615,-5.65462 -8.46875,-6.71875 -0.747301,-0.7473 -5.23518,-1.36018 -5.65625,-1.78125 -1.11167,-1.11167 -2.594252,-2.74894 -4.5625,-2.75 z"
         style="fill:#ff0000;fill-opacity:1;fill-rule:nonzero;stroke:none"
         inkscape:connector-curvature="0" />
      <path
         inkscape:connector-curvature="0"
         id="path4023"
         d="m 93.691649,792.85399 c -0.471405,0.23571 -1.178512,1.17852 -1.414214,0.70711 -0.235702,-0.4714 1.786892,-1.07978 1.414214,-0.70711 -1.6172,1.6172 -3.714513,1.5932 -4.949748,2.82843 -1.538515,1.53852 -3.552687,4.25979 -4.949747,5.65686 -1.551572,1.55157 -3.493323,2.43266 -4.949748,3.88908 -0.353553,0.35356 -1.414213,0 -1.767767,0.35356 -2.221449,2.22144 -5.355716,2.88084 -7.424621,4.94974 -0.648801,0.6488 -2.0549,0.64069 -2.828427,1.41422 -1.797155,1.79715 -5.17107,2.34264 -6.010408,3.18198 -3.311514,3.31151 -8.41689,3.46714 -11.667262,6.71751 -1.204718,1.20472 -3.63779,1.16292 -4.949747,2.47488 -0.397748,0.39774 -4.038518,1.56364 -4.596194,2.12132 -0.414797,0.41479 -1.676852,0.61619 -2.121321,1.06066 -1.917272,1.91727 0.730284,6.03358 1.414214,6.71751 0.648181,0.64818 -0.294628,2.88735 0.353553,3.53553 0.166667,0.16667 0.540441,-0.16666 0.707107,0 0.560105,0.56011 -0.403162,8.73962 0.353554,10.25305 2.005715,4.01143 3.592757,9.60317 6.717514,12.72792 0.244961,0.24497 0.108592,1.52281 0.353553,1.76777 1.080025,1.08003 2.030454,3.44467 3.181981,4.5962 0.231783,0.23178 0.176423,1.23708 0.353553,1.41421 0.166667,0.16667 0.54044,-0.16667 0.707107,0 0.813154,0.81315 0.661931,2.4297 1.414214,3.18198 1.593254,1.59325 4.579796,3.16558 6.010407,4.59619 1.407016,1.40702 1.759452,3.88078 2.828427,4.94975 1.533781,1.53378 2.918478,2.91848 4.596194,4.5962 0.486031,0.48603 1.835709,0.38752 2.474874,0.7071 3.391259,1.69563 19.92774,-2.60362 21.566757,-4.24264 0.148732,-0.14873 1.284717,0.0648 1.414214,0 1.204229,-0.60211 4.647942,-3.19492 6.010407,-3.53553 5.805531,-1.45138 11.130061,-4.06357 16.970561,-6.01041 2.32277,-0.77426 5.26037,-1.39275 7.42462,-2.47487 2.30849,-1.15425 5.23903,-3.39626 7.77818,-4.24264 2.721,-0.90701 5.81762,-2.64632 8.48528,-3.53554 3.12865,-1.04288 6.69809,-1.75805 9.54594,-3.18198 3.02426,-1.51213 6.20757,-4.79336 8.48528,-7.07107 1.61145,-1.61144 4.87075,-2.04232 6.71752,-3.88908 3.43127,-3.43128 7.17779,-7.53135 10.6066,-10.96016 3.41079,-3.41079 14.42679,-16.04769 11.66726,-21.56676 -0.58623,-1.17246 -1.27992,-1.63347 -2.12132,-2.47487 -0.19008,-0.19008 -0.29142,-1.58136 -0.35355,-1.76777 -0.14911,-0.44732 -4.07342,-4.42697 -4.5962,-4.94974 -3.55569,-3.55569 -8.39089,-5.36809 -13.78858,-6.71752 -2.47014,-0.61753 -4.09232,-0.27839 -6.36396,-1.41421 -1.21923,-0.60961 -9.40023,-0.20784 -9.8995,-0.70711 -1.62527,-1.62527 -5.22952,0.0369 -7.42462,-1.06066 -3.17979,-1.58989 -23.1817,-0.70711 -28.63782,-0.70711 -1.20498,0 -4.20859,0.54736 -5.3033,0 -3.74307,-1.87153 -9.223751,-1.77822 -13.435031,-3.18198 z"
         style="fill:#ffffff;stroke:none" />
      <path
         sodipodi:nodetypes="scccssscccsssssssssscs"
         inkscape:connector-curvature="0"
         id="path2985-1-7-4-0-4-8-8-4"
         d="m 140,772.375 c -7.00925,0 -13.89215,0.50559 -20.625,1.5 -1.36936,1.35295 -2.72974,2.72974 -4.125,4.125 -0.35355,0.35356 -1.77144,-0.35355 -2.125,0 -0.33333,0.33334 0.33334,1.07291 0,1.40625 -0.46356,0.46356 -2.45824,0.36449 -2.8125,0.71875 -3.3945,3.3945 -4.05266,1.55266 -7.40625,4.90625 -0.35355,0.35355 -4.146447,2.14644 -4.5,2.5 -0.707107,0.7071 -2.949143,2.4804 -3.65625,3.1875 -0.834621,1.5214 -3.093489,0.82528 -3.3125,3.5 3.93874,3.93874 11.29764,7.32888 15.34375,11.375 1.2263,1.22629 4.57357,1.04232 5.65625,2.125 2.00035,2.00035 5.34727,5.50176 8.46875,7.0625 2.40841,1.20421 4.63721,1.07471 6.375,2.8125 1.41421,1.41422 6.36704,-0.69547 7.78125,0.71875 2.71128,2.71127 20.74273,12.97239 26.875,9.90625 5.41918,-2.70959 12.04678,-4.98429 16.25,-9.1875 0.43535,-0.43536 2.9999,-0.45307 3.53125,-0.71875 9.5227,-4.76135 20.76868,-10.14369 27.59375,-16.96875 0.7234,-0.72341 3.36143,-0.54893 4.21875,-1.40625 1.19529,-1.19529 2.04844,-3.04634 2.9375,-4.875 C 194.48736,780.7044 168.21432,772.375 140,772.375 z"
         style="fill:#0000ff;fill-opacity:1;fill-rule:nonzero;stroke:none" />
      <path
         id="path2985-1-7-4-0-4-8-8-2"
         d="m 7.6875,913 c -0.5978929,0.0349 -1.2184656,0.125 -1.4375,0.125 -0.8213366,0 -4.7744681,0.78337 -6.21875,1.25 0.25784409,18.2876 4.0276225,35.70667 10.65625,51.65625 5.409478,-0.3031 10.462593,-1.05634 11.8125,-2.40625 0.292166,-0.29216 0.433861,-1.18386 0.75,-1.5 0.716068,-0.71607 1.288435,-1.53843 2,-2.25 0.179667,-0.17966 0.158888,-0.97666 0.25,-1.25 1.951843,-5.85553 3.198781,-14.15365 1.25,-20 -0.2588,-0.7764 0.02028,-1.68915 -0.25,-2.5 -0.698907,-2.09672 0.537303,-4.85078 0,-7 -0.155992,-0.62397 -0.678589,-4.85718 -0.75,-5 -0.963455,-1.92691 -2.217279,-4.96728 -3.5,-6.25 -0.500068,-0.50007 -1.78508,-0.53508 -2.25,-1 -0.24658,-0.24658 -0.317807,-0.8178 -0.5,-1 -0.422132,-0.42213 -6.355148,-0.77103 -7.5,-1 -1.171538,-0.41067 -2.3805111,-1.13051 -3,-1.75 C 8.8606059,912.98561 8.2853929,912.96515 7.6875,913 z"
         style="fill:#ffffff;fill-opacity:1;fill-rule:nonzero;stroke:none"
         inkscape:connector-curvature="0" />
      <path
         id="path2985-1-7-4-0-4-8-8"
         d="m 61.3125,890.6875 c -1.056602,-0.0113 -1.907699,0.019 -2.28125,0.0937 -1.110744,0.7091 -5.227425,2.03992 -5.65625,2.46875 -3.300477,3.30047 -9.234811,5.33616 -14.125,7.78125 -1.820347,0.91017 -3.50036,0.68786 -4.59375,1.78125 -0.53033,0.53033 -2.31342,-0.18658 -2.84375,0.34375 -0.704655,0.70466 -2.712813,0.93156 -3.1875,1.40625 -0.117821,0.11782 0.117821,0.60093 0,0.71875 -0.530513,0.53051 -2.788083,0.31933 -3.875,1.40625 -0.390527,0.39052 -5.3612,0.76745 -5.65625,1.0625 -2.669414,2.66941 -9.1588631,2.47137 -12.71875,6.03125 -2.0835365,2.08354 -0.8031843,11.07512 -2.5,14.46875 -0.4242641,0.84853 0.4242641,2.33897 0,3.1875 -1.2585079,2.51701 -0.3072526,7.64472 -0.71875,10.46875 4.1397198,19.25719 12.239269,37.04876 23.40625,52.46875 0.572338,-0.005 1.153481,0 1.71875,0 1.621065,0 3.764114,0.38709 5.3125,0 2.155158,-0.53879 -0.941728,-0.12331 1.40625,-1.0625 1.81395,-0.72558 4.503012,0.28025 6.375,-0.34375 3.539017,-1.17967 7.07523,-1.24537 10.59375,-2.125 5.949542,-1.48738 11.676067,-3.52553 16.625,-6 0.869175,-0.43458 2.360308,-0.30516 3.1875,-0.71875 2.581461,-1.29073 5.011716,-1.99024 7.40625,-3.1875 0.681142,-0.34057 1.787607,-0.003 2.46875,-0.34375 3.69168,-1.84584 8.427626,-1.55756 12.375,-3.53125 0.377124,-0.18856 1.060376,0.18856 1.4375,0 7.20208,-3.60104 17.09038,-7.21539 21.90625,-12.03125 0.33989,-0.3399 0.26497,-1.29622 0.71875,-1.75 2.45989,-2.45989 3.1875,-6.8023 3.1875,-10.96875 0,-2.10072 0.51976,-5.64798 -0.375,-7.4375 -2.03925,-4.07849 -2.93747,-6.9687 -4.9375,-10.96875 -0.43898,-0.87796 -0.30361,0.16218 -1.0625,-0.34375 -0.66303,-0.44202 -1.12784,-1.91193 -1.40625,-2.46875 -1.15894,-2.31787 -6.83851,-7.50692 -8.84375,-8.84375 -2.87683,-1.91788 -5.51352,-3.57151 -8.125,-5.3125 -0.990293,-0.66019 -1.668862,-1.91466 -2.5,-2.46875 -1.372914,-0.91528 -3.045167,-1.63891 -4.21875,-2.8125 -1.997988,-1.99798 -4.622377,-6.02863 -6.71875,-8.125 -0.473019,-0.47302 -2.004794,-0.50959 -2.46875,-1.4375 -0.978638,-1.95727 -2.281977,-4.48474 -4.625,-5.65625 -0.295843,-0.14792 -1.578659,-0.51616 -1.75,-0.6875 -0.521487,-0.52149 -0.629132,-1.69163 -1.0625,-2.125 -0.31353,-0.31353 -0.98011,-0.16193 -1.40625,-0.375 -1.090318,-0.54516 -1.247899,-1.21665 -1.78125,-1.75 -0.393153,-0.39315 -5.517694,-0.77851 -8.6875,-0.8125 z"
         style="fill:#0000ff;fill-opacity:1;fill-rule:nonzero;stroke:none"
         inkscape:connector-curvature="0" />
      <path
         inkscape:connector-curvature="0"
         id="path3967"
         d="m 133,837.86218 c -7.36762,1.82901 -11.83255,6.83255 -17,12 -2.06237,2.06237 -6.53433,2.03433 -8.5,4 -0.60747,0.60747 -5.53446,2.01724 -6.5,2.5 -2.960357,1.48018 -3.57737,3.28869 -6,4.5 -0.774887,0.38745 -3.355902,0.3559 -4,1 -2.113725,2.11373 -5.313051,3.31305 -8,6 -1.158876,1.15888 -4.885705,1.38571 -6.5,3 -2.742206,2.74221 -5.083542,5.58354 -7.5,8 -1.008861,1.00886 -1.113941,2.30697 -2.5,3 -0.333333,0.16667 -1,0.87268 -1,0.5 0,-0.2357 0,0.43097 0,1 0,1.30382 -2.2403,2.7403 -3,3.5 -0.416667,0.41667 -0.08333,1.58334 -0.5,2 -0.02588,0.0259 -2.030052,0.53005 -3,1.5 -0.568477,0.56848 0.702359,3.70236 1,4 0.922991,0.92299 2.695363,1.19537 3.5,2 0.583333,0.58334 -0.08333,2.41667 0.5,3 0.235702,0.2357 0.764298,-0.2357 1,0 0.662548,0.66255 1.562962,4.56296 3.5,6.5 5.662625,5.66263 8.31705,14.81705 14,20.5 0.838292,0.83829 0.440039,2.88008 1,4 1.229009,2.45802 6.524862,6.52486 8.5,8.5 0.416667,0.41667 0.08333,1.58334 0.5,2 3.007633,3.00764 5.521716,7.02172 8,9.5 0.2505,0.2505 0.17221,1.67221 0.5,2 1.52317,1.52318 7.49583,-1.00208 9.5,0 1.28863,0.64432 6.5367,1.23165 8,0.5 2.3264,-1.1632 6.77783,-0.63891 9.5,-2 7.88472,-3.94236 16.38235,-6.94117 24.5,-11 1.61229,-0.80614 4.68087,-0.62058 6,-1.5 3.96727,-2.64484 9.03942,-5.26971 13.5,-7.5 1.85239,-0.92619 4.5251,-4.51255 6.5,-5.5 7.9925,-3.99625 13.47178,-10.73589 21,-14.5 1.66364,-0.83182 3.36037,-4.36037 4.5,-5.5 1.43762,-1.43762 3.32617,-12.52149 2.5,-15 -0.48668,-1.46005 -1.80144,-2.60287 -2.5,-4 -0.89809,-1.79618 -0.51685,-4.52527 -1.5,-6 -2.24295,-3.36443 -3.33556,-7.25333 -5.5,-10.5 -0.77264,-1.15896 -2.94158,-2.88316 -3.5,-4 -1.50923,-3.01846 -1.6194,-4.1194 -4,-6.5 -2.40517,-2.40517 -3.89679,-7.89679 -6.5,-10.5 -5.69857,-5.69857 -10.75174,-12.25173 -15,-16.5 -1.75962,-1.75962 -4.63852,-1.63851 -6.5,-3.5 -0.6076,-0.6076 -4.51026,0 -5.5,0 -9.93857,0 -12.79109,2.79109 -17.5,7.5 -0.25,0.25 0.25,1.25 0,1.5 -0.93224,0.93224 -4.16711,0.26658 -5.5,0 z"
         style="fill:#ff992a;fill-opacity:1;stroke:none" />
      <path
         id="path2985-1-7-4-0-4-8"
         d="m 194.84375,783.53125 c -2.01138,2.054 -5.02514,6.02514 -6.84375,7.84375 -3.72177,3.72177 -10.49832,4.49833 -15,9 -1.87873,1.87873 -9.80873,2.80873 -12,5 -2.17106,2.17106 -4.4673,6.4673 -7,9 -1.15616,1.15616 -9.64084,3.28168 -12,8 -1.3107,2.62139 -4.56384,4.56384 -6,6 -1.33333,1.33334 0.33333,5.66667 -1,7 -0.28958,0.28958 -4.37223,2.62777 -2,5 3.07622,3.07622 8.58799,7.58799 12,11 2.14995,2.14996 2.4098,5.4098 5,8 1.33333,1.33334 -0.33333,5.66667 1,7 7.05914,7.05915 14.86192,13.86192 22,21 2,2 6,2 8,4 2.24892,2.24892 5.23488,8.23489 8,11 1.03296,1.03296 16.49029,0.75486 18,0 2.06216,-1.03107 3.9836,-3 6,-3 5.02721,0 10.70109,-4.40217 13,-9 0.44721,-0.89442 2.05132,0.31623 3,0 3.02603,-1.00867 5.54492,-5.54492 7,-7 0.46226,-0.46226 2.39623,0.30189 3,0 2.09052,-1.04526 0.19393,-2.38785 1,-4 0.3586,-0.7172 5.0379,-1.51895 6,-2 0.59628,-0.29814 -0.4714,-1.52859 0,-2 2.17157,-2.17157 7.37636,-4.37636 10,-7 0.4714,-0.4714 -0.4714,-1.52859 0,-2 1.67129,-1.67129 5.7868,-2.8934 8,-4 0.72807,-0.36403 2.76954,-3.53253 4.3125,-6.09375 -14.28775,-32.64129 -40.66377,-58.76937 -73.46875,-72.75 z"
         style="fill:#5fd3b3;fill-opacity:1;fill-rule:nonzero;stroke:none"
         inkscape:connector-curvature="0" />
      <path
         id="path2985-1-7-4-0-4"
         d="m 47.15625,981.71875 c -2.52621,0.1007 -6.799861,1.15974 -7.4375,1.34375 -7.43045,2.14424 -13.215694,2.36907 -18.84375,2.84375 12.940461,20.91935 31.230934,38.16265 52.96875,49.84375 3.046168,-0.975 5.361515,-1.9418 5.8125,-2.8438 0.624839,-1.2496 0.199064,-5.9768 -0.34375,-7.0624 -0.655765,-1.3115 0.05052,-8.0745 -1.0625,-9.1876 -0.668239,-0.6681 -1.235238,-1.7517 -1.78125,-2.8437 -0.552433,-1.1049 -2.545438,-2.1704 -3.53125,-3.1563 -0.17713,-0.177 -0.111967,-1.2056 -0.34375,-1.4374 -1.360288,-1.3604 -4.754329,-4.0357 -6.71875,-6 -2.160168,-2.1603 -3.003343,-5.12837 -4.9375,-7.06255 -0.177131,-0.17713 -0.143218,-1.20571 -0.375,-1.4375 -0.376955,-0.37695 -1.404924,-1.05985 -1.75,-1.75 -0.343872,-0.68775 -0.932437,-2.33869 -1.4375,-2.84375 -2.589276,-2.58928 -5.559648,-5.2159 -8.46875,-8.125 -0.24909,-0.24909 -0.90793,-0.31482 -1.75,-0.28125 z"
         style="fill:#5fd3b3;fill-opacity:1;fill-rule:nonzero;stroke:none"
         inkscape:connector-curvature="0" />
      <path
         id="path2985-1-7-4-0-9"
         d="m 251.5,827.71875 c -2.75263,7.64343 -5.13949,9.29575 -9.5,13.65625 -1.3909,1.39091 -3.40729,8.4073 -6,11 -3.46147,3.46147 -14.97496,6.97496 -17,9 l -2,2 c -0.8583,0.8583 -10.25063,10.50063 -11.5,11.75 -1.24543,4.42483 -3.96063,2.99868 -1,9 0.83333,0.83334 3.66667,4.41667 4.5,5.25 1.53114,1.53114 2.26575,5.26576 4,7 2.20303,2.20303 0.21916,7.21916 2,9 5.49471,5.49471 7.10854,22.05427 13,25 1.81888,0.90944 7.24638,10.24639 9,12 4.88529,4.88529 24.40379,-11 29,-11 4.16837,0 10.70816,-8.41632 13,-13 0.12818,-0.25636 0.6409,-1.15082 0.9375,-1.6875 0.0438,-1.43914 0.0625,-2.86275 0.0625,-4.3125 0,-31.81095 -10.62622,-61.14685 -28.5,-84.65625 z"
         style="fill:#0000ff;fill-opacity:1;fill-rule:nonzero;stroke:none"
         inkscape:connector-curvature="0" />
      <path
         sodipodi:nodetypes="cssssssssscscsssccccssssc"
         inkscape:connector-curvature="0"
         id="path3847"
         d="m 123.5,935.61218 c -1.23956,-0.13856 -11.29709,7.29709 -17,13 -1.41836,1.41837 -5.73488,0.73488 -7,2 -0.654733,0.65474 -0.621897,2.31095 -2,3 -1.050814,0.52541 -5.117929,0.11793 -6,1 -2.549231,2.54923 -7.213762,4.9041 -12.694761,7.24803 -5.481,2.34392 -11.778469,4.6769 -17.593576,7.18235 -5.815107,2.50545 -15.147853,8.68336 -18.699407,11.71716 -3.551554,3.0338 -1.321916,2.92348 -0.01226,6.85246 2.208293,6.62488 15.236573,14.23662 20,19.00002 4.647842,4.6478 10.113445,18.1134 17,25 1.798555,1.7985 33.236474,4.7635 37.000004,1 3.20937,-3.2094 6.51575,-2.5158 7,-3 0.4714,-0.4714 -0.4714,-1.5286 0,-2 0.5,-0.5 2.5,0.5 3,0 4.90172,-4.9017 14.59088,-5.5909 19,-10 1.1957,-1.1957 6.65435,-0.6544 8,-2 2.47651,-2.4765 4.58828,-4.7942 9,-7 3.04376,-1.5219 7.21023,-2.2102 10,-5 0.83333,-0.8334 0.16667,-3.1667 1,-4 2.34634,-2.34636 6.87629,-5.8763 9,-8.00002 1.16667,-1.16666 -0.16667,-4.83333 1,-6 11.04396,-11.04395 -24.22933,-41.22933 -29,-46 -0.75024,-0.75024 -12.2557,-5.25569 -14,-7 -2.3171,-2.3171 -14.72583,2.54517 -17,3 z"
         style="fill:#ff0000;stroke:none" />
      <path
         id="path2985-1-7-4-0"
         d="m 144.5,1008.125 c -2.67818,3.0016 -6.45599,5.028 -11.75,10.25 -3,3 -10.75,-1 -13.75,2 -3.18898,3.189 -6.69246,3 -12,3 -3.8,0 -4.81233,-0.1877 -7,2 -1.238609,1.2386 -25.026778,2 -29,2 -1.271878,0 -7.190446,-0.8096 -8,0 -0.357397,0.3574 -0.681998,0.7753 -0.96875,1.25 22.284857,14.9715 49.10391,23.75 77.96875,23.75 12.65203,0 24.90493,-1.6976 36.5625,-4.8438 -0.52216,-0.7006 -0.91876,-1.3312 -1.0625,-1.9062 -1.22582,-4.9033 -7.88039,-12.8936 -12.0625,-14.9688 -6.18542,-3.0694 -7.89175,-10.2354 -11.1875,-13.5312 -1.5522,-1.5522 -3.2367,-8.8474 -7.75,-9 z"
         style="fill:#0000ff;fill-opacity:1;fill-rule:nonzero;stroke:none"
         inkscape:connector-curvature="0" />
      <path
         inkscape:connector-curvature="0"
         id="path3845"
         d="m 204,878.36218 c -9.22451,12.78485 -20.75292,13.75292 -30,23 -1.40895,1.40895 -15.77097,5.77097 -17,7 -5.01368,5.01368 -18.69049,11.69049 -20,13 -4.7405,4.7405 -9.56007,9.56008 -14,14 -2.00455,2.00456 6.0193,14.0193 7,15 0.5796,0.5796 3.4204,1.4204 4,2 1,1 0,4 1,5 0.4714,0.47141 1.5286,-0.4714 2,0 0.5,0.5 -0.5,2.5 0,3 0.52924,0.52924 8,10.61483 8,12 0,4.10264 4.7808,13.7808 7,16 0.66667,0.66667 2.33333,0.33334 3,1 1.94778,1.94778 2.15485,5.15485 4,7 2.40289,2.40289 4.96972,3.96972 7,6.00002 0.79816,0.7981 3.95086,-0.5246 5,0 8.88931,4.4446 26.73912,-4.73914 31,-9.00002 1,-1 5,1 6,0 2.46579,-2.46579 6.91301,-2.9565 11,-5 0.59628,-0.29814 -0.4714,-1.52859 0,-2 0.95516,-0.95516 4.85765,-0.85765 6,-2 5.50727,-5.50726 14.90106,-7.90106 20,-13 1.80171,-1.8017 1.2767,-6.27669 3,-8 1.59647,-1.59647 4.99091,-3.98182 6,-6 0.84087,-1.68174 -0.18631,-3.81369 1,-5 1.07702,-1.07701 3.74267,-1.48535 5,-4 1.36328,-2.72655 0.15922,-12.15922 2,-14 0.88915,-0.88915 2.14983,-7.70033 1,-10 -0.58472,-1.16943 -9.3947,-15.69735 -10,-16 -4.20022,-2.10011 -10.23815,-6.23814 -13,-9 -3.21291,-3.21291 -4.84627,-7.84627 -8,-11 -1.5,-1.5 -4.5,-1.5 -6,-3 -7.49119,-7.49118 -12.85717,-8.82856 -22,-7 z"
         style="fill:#f9f9f9;stroke:none" />
      <path
         id="path2985-1-7-4"
         d="m 220.46875,954.375 c -15.07649,12.90237 -24.13509,21.56755 -39,29 -4.1505,2.07525 -7.22908,5.22908 -10,8 -2.24524,2.24524 -11.33828,3.33828 -13,5 -4.35312,4.3531 -9.26608,7.2661 -13,11 -0.81538,0.8154 -2.24338,14.7566 -1,16 6.81797,6.818 7.89113,14.8911 14,21 0.98016,0.9802 1.93129,3.656 2.90625,6.375 38.84621,-5.9531 72.42481,-27.8982 93.84375,-58.875 -3.45836,-6.20752 -8.32079,-12.32079 -10.5,-14.5 -1.5,-1.5 -7.5,-10 -9,-11.5 -1.70959,-1.70958 -6.20948,-3.20948 -8.25,-5.25 -1.15955,-1.15954 -4.76401,-5.3556 -7,-6.25 z"
         style="fill:#ff992a;fill-opacity:1;fill-rule:nonzero;stroke:none"
         inkscape:connector-curvature="0" />
      <path
         inkscape:connector-curvature="0"
         id="path2985-1-7"
         d="m 277.1875,884.3125 c -0.0968,0.0177 -0.22432,0.0428 -0.3125,0.0625 0.34285,8.51537 -2.38905,11.72646 -6.25,17.8125 -0.37954,0.59828 0.37166,3.34212 -0.125,4.125 -3.24504,5.11518 -4.6866,8.96786 -8.78125,13.0625 -1.07723,1.07724 -4.59264,1.59265 -6,3 -3.80269,3.80269 -9.16308,10.16309 -12,13 -1.17322,1.17323 -4.74285,1.74285 -6,3 -2.36709,2.36709 -7.52226,6.89727 -9.65625,9.03125 -3.24059,3.35466 -8.35564,6.24354 -9.34375,10.96875 1.83333,1.83334 0.16667,7.16667 2,9 11.9153,11.9153 -4.82783,36 22,36 0.92833,0 2.34204,-0.1836 4.0625,-0.4688 C 267.50616,978.49402 280,946.9068 280,912.375 c 0,-9.60998 -0.96821,-18.99706 -2.8125,-28.0625 z"
         style="fill:#5fd3b3;fill-opacity:1;fill-rule:nonzero;stroke:none" />
    </g>
    <path
       sodipodi:type="arc"
       style="fill:url(#radialGradient3775);stroke:none;fill-opacity:1"
       id="path2999"
       sodipodi:cx="-190"
       sodipodi:cy="-110"
       sodipodi:rx="86"
       sodipodi:ry="86"
       d="m -104,-110 a 86,86 0 1 1 -172,0 86,86 0 1 1 172,0 z"
       transform="matrix(1.627907,0,0,1.627907,449.30233,1091.4319)" />
  </g>
</svg>
