<?xml version="1.0" encoding="UTF-8" standalone="no"?>
<!-- Created with Inkscape (http://www.inkscape.org/) -->

<svg
   xmlns:dc="http://purl.org/dc/elements/1.1/"
   xmlns:cc="http://creativecommons.org/ns#"
   xmlns:rdf="http://www.w3.org/1999/02/22-rdf-syntax-ns#"
   xmlns:svg="http://www.w3.org/2000/svg"
   xmlns="http://www.w3.org/2000/svg"
   xmlns:sodipodi="http://sodipodi.sourceforge.net/DTD/sodipodi-0.dtd"
   xmlns:inkscape="http://www.inkscape.org/namespaces/inkscape"
   width="160"
   height="160"
   id="svg2"
   version="1.1"
   inkscape:version="0.48.5 r10040"
   sodipodi:docname="kidicon.svg"
   inkscape:export-filename="C:\Users\Nick\Desktop\HTML5 Games\Childhood\img\kidicon.png"
   inkscape:export-xdpi="90"
   inkscape:export-ydpi="90">
  <defs
     id="defs4">
    <filter
       inkscape:label="Noisy blur"
       inkscape:menu="Blurs"
       inkscape:menu-tooltip="Small-scale roughening and blurring to edges and content"
       x="-0.25"
       width="1.5"
       y="-0.25"
       height="1.5"
       color-interpolation-filters="sRGB"
       id="filter4009">
      <feGaussianBlur
         stdDeviation="5"
         result="result1"
         id="feGaussianBlur4011" />
      <feTurbulence
         numOctaves="1"
         seed="0"
         type="fractalNoise"
         baseFrequency="0.1"
         result="result2"
         id="feTurbulence4013" />
      <feDisplacementMap
         scale="5"
         yChannelSelector="G"
         xChannelSelector="R"
         result="result3"
         in="result1"
         in2="result2"
         id="feDisplacementMap4015" />
      <feComposite
         operator="atop"
         in2="result3"
         id="feComposite4017" />
    </filter>
    <filter
       inkscape:label="Noisy blur"
       inkscape:menu="Blurs"
       inkscape:menu-tooltip="Small-scale roughening and blurring to edges and content"
       x="-0.25"
       width="1.5"
       y="-0.25"
       height="1.5"
       color-interpolation-filters="sRGB"
       id="filter4009-5">
      <feGaussianBlur
         stdDeviation="5"
         result="result1"
         id="feGaussianBlur4011-1" />
      <feTurbulence
         numOctaves="1"
         seed="0"
         type="fractalNoise"
         baseFrequency="0.1"
         result="result2"
         id="feTurbulence4013-7" />
      <feDisplacementMap
         scale="5"
         yChannelSelector="G"
         xChannelSelector="R"
         result="result3"
         in="result1"
         in2="result2"
         id="feDisplacementMap4015-1" />
      <feComposite
         operator="atop"
         in2="result3"
         id="feComposite4017-1" />
    </filter>
    <filter
       inkscape:label="Noisy blur"
       inkscape:menu="Blurs"
       inkscape:menu-tooltip="Small-scale roughening and blurring to edges and content"
       x="-0.25"
       width="1.5"
       y="-0.25"
       height="1.5"
       color-interpolation-filters="sRGB"
       id="filter4009-2">
      <feGaussianBlur
         stdDeviation="5"
         result="result1"
         id="feGaussianBlur4011-7" />
      <feTurbulence
         numOctaves="1"
         seed="0"
         type="fractalNoise"
         baseFrequency="0.1"
         result="result2"
         id="feTurbulence4013-9" />
      <feDisplacementMap
         scale="5"
         yChannelSelector="G"
         xChannelSelector="R"
         result="result3"
         in="result1"
         in2="result2"
         id="feDisplacementMap4015-5" />
      <feComposite
         operator="atop"
         in2="result3"
         id="feComposite4017-4" />
    </filter>
  </defs>
  <sodipodi:namedview
     id="base"
     pagecolor="#ffffff"
     bordercolor="#666666"
     borderopacity="1.0"
     inkscape:pageopacity="0.0"
     inkscape:pageshadow="2"
     inkscape:zoom="1"
     inkscape:cx="443.61133"
     inkscape:cy="161.3833"
     inkscape:document-units="px"
     inkscape:current-layer="layer1"
     showgrid="false"
     fit-margin-top="0"
     fit-margin-left="0"
     fit-margin-right="0"
     fit-margin-bottom="0"
     inkscape:window-width="1920"
     inkscape:window-height="1018"
     inkscape:window-x="-8"
     inkscape:window-y="-8"
     inkscape:window-maximized="1" />
  <metadata
     id="metadata7">
    <rdf:RDF>
      <cc:Work
         rdf:about="">
        <dc:format>image/svg+xml</dc:format>
        <dc:type
           rdf:resource="http://purl.org/dc/dcmitype/StillImage" />
        <dc:title></dc:title>
      </cc:Work>
    </rdf:RDF>
  </metadata>
  <g
     inkscape:label="Layer 1"
     inkscape:groupmode="layer"
     id="layer1"
     transform="translate(0,-892.36218)">
    <path
       style="fill:#ffccaa;stroke:#000000;stroke-width:0.99999994px;stroke-linecap:butt;stroke-linejoin:miter;stroke-opacity:1"
       d="m 396.96714,933.47969 c -10.32775,7.12519 -22.81265,-42.76497 2.12947,-29.97134 z"
       id="path3791-4"
       inkscape:connector-curvature="0"
       sodipodi:nodetypes="ccc" />
    <path
       style="fill:none;stroke:#000000;stroke-width:1px;stroke-linecap:butt;stroke-linejoin:miter;stroke-opacity:1"
       d="m 396.48212,906.8143 c -6.64119,-3.16399 -11.03496,-1.72078 -8.3085,14.31891"
       id="path3979-5"
       inkscape:connector-curvature="0"
       sodipodi:nodetypes="cc" />
    <rect
       style="fill:#b3b3b3;fill-opacity:1;fill-rule:nonzero;stroke:#000000;stroke-width:2;stroke-linejoin:miter;stroke-miterlimit:4;stroke-opacity:1;stroke-dasharray:none;stroke-dashoffset:0"
       id="rect2985"
       width="158"
       height="158"
       x="1"
       y="893.36218" />
    <path
       style="fill:#ffccaa;stroke:#000000;stroke-width:0.99999994px;stroke-linecap:butt;stroke-linejoin:miter;stroke-opacity:1"
       d="m 54.476708,999.8143 50.852722,0 2.31149,59.7738 -55.475699,0.3302 z"
       id="path4143"
       inkscape:connector-curvature="0"
       sodipodi:nodetypes="ccccc" />
    <path
       style="fill:#ffccaa;stroke:#000000;stroke-width:0.99999994px;stroke-linecap:butt;stroke-linejoin:miter;stroke-opacity:1"
       d="m 470.06794,933.47969 c 10.32775,7.12519 22.81265,-42.76497 -2.12947,-29.97134 z"
       id="path3791"
       inkscape:connector-curvature="0"
       sodipodi:nodetypes="ccc" />
    <path
       style="fill:none;stroke:#000000;stroke-width:1px;stroke-linecap:butt;stroke-linejoin:miter;stroke-opacity:1"
       d="m 470.22604,906.8143 c 6.64119,-3.16399 11.03496,-1.72078 8.3085,14.31891"
       id="path3979"
       inkscape:connector-curvature="0"
       sodipodi:nodetypes="cc" />
    <path
       style="fill:#ffccaa;fill-opacity:1;fill-rule:nonzero;stroke:#000000"
       d="m 433.5,-29.5 c -23.19596,0 -45,10.80404 -42,46 0.63927,10.150566 2.4391,21.400044 4.40625,30.46875 5.07686,15.162132 12.70083,21.402777 25.39153,25.603141 3.53393,1.144095 4.15581,3.494862 11.52676,3.494862 6.61997,0 8.98583,-3.048483 12.50573,-4.374462 12.43399,-4.899018 20.86446,-11.909308 25.57598,-24.723541 2.18532,-6.758471 5.13152,-21.385314 4.59375,-30.46875 2,-32.94596 -18.80404,-46 -42,-46 z"
       transform="translate(0,892.36218)"
       id="path2985"
       inkscape:connector-curvature="0"
       sodipodi:nodetypes="scccscccs" />
    <path
       style="fill:#a05a2c;stroke:#784421;stroke-width:1px;stroke-linecap:butt;stroke-linejoin:miter;stroke-opacity:1"
       d="m 404.75,906.11218 c 2.42641,-1.8547 6.17794,-2.23198 9.25,-3 2.66787,-0.66697 9.09765,-0.40235 10.5,1 0.31416,0.31416 -0.8986,1.1486 -1,1.25 -0.5,0.5 -2.5,-0.5 -3,0 -2.91476,2.91476 -11.36775,-1.0029 -15.75,0.75 z"
       id="path3872"
       inkscape:connector-curvature="0" />
    <path
       style="fill:#ff8080;stroke:#d35f5f;stroke-width:1px;stroke-linecap:butt;stroke-linejoin:miter;stroke-opacity:1"
       d="m 417.5,946.61218 c 4.64258,-1.38112 7.01362,-2.14526 14.64645,-1.73223 8.38622,-0.52644 10.49941,0.22747 15.32322,1.48223 -10.16667,2.205 -19.803,2.28764 -29.96967,0.25 z"
       id="path3017"
       inkscape:connector-curvature="0"
       sodipodi:nodetypes="cccc" />
    <path
       style="fill:#ff8080;stroke:#d35f5f;stroke-width:1px;stroke-linecap:butt;stroke-linejoin:miter;stroke-opacity:1"
       d="m 417.90011,946.67484 c 10.17296,2.30651 19.75992,2.39706 28.99138,0 -9.41978,7.86962 -20.89435,6.46808 -28.99138,0 z"
       id="path3009"
       inkscape:connector-curvature="0"
       sodipodi:nodetypes="ccc" />
    <path
       style="fill:#a05a2c;stroke:#784421;stroke-width:1px;stroke-linecap:butt;stroke-linejoin:miter;stroke-opacity:1"
       d="m 439.29009,10.093362 c 3.08997,0.04891 5.91549,-0.5303299 9.01561,-0.5303299 2.72944,0 6.00657,0.1729396 7.6014,1.7677669 0.0884,0.08839 0.44194,-0.08839 0.53033,0 0.46904,0.46904 1.00194,1.738409 1.76776,2.12132 0.3853,0.192646 1.95236,1.936728 1.591,2.298097 -0.40004,0.400032 -5.30017,-2.119751 -5.65686,-2.298096 -1.00311,-0.501558 -2.69039,-0.196147 -3.71231,-0.707107 -0.50682,-0.25341 -1.3967,0.0058 -1.94454,-0.176777 -2.3864,-0.795464 -4.62397,0.353554 -7.6014,0.353554 -0.54902,0 -1.76777,-1.613441 -1.76777,-1.944544 0,-0.300463 0.11785,-0.589256 0.17678,-0.883884 z"
       id="path3876"
       inkscape:connector-curvature="0"
       transform="translate(0,892.36218)"
       sodipodi:nodetypes="cscsscsscssc" />
    <path
       style="fill:#784421;stroke:#000000;stroke-width:1px;stroke-linecap:butt;stroke-linejoin:miter;stroke-opacity:1"
       d="m 436.25,856.39343 c -2.434,0.56226 -4.2277,1.23607 -5.6875,1.9375 -2.28931,0.12978 -4.57668,0.46374 -6.8125,0.96875 -2.55541,-0.33455 -5.10084,-0.37396 -7.65625,0.65625 0.47783,0.42131 1.01182,0.80187 1.5,1.21875 -12.08957,4.80758 -23.08466,12.95206 -26.15625,28.78125 -0.97148,7.82277 -0.25448,18.48613 0.65625,27.25 0.34902,0.0775 0.67708,0.10278 1,0.0625 0.45872,0.54222 1.08146,1.19979 1.125,1.15625 0.0919,-0.0919 0.16486,-1.02619 0.34375,-1.78125 0.72599,-0.51704 1.38384,-1.33141 2,-2.34375 0.18754,0.27574 0.39388,0.51238 0.65625,0.25 0.0706,-0.0706 0.0727,-0.78387 0.0937,-1.59375 0.44105,-0.87705 0.12102,-2.35919 0.53125,-3.375 0.15604,0.44663 0.29489,0.86135 0.40625,0.75 0.14732,-0.14731 -0.14731,-0.72769 0,-0.875 0.0589,-0.0589 0.28487,0.0589 0.34375,0 0.20739,-0.2074 -0.066,-1.21527 0.15625,-1.4375 0.059,-0.059 0.31603,0.059 0.375,0 1.12359,-1.12359 0.71442,-2.73799 0.9375,-4.21875 0.28335,-0.74008 0.55078,-1.45988 0.84375,-2.15625 0.38011,-0.007 0.82619,0.0488 1.03125,-0.15625 0.45138,-0.45137 0.486,-1.69785 0.3125,-2.6875 0.022,-0.0399 0.0404,-0.0856 0.0625,-0.125 0.40211,-0.0976 0.81411,-0.18639 1.21875,-0.28125 0.13546,0.59951 0.0709,1.57088 0.46875,1.96875 0.0655,0.0655 0.76498,0.98502 0.875,0.875 0.34773,-0.34773 -0.2238,-1.8024 0,-2.25 0.14975,-0.2995 0.20445,-0.60951 0.25,-0.9375 1.38461,-0.30873 3.51834,-2.13553 4.9375,-2.40625 0.41948,0.93368 0.78066,1.71875 0.81255,1.71875 0.0355,0 0.32053,-0.9183 0.375,-1 0.18261,-0.27392 0.50364,-0.6565 0.84375,-1.0625 1.42652,-0.24899 2.87565,-2.48425 4.34375,-2.6875 0.34383,0.81351 0.65636,1.5 0.8125,1.5 0.47101,0 1.04386,-0.85542 1.59375,-1.8125 0.88121,-0.10386 1.78942,-2.19595 2.6875,-2.28125 0.2261,0.52479 0.42991,0.96875 0.46875,0.96875 0.23083,0 1.09556,-0.70074 1.8125,-1.15625 0.38353,-0.0289 0.76946,-0.0372 1.15625,-0.0625 0.33763,0.42288 0.98366,1.26634 1.15625,1.09375 0.30001,-0.3 0.56224,-0.73986 0.8125,-1.21875 0.86001,-0.0417 1.74809,-0.0706 2.625,-0.0937 0.19379,0.38657 0.40238,0.68259 0.5625,0.5625 0.18233,-0.13675 0.36692,-0.3507 0.53125,-0.59375 1.13056,-0.0193 2.27724,-0.0133 3.4375,0 0.1743,0.27529 0.33912,0.50424 0.40625,0.59375 0.96664,1.37018 1,1.959 1,0 0,-0.18834 0.0569,-0.37482 0.0937,-0.59375 0.0213,5.1e-4 0.0412,-5.2e-4 0.0625,0 0.0165,-4.60154 0.98314,-2.44878 2.3125,-6 0.003,4.94783 4.0139,12.44211 4.3125,12.09375 -1.85835,-4.96901 -1.8166,-14.51692 -1.8125,-15.78125 0.006,1.79335 0.32296,3.45178 4.46875,8.9375 0.0538,0.0712 0.10111,0.14826 0.15625,0.21875 0.04,0.0485 0.0839,0.10785 0.125,0.125 0.29935,0.37405 0.59932,0.74515 0.9375,1.09375 0.17417,0.0186 0.3564,0.0431 0.53125,0.0625 0.10036,0.6241 0.20679,1.48804 0.375,1.65625 0.38302,0.38302 0.86698,0.67948 1.25,1.0625 0.19418,0.19418 -0.0747,0.53125 0.34375,0.53125 0.42131,0 -0.0563,-1.87582 -0.34375,-3.03125 0.83213,0.10187 1.65214,0.19352 2.5,0.3125 0.30548,0.4348 0.52247,0.99123 0.84375,1.3125 0.25927,0.25927 0.16983,-0.35732 0.1875,-0.375 0.10046,-0.10045 0.57316,-0.30717 0.875,-0.15625 0.47818,0.23909 1.41134,-0.0923 1.9375,-0.1875 0.0206,0.003 0.0419,-0.003 0.0625,0 0.11508,0.0193 0.22838,0.0117 0.34375,0.0312 0.17632,0.20582 0.25796,0.64461 0.65625,0.84375 0.25943,0.12972 0.67531,1.68101 1.125,1.5 0.27805,0.0505 0.56401,0.10389 0.84375,0.15625 0.15964,0.15964 0.23844,0.66437 0.34375,0.875 0.14833,0.29666 1.91297,1.43077 2.28125,1.0625 0.0329,-0.0329 0.64962,-0.6875 0.71875,-0.6875 0.0184,0 0.6757,3.3066 0.875,3.40625 0.45521,0.22758 1.36348,-0.71875 1.5938,-0.71875 0.0299,0 -0.039,0.67975 0,0.71875 0.11785,0.11785 0.41339,0.0696 0.53125,0.1875 0.14731,0.14731 0.0402,0.54019 0.1875,0.6875 0.12248,0.12248 0.59627,0.22127 0.71875,0.34375 0.68778,0.68778 0.74664,6.8404 1.75,7.84375 0.26516,0.26517 -0.26517,1.32859 0,1.59375 0.42239,0.42239 0.73797,0.18149 1.0625,0.34375 0.12241,0.0612 0.21435,0.20007 0.28125,0.34375 0.004,0.009 -0.004,0.0224 0,0.0312 0.0514,0.1682 0.1033,0.33497 0.15625,0.5 0.0729,0.3392 0.14639,0.70396 0.28125,0.90625 0.0297,0.0446 0.0654,0.0796 0.0937,0.125 0.24328,0.67236 0.49504,1.31977 0.78125,1.90625 0.3162,1.02182 0.54347,2.09915 0.875,3.09375 0.057,0.17104 0.85012,1.9375 0.71875,1.9375 -0.023,0 0.53125,-0.52315 0.53125,-0.6875 0,-0.13942 0.16715,-0.65764 0.375,-1.1875 0.92368,0.60981 2.00927,0.86949 3.34375,0.65625 0.48523,-7.4108 1.33325,-17.95822 -0.0625,-27.25 -4.61045,-17.20643 -16.42218,-25.14889 -28.75,-29.4375 0.2782,-0.98297 -0.1866,-0.52462 0.71875,-1.6875 -2.57053,-0.88874 -5.21992,-1.49698 -8.5625,-0.1875 -0.4898,-0.0674 -0.9776,-0.10657 -1.46875,-0.15625 -0.45127,-0.87718 -0.6918,-1.11361 -0.8125,-2.09375 z"
       id="path3816"
       inkscape:connector-curvature="0"
       sodipodi:nodetypes="ccccccccccccccscccsccsccccssccscccsccsccsccscccscccccccccccssccscscccsccccssscccsssccccccccssccccccccc" />
    <path
       style="fill:#ffffff;stroke:#000000;stroke-width:1px;stroke-linecap:butt;stroke-linejoin:miter;stroke-opacity:1"
       d="m 427,916.86218 c -3.80309,-7.54199 -15.52841,-6.78125 -20.5,-0.25 5.11272,7.01889 16.63523,6.69244 20.5,0.25 z"
       id="path3852"
       inkscape:connector-curvature="0"
       sodipodi:nodetypes="ccc" />
    <path
       style="fill:#ffffff;stroke:#000000;stroke-width:1px;stroke-linecap:butt;stroke-linejoin:miter;stroke-opacity:1"
       d="m 438,916.86218 c 3.80309,-7.54199 15.52841,-6.78125 20.5,-0.25 -5.11272,7.01889 -16.63523,6.69244 -20.5,0.25 z"
       id="path3852-0"
       inkscape:connector-curvature="0"
       sodipodi:nodetypes="ccc" />
    <path
       style="fill:#2a7fff;stroke:#000000;stroke-width:1px;stroke-linecap:butt;stroke-linejoin:miter;stroke-opacity:1"
       d="m 417.34911,911.45593 c -0.94557,0.015 -1.90581,0.13899 -2.84375,0.34375 -2.12756,1.06806 -3.59375,3.26969 -3.59375,5.8125 0,1.07197 0.25915,2.07739 0.71875,2.96875 3.78406,1.68384 8.26283,1.53891 11.65625,-0.21875 0.39377,-0.83802 0.625,-1.76279 0.625,-2.75 0,-2.6176 -1.5514,-4.87614 -3.78125,-5.90625 -0.90309,-0.18177 -1.83865,-0.26494 -2.78125,-0.25 z"
       id="path3852-9"
       inkscape:connector-curvature="0" />
    <path
       sodipodi:type="arc"
       style="fill:#000000;fill-opacity:1;fill-rule:nonzero;stroke:#000000;stroke-width:3.4545455;stroke-linejoin:miter;stroke-miterlimit:4;stroke-opacity:1;stroke-dasharray:none;stroke-dashoffset:0"
       id="path3021-8"
       sodipodi:cx="349.75"
       sodipodi:cy="32.25"
       sodipodi:rx="9.5"
       sodipodi:ry="9.5"
       d="m 359.25,32.25 a 9.5,9.5 0 1 1 -19,0 9.5,9.5 0 1 1 19,0 z"
       transform="matrix(0.28947368,0,0,0.28947368,316.19408,908.33916)" />
    <path
       style="fill:none;stroke:#000000;stroke-width:0.99999994px;stroke-linecap:butt;stroke-linejoin:miter;stroke-opacity:1"
       d="m 423.50181,932.84962 c -1.27099,3.26086 1.44566,3.38728 4.09663,3.56533 3.64743,2.84965 7.03197,2.3413 10.27782,0.0614 5.86719,-0.0195 3.67473,-2.15063 3.98232,-3.62676"
       id="path3922"
       inkscape:connector-curvature="0"
       sodipodi:nodetypes="cccc" />
    <path
       style="fill:#2a7fff;stroke:#000000;stroke-width:1px;stroke-linecap:butt;stroke-linejoin:miter;stroke-opacity:1"
       d="m 447.8125,911.45593 c -1.58866,-0.0252 -3.16306,0.20851 -4.59375,0.75 -1.35923,1.19138 -2.21875,2.95677 -2.21875,4.90625 0,1.20172 0.33769,2.31553 0.90625,3.28125 3.17108,1.62733 7.26871,1.82401 10.875,0.46875 0.75677,-1.0626 1.21875,-2.34608 1.21875,-3.75 0,-2.06095 -0.97245,-3.90291 -2.46875,-5.09375 -1.21645,-0.34515 -2.47625,-0.54281 -3.71875,-0.5625 z"
       id="path3852-0-8"
       inkscape:connector-curvature="0" />
    <path
       sodipodi:type="arc"
       style="fill:#000000;fill-opacity:1;fill-rule:nonzero;stroke:#000000;stroke-width:3.4545455;stroke-linejoin:miter;stroke-miterlimit:4;stroke-opacity:1;stroke-dasharray:none;stroke-dashoffset:0"
       id="path3021-8-4"
       sodipodi:cx="349.75"
       sodipodi:cy="32.25"
       sodipodi:rx="9.5"
       sodipodi:ry="9.5"
       d="m 359.25,32.25 a 9.5,9.5 0 1 1 -19,0 9.5,9.5 0 1 1 19,0 z"
       transform="matrix(0.28947368,0,0,0.28947368,346.17841,907.7041)" />
    <path
       style="fill:#a05a2c;stroke:none;filter:url(#filter4009)"
       d="m 403.47487,881.17284 c -0.9194,4.16393 -1.49725,8.66941 -1.75,13.5 1.27651,-3.88574 2.97406,-7.28026 5.25,-10 0.65155,1.74742 1.14087,2.66105 3.5,3.75 0.17746,-2.89568 0.15306,-3.42211 2,-5.25 0.57667,1.73524 1.27409,3.52223 3,5.75 4.89875,-9.73521 12.51104,-15.4001 20,-21.25 -6.58333,-0.16741 -13.16667,0.36067 -19.75,3.5 -1.32826,1.79294 -2.48747,3.62813 -2.5,5.75 -1.43875,-0.51305 -2.05047,-1.57746 -2.5,-2.75 -2.25,-0.17069 -5,3.17606 -7.25,7 z"
       id="path3999"
       inkscape:connector-curvature="0"
       sodipodi:nodetypes="ccccccccccc" />
    <path
       style="fill:#e6e6e6;stroke:#000000;stroke-width:1px;stroke-linecap:butt;stroke-linejoin:miter;stroke-opacity:1"
       d="m 47.729708,1024.5528 c 0.434567,-4.4674 1.378213,-6.6438 2.474874,-8.1317 19.798989,4.6157 39.597979,3.3853 59.396968,-1.4143 1.56464,2.3245 2.5959,5.1823 2.82843,8.8389 l -1.06066,10.9601 -63.993166,0.3536 z"
       id="path4147"
       inkscape:connector-curvature="0"
       sodipodi:nodetypes="ccccccc" />
    <path
       style="fill:#f2f2f2;stroke:#000000;stroke-width:1px;stroke-linecap:butt;stroke-linejoin:miter;stroke-opacity:1"
       d="m -4.2426407,1045.3015 c 11.5116337,-7.0489 27.6424107,-10.7576 52.3259017,-19.6881 21.331055,7.0512 42.662111,6.972 63.993169,-1.0607 23.0501,7.9204 44.9408,12.4205 58.68986,24.9914 l 1.76777,37.5876 -183.140662,-2.8284 z"
       id="path4145"
       inkscape:connector-curvature="0"
       sodipodi:nodetypes="ccccccc" />
    <rect
       style="fill:none;fill-opacity:1;fill-rule:nonzero;stroke:#000000;stroke-width:2;stroke-linejoin:miter;stroke-miterlimit:4;stroke-opacity:1;stroke-dasharray:none;stroke-dashoffset:0"
       id="rect2985-9"
       width="158"
       height="158"
       x="1"
       y="893.36218" />
    <g
       id="g4251"
       transform="translate(-181,-198)">
      <path
         sodipodi:nodetypes="ccc"
         inkscape:connector-curvature="0"
         id="path3791-4-3"
         d="m 225.4496,1177.4307 c -10.32775,7.1252 -22.81265,-42.7649 2.12947,-29.9713 z"
         style="fill:#ffccaa;stroke:#000000;stroke-width:0.99999994px;stroke-linecap:butt;stroke-linejoin:miter;stroke-opacity:1" />
      <path
         sodipodi:nodetypes="cc"
         inkscape:connector-curvature="0"
         id="path3979-5-1"
         d="m 224.96458,1150.7653 c -6.64119,-3.1639 -11.03496,-1.7207 -8.3085,14.3189"
         style="fill:none;stroke:#000000;stroke-width:1px;stroke-linecap:butt;stroke-linejoin:miter;stroke-opacity:1" />
      <path
         sodipodi:nodetypes="ccc"
         inkscape:connector-curvature="0"
         id="path3791-2"
         d="m 298.5504,1177.4307 c 10.32775,7.1252 22.81265,-42.7649 -2.12947,-29.9713 z"
         style="fill:#ffccaa;stroke:#000000;stroke-width:0.99999994px;stroke-linecap:butt;stroke-linejoin:miter;stroke-opacity:1" />
      <path
         sodipodi:nodetypes="cc"
         inkscape:connector-curvature="0"
         id="path3979-3"
         d="m 298.7085,1150.7653 c 6.64119,-3.1639 11.03496,-1.7207 8.3085,14.3189"
         style="fill:none;stroke:#000000;stroke-width:1px;stroke-linecap:butt;stroke-linejoin:miter;stroke-opacity:1" />
      <path
         sodipodi:nodetypes="scccscccs"
         inkscape:connector-curvature="0"
         id="path2985-3"
         d="m 261.98246,1106.8132 c -23.19596,0 -45,10.8041 -42,46 0.63927,10.1506 2.4391,21.4001 4.40625,30.4688 5.07686,15.1621 12.70083,21.4027 25.39153,25.6031 3.53393,1.1441 4.15581,3.4948 11.52676,3.4948 6.61997,0 8.98583,-3.0484 12.50573,-4.3744 12.43399,-4.899 20.86446,-11.9093 25.57598,-24.7235 2.18532,-6.7585 5.13152,-21.3853 4.59375,-30.4688 2,-32.9459 -18.80404,-46 -42,-46 z"
         style="fill:#ffccaa;fill-opacity:1;fill-rule:nonzero;stroke:#000000" />
      <path
         inkscape:connector-curvature="0"
         id="path3872-41"
         d="m 233.23246,1150.0632 c 2.42641,-1.8547 6.17794,-2.232 9.25,-3 2.66787,-0.6669 9.09765,-0.4023 10.5,1 0.31416,0.3142 -0.8986,1.1486 -1,1.25 -0.5,0.5 -2.5,-0.5 -3,0 -2.91476,2.9148 -11.36775,-1.0029 -15.75,0.75 z"
         style="fill:#a05a2c;stroke:#784421;stroke-width:1px;stroke-linecap:butt;stroke-linejoin:miter;stroke-opacity:1" />
      <path
         sodipodi:nodetypes="cccc"
         inkscape:connector-curvature="0"
         id="path3017-1"
         d="m 245.98246,1190.5632 c 4.64258,-1.3811 7.01362,-2.1452 14.64645,-1.7322 8.38622,-0.5264 10.49941,0.2275 15.32322,1.4822 -10.16667,2.205 -19.803,2.2877 -29.96967,0.25 z"
         style="fill:#ff8080;stroke:#d35f5f;stroke-width:1px;stroke-linecap:butt;stroke-linejoin:miter;stroke-opacity:1" />
      <path
         sodipodi:nodetypes="ccc"
         inkscape:connector-curvature="0"
         id="path3009-38"
         d="m 246.38257,1190.6259 c 10.17296,2.3065 19.75992,2.397 28.99138,0 -9.41978,7.8696 -20.89435,6.4681 -28.99138,0 z"
         style="fill:#ff8080;stroke:#d35f5f;stroke-width:1px;stroke-linecap:butt;stroke-linejoin:miter;stroke-opacity:1" />
      <path
         sodipodi:nodetypes="cscsscsscssc"
         inkscape:connector-curvature="0"
         id="path3876-7"
         d="m 267.77255,1146.4066 c 3.08997,0.049 5.91549,-0.5303 9.01561,-0.5303 2.72944,0 6.00657,0.1729 7.6014,1.7677 0.0884,0.088 0.44194,-0.088 0.53033,0 0.46904,0.4691 1.00194,1.7384 1.76776,2.1213 0.3853,0.1927 1.95236,1.9368 1.591,2.2981 -0.40004,0.4001 -5.30017,-2.1197 -5.65686,-2.2981 -1.00311,-0.5015 -2.69039,-0.1961 -3.71231,-0.7071 -0.50682,-0.2534 -1.3967,0.01 -1.94454,-0.1767 -2.3864,-0.7955 -4.62397,0.3535 -7.6014,0.3535 -0.54902,0 -1.76777,-1.6134 -1.76777,-1.9445 0,-0.3005 0.11785,-0.5893 0.17678,-0.8839 z"
         style="fill:#a05a2c;stroke:#784421;stroke-width:1px;stroke-linecap:butt;stroke-linejoin:miter;stroke-opacity:1" />
      <path
         sodipodi:nodetypes="ccccccccccccccscccsccsccccssccscccsccsccsccscccscccccccccccssccscscccsccccssscccsssccccccccssccccccccc"
         inkscape:connector-curvature="0"
         id="path3816-4"
         d="m 264.73246,1100.3445 c -2.434,0.5622 -4.2277,1.236 -5.6875,1.9375 -2.28931,0.1298 -4.57668,0.4637 -6.8125,0.9687 -2.55541,-0.3345 -5.10084,-0.3739 -7.65625,0.6563 0.47783,0.4213 1.01182,0.8018 1.5,1.2187 -12.08957,4.8076 -23.08466,12.9521 -26.15625,28.7813 -0.97148,7.8227 -0.25448,18.4861 0.65625,27.25 0.34902,0.078 0.67708,0.1028 1,0.062 0.45872,0.5422 1.08146,1.1998 1.125,1.1562 0.0919,-0.092 0.16486,-1.0262 0.34375,-1.7812 0.72599,-0.5171 1.38384,-1.3314 2,-2.3438 0.18754,0.2758 0.39388,0.5124 0.65625,0.25 0.0706,-0.071 0.0727,-0.7838 0.0937,-1.5937 0.44105,-0.8771 0.12102,-2.3592 0.53125,-3.375 0.15604,0.4466 0.29489,0.8613 0.40625,0.75 0.14732,-0.1473 -0.14731,-0.7277 0,-0.875 0.0589,-0.059 0.28487,0.059 0.34375,0 0.20739,-0.2074 -0.066,-1.2153 0.15625,-1.4375 0.059,-0.059 0.31603,0.059 0.375,0 1.12359,-1.1236 0.71442,-2.738 0.9375,-4.2188 0.28335,-0.7401 0.55078,-1.4599 0.84375,-2.1562 0.38011,-0.01 0.82619,0.049 1.03125,-0.1563 0.45138,-0.4513 0.486,-1.6978 0.3125,-2.6875 0.022,-0.04 0.0404,-0.086 0.0625,-0.125 0.40211,-0.098 0.81411,-0.1864 1.21875,-0.2812 0.13546,0.5995 0.0709,1.5709 0.46875,1.9687 0.0655,0.065 0.76498,0.985 0.875,0.875 0.34773,-0.3477 -0.2238,-1.8024 0,-2.25 0.14975,-0.2995 0.20445,-0.6095 0.25,-0.9375 1.38461,-0.3087 3.51834,-2.1355 4.9375,-2.4062 0.41948,0.9337 0.78066,1.7187 0.81255,1.7187 0.0355,0 0.32053,-0.9183 0.375,-1 0.18261,-0.2739 0.50364,-0.6565 0.84375,-1.0625 1.42652,-0.249 2.87565,-2.4842 4.34375,-2.6875 0.34383,0.8135 0.65636,1.5 0.8125,1.5 0.47101,0 1.04386,-0.8554 1.59375,-1.8125 0.88121,-0.1038 1.78942,-2.1959 2.6875,-2.2812 0.2261,0.5248 0.42991,0.9687 0.46875,0.9687 0.23083,0 1.09556,-0.7007 1.8125,-1.1562 0.38353,-0.029 0.76946,-0.037 1.15625,-0.062 0.33763,0.4229 0.98366,1.2663 1.15625,1.0937 0.30001,-0.3 0.56224,-0.7398 0.8125,-1.2187 0.86001,-0.042 1.74809,-0.071 2.625,-0.094 0.19379,0.3865 0.40238,0.6826 0.5625,0.5625 0.18233,-0.1368 0.36692,-0.3507 0.53125,-0.5938 1.13056,-0.019 2.27724,-0.013 3.4375,0 0.1743,0.2753 0.33912,0.5043 0.40625,0.5938 0.96664,1.3702 1,1.959 1,0 0,-0.1884 0.0569,-0.3748 0.0937,-0.5938 0.0213,5e-4 0.0412,-5e-4 0.0625,0 0.0165,-4.6015 0.98314,-2.4488 2.3125,-6 0.003,4.9479 4.0139,12.4421 4.3125,12.0938 -1.85835,-4.969 -1.8166,-14.5169 -1.8125,-15.7813 0.006,1.7934 0.32296,3.4518 4.46875,8.9375 0.0538,0.071 0.10111,0.1483 0.15625,0.2188 0.04,0.048 0.0839,0.1078 0.125,0.125 0.29935,0.374 0.59932,0.7451 0.9375,1.0937 0.17417,0.019 0.3564,0.043 0.53125,0.062 0.10036,0.6241 0.20679,1.4881 0.375,1.6563 0.38302,0.383 0.86698,0.6794 1.25,1.0625 0.19418,0.1942 -0.0747,0.5312 0.34375,0.5312 0.42131,0 -0.0563,-1.8758 -0.34375,-3.0312 0.83213,0.1018 1.65214,0.1935 2.5,0.3125 0.30548,0.4348 0.52247,0.9912 0.84375,1.3125 0.25927,0.2592 0.16983,-0.3573 0.1875,-0.375 0.10046,-0.1005 0.57316,-0.3072 0.875,-0.1563 0.47818,0.2391 1.41134,-0.092 1.9375,-0.1875 0.0206,0 0.0419,0 0.0625,0 0.11508,0.019 0.22838,0.012 0.34375,0.031 0.17632,0.2058 0.25796,0.6446 0.65625,0.8438 0.25943,0.1297 0.67531,1.681 1.125,1.5 0.27805,0.051 0.56401,0.1039 0.84375,0.1562 0.15964,0.1597 0.23844,0.6644 0.34375,0.875 0.14833,0.2967 1.91297,1.4308 2.28125,1.0625 0.0329,-0.033 0.64962,-0.6875 0.71875,-0.6875 0.0184,0 0.6757,3.3066 0.875,3.4063 0.45521,0.2276 1.36348,-0.7188 1.5938,-0.7188 0.0299,0 -0.039,0.6798 0,0.7188 0.11785,0.1178 0.41339,0.07 0.53125,0.1875 0.14731,0.1473 0.0402,0.5402 0.1875,0.6875 0.12248,0.1225 0.59627,0.2212 0.71875,0.3437 0.68778,0.6878 0.74664,6.8404 1.75,7.8438 0.26516,0.2651 -0.26517,1.3286 0,1.5937 0.42239,0.4224 0.73797,0.1815 1.0625,0.3438 0.12241,0.061 0.21435,0.2 0.28125,0.3437 0.004,0.01 -0.004,0.022 0,0.031 0.0514,0.1682 0.1033,0.335 0.15625,0.5 0.0729,0.3392 0.14639,0.704 0.28125,0.9063 0.0297,0.045 0.0654,0.08 0.0937,0.125 0.24328,0.6723 0.49504,1.3197 0.78125,1.9062 0.3162,1.0218 0.54347,2.0992 0.875,3.0938 0.057,0.171 0.85012,1.9375 0.71875,1.9375 -0.023,0 0.53125,-0.5232 0.53125,-0.6875 0,-0.1394 0.16715,-0.6577 0.375,-1.1875 0.92368,0.6098 2.00927,0.8695 3.34375,0.6562 0.48523,-7.4108 1.33325,-17.9582 -0.0625,-27.25 -4.61045,-17.2064 -16.42218,-25.1489 -28.75,-29.4375 0.2782,-0.983 -0.1866,-0.5246 0.71875,-1.6875 -2.57053,-0.8887 -5.21992,-1.497 -8.5625,-0.1875 -0.4898,-0.067 -0.9776,-0.1065 -1.46875,-0.1562 -0.45127,-0.8772 -0.6918,-1.1136 -0.8125,-2.0938 z"
         style="fill:#784421;stroke:#000000;stroke-width:1px;stroke-linecap:butt;stroke-linejoin:miter;stroke-opacity:1" />
      <path
         sodipodi:nodetypes="ccc"
         inkscape:connector-curvature="0"
         id="path3852-2"
         d="m 255.48246,1160.8132 c -3.80309,-7.542 -15.52841,-6.7812 -20.5,-0.25 5.11272,7.0189 16.63523,6.6925 20.5,0.25 z"
         style="fill:#ffffff;stroke:#000000;stroke-width:1px;stroke-linecap:butt;stroke-linejoin:miter;stroke-opacity:1" />
      <path
         sodipodi:nodetypes="ccc"
         inkscape:connector-curvature="0"
         id="path3852-0-7"
         d="m 266.48246,1160.8132 c 3.80309,-7.542 15.52841,-6.7812 20.5,-0.25 -5.11272,7.0189 -16.63523,6.6925 -20.5,0.25 z"
         style="fill:#ffffff;stroke:#000000;stroke-width:1px;stroke-linecap:butt;stroke-linejoin:miter;stroke-opacity:1" />
      <path
         inkscape:connector-curvature="0"
         id="path3852-9-7"
         d="m 245.83157,1155.407 c -0.94557,0.015 -1.90581,0.139 -2.84375,0.3437 -2.12756,1.0681 -3.59375,3.2697 -3.59375,5.8125 0,1.072 0.25915,2.0774 0.71875,2.9688 3.78406,1.6838 8.26283,1.5389 11.65625,-0.2188 0.39377,-0.838 0.625,-1.7628 0.625,-2.75 0,-2.6176 -1.5514,-4.8761 -3.78125,-5.9062 -0.90309,-0.1818 -1.83865,-0.265 -2.78125,-0.25 z"
         style="fill:#2a7fff;stroke:#000000;stroke-width:1px;stroke-linecap:butt;stroke-linejoin:miter;stroke-opacity:1" />
      <path
         transform="matrix(0.28947368,0,0,0.28947368,144.67654,1152.2902)"
         d="m 359.25,32.25 c 0,5.246705 -4.25329,9.5 -9.5,9.5 -5.24671,0 -9.5,-4.253295 -9.5,-9.5 0,-5.246705 4.25329,-9.5 9.5,-9.5 5.24671,0 9.5,4.253295 9.5,9.5 z"
         sodipodi:ry="9.5"
         sodipodi:rx="9.5"
         sodipodi:cy="32.25"
         sodipodi:cx="349.75"
         id="path3021-8-9"
         style="fill:#000000;fill-opacity:1;fill-rule:nonzero;stroke:#000000;stroke-width:3.4545455;stroke-linejoin:miter;stroke-miterlimit:4;stroke-opacity:1;stroke-dasharray:none;stroke-dashoffset:0"
         sodipodi:type="arc" />
      <path
         sodipodi:nodetypes="cccc"
         inkscape:connector-curvature="0"
         id="path3922-3"
         d="m 251.98427,1176.8007 c -1.27099,3.2608 1.44566,3.3872 4.09663,3.5653 3.64743,2.8496 7.03197,2.3413 10.27782,0.061 5.86719,-0.02 3.67473,-2.1506 3.98232,-3.6268"
         style="fill:none;stroke:#000000;stroke-width:0.99999994px;stroke-linecap:butt;stroke-linejoin:miter;stroke-opacity:1" />
      <path
         inkscape:connector-curvature="0"
         id="path3852-0-8-1"
         d="m 276.29496,1155.407 c -1.58866,-0.025 -3.16306,0.2085 -4.59375,0.75 -1.35923,1.1914 -2.21875,2.9567 -2.21875,4.9062 0,1.2017 0.33769,2.3155 0.90625,3.2813 3.17108,1.6273 7.26871,1.824 10.875,0.4687 0.75677,-1.0626 1.21875,-2.3461 1.21875,-3.75 0,-2.0609 -0.97245,-3.9029 -2.46875,-5.0937 -1.21645,-0.3452 -2.47625,-0.5428 -3.71875,-0.5625 z"
         style="fill:#2a7fff;stroke:#000000;stroke-width:1px;stroke-linecap:butt;stroke-linejoin:miter;stroke-opacity:1" />
      <path
         transform="matrix(0.28947368,0,0,0.28947368,174.66087,1151.6551)"
         d="m 359.25,32.25 c 0,5.246705 -4.25329,9.5 -9.5,9.5 -5.24671,0 -9.5,-4.253295 -9.5,-9.5 0,-5.246705 4.25329,-9.5 9.5,-9.5 5.24671,0 9.5,4.253295 9.5,9.5 z"
         sodipodi:ry="9.5"
         sodipodi:rx="9.5"
         sodipodi:cy="32.25"
         sodipodi:cx="349.75"
         id="path3021-8-4-9"
         style="fill:#000000;fill-opacity:1;fill-rule:nonzero;stroke:#000000;stroke-width:3.4545455;stroke-linejoin:miter;stroke-miterlimit:4;stroke-opacity:1;stroke-dasharray:none;stroke-dashoffset:0"
         sodipodi:type="arc" />
      <path
         sodipodi:nodetypes="ccccccccccc"
         inkscape:connector-curvature="0"
         id="path3999-86"
         d="m 231.95733,1125.1239 c -0.9194,4.1639 -1.49725,8.6694 -1.75,13.5 1.27651,-3.8858 2.97406,-7.2803 5.25,-10 0.65155,1.7474 1.14087,2.661 3.5,3.75 0.17746,-2.8957 0.15306,-3.4221 2,-5.25 0.57667,1.7352 1.27409,3.5222 3,5.75 4.89875,-9.7352 12.51104,-15.4001 20,-21.25 -6.58333,-0.1674 -13.16667,0.3607 -19.75,3.5 -1.32826,1.7929 -2.48747,3.6281 -2.5,5.75 -1.43875,-0.5131 -2.05047,-1.5775 -2.5,-2.75 -2.25,-0.1707 -5,3.176 -7.25,7 z"
         style="fill:#a05a2c;stroke:none;filter:url(#filter4009-2)" />
    </g>
  </g>
</svg>
