<?xml version="1.0" encoding="UTF-8" standalone="no"?>
<!-- Created with Inkscape (http://www.inkscape.org/) -->

<svg
   xmlns:dc="http://purl.org/dc/elements/1.1/"
   xmlns:cc="http://creativecommons.org/ns#"
   xmlns:rdf="http://www.w3.org/1999/02/22-rdf-syntax-ns#"
   xmlns:svg="http://www.w3.org/2000/svg"
   xmlns="http://www.w3.org/2000/svg"
   xmlns:sodipodi="http://sodipodi.sourceforge.net/DTD/sodipodi-0.dtd"
   xmlns:inkscape="http://www.inkscape.org/namespaces/inkscape"
   width="160"
   height="160"
   id="svg2"
   version="1.1"
   inkscape:version="0.48.5 r10040"
   sodipodi:docname="meanicon.svg"
   inkscape:export-filename="C:\Users\Nick\Desktop\HTML5 Games\Childhood\img\meanicon.png"
   inkscape:export-xdpi="90"
   inkscape:export-ydpi="90">
  <defs
     id="defs4" />
  <sodipodi:namedview
     id="base"
     pagecolor="#ffffff"
     bordercolor="#666666"
     borderopacity="1.0"
     inkscape:pageopacity="0.0"
     inkscape:pageshadow="2"
     inkscape:zoom="1"
     inkscape:cx="226.66668"
     inkscape:cy="-0.8705215"
     inkscape:document-units="px"
     inkscape:current-layer="layer1"
     showgrid="false"
     fit-margin-top="0"
     fit-margin-left="0"
     fit-margin-right="0"
     fit-margin-bottom="0"
     inkscape:window-width="1920"
     inkscape:window-height="1018"
     inkscape:window-x="-8"
     inkscape:window-y="-8"
     inkscape:window-maximized="1" />
  <metadata
     id="metadata7">
    <rdf:RDF>
      <cc:Work
         rdf:about="">
        <dc:format>image/svg+xml</dc:format>
        <dc:type
           rdf:resource="http://purl.org/dc/dcmitype/StillImage" />
        <dc:title />
      </cc:Work>
    </rdf:RDF>
  </metadata>
  <g
     inkscape:label="Layer 1"
     inkscape:groupmode="layer"
     id="layer1"
     transform="translate(-5.9604645e-8,-892.36218)">
    <path
       style="fill:#deaa87;stroke:#000000;stroke-width:1px;stroke-linecap:butt;stroke-linejoin:miter;stroke-opacity:1"
       d="m 331.22679,918.61218 c -21.37348,-4.78328 -8.06292,36.62682 1.25,31.25 z"
       id="path3878-8"
       inkscape:connector-curvature="0"
       sodipodi:nodetypes="ccc" />
    <path
       style="fill:none;stroke:#000000;stroke-width:1px;stroke-linecap:butt;stroke-linejoin:miter;stroke-opacity:1"
       d="m 330.5,30 c -10.3413,-0.429921 -9.07962,8.325854 -3.5,20.5"
       id="path3920"
       inkscape:connector-curvature="0"
       transform="translate(5.9604645e-8,892.36218)"
       sodipodi:nodetypes="cc" />
    <path
       style="fill:#deaa87;stroke:#000000;stroke-width:1px;stroke-linecap:butt;stroke-linejoin:miter;stroke-opacity:1"
       d="m 410.5,918.61218 c 21.37348,-4.78328 8.06292,36.62682 -1.25,31.25 z"
       id="path3878"
       inkscape:connector-curvature="0"
       sodipodi:nodetypes="ccc" />
    <path
       style="fill:none;stroke:#000000;stroke-width:1px;stroke-linecap:butt;stroke-linejoin:miter;stroke-opacity:1"
       d="m 411,921.86218 c 12.86814,1.33523 7.09675,11.36302 4,21"
       id="path3918"
       inkscape:connector-curvature="0"
       sodipodi:nodetypes="cc" />
    <rect
       style="fill:#b3b3b3;stroke:#0000ff;stroke-width:1.99999988000000010;stroke-linejoin:miter;stroke-miterlimit:4;stroke-opacity:1;stroke-dasharray:none;stroke-dashoffset:0"
       id="rect2985"
       width="158"
       height="158"
       x="1"
       y="893.36218" />
    <path
       style="fill:#217844;stroke:#000000;stroke-width:1px;stroke-linecap:butt;stroke-linejoin:miter;stroke-opacity:1"
       d="m 46.75,1018.8622 c -22.350905,9.4519 -52.7615439,16.8013 -54.9999999,31.5 l 0,18.75 185.9999999,0 0,-19.0074 c -18.13344,-13.1756 -42.60116,-21.2838 -65.06802,-30.9926 z"
       id="path4049"
       inkscape:connector-curvature="0"
       sodipodi:nodetypes="ccccccc" />
    <path
       style="fill:#217867;stroke:#000000;stroke-width:1px;stroke-linecap:butt;stroke-linejoin:miter;stroke-opacity:1"
       d="m 69.75,1033.3622 26.5,0 -4,44.5 -18.75,0 z"
       id="path4047"
       inkscape:connector-curvature="0"
       sodipodi:nodetypes="ccccc" />
    <path
       style="fill:#deaa87;stroke:#000000;stroke-width:1px;stroke-linecap:butt;stroke-linejoin:miter;stroke-opacity:1"
       d="m 60.5,991.86218 43.5,0 3.5,36.50002 c -16.430291,6.9531 -33.838289,5.253 -52.146447,0 z"
       id="path4041"
       inkscape:connector-curvature="0"
       sodipodi:nodetypes="ccccc" />
    <path
       style="fill:#1a1a1a;stroke:#000000;stroke-width:1px;stroke-linecap:butt;stroke-linejoin:miter;stroke-opacity:1"
       d="m 411.69482,929.97832 -0.58454,11.38388 2.95041,-2.71045 0.38969,-7.04716 z"
       id="path3932"
       inkscape:connector-curvature="0"
       sodipodi:nodetypes="ccccc" />
    <path
       style="fill:#deaa87;fill-opacity:1;fill-rule:nonzero;stroke:#000000;stroke-width:1.00000012;stroke-linejoin:miter;stroke-miterlimit:4;stroke-opacity:1;stroke-dasharray:none;stroke-dashoffset:0"
       d="m 370.9999,885.78598 c -23.19602,0 -42.0001,18.80408 -42.0001,42.0001 -0.0386,3.48257 0.45587,7.13018 1.3125,10.50002 0.01,0.038 0.0186,0.0762 0.0285,0.11414 2.25766,21.6809 10.86206,45.8237 29.95931,49.87511 7.13317,1.30335 14.26634,1.12883 21.39951,0 20.65333,-5.04995 23.47764,-23.36548 28.87507,-44.6251 C 412.11716,937.84167 413,933.4006 413,927.78608 c 0,-23.19602 -18.80408,-42.0001 -42.0001,-42.0001 z"
       id="path3759"
       inkscape:connector-curvature="0"
       sodipodi:nodetypes="sccccccss" />
    <path
       style="fill:#d35f5f;stroke:#a02c2c;stroke-width:1px;stroke-linecap:butt;stroke-linejoin:miter;stroke-opacity:1"
       d="m 358.85669,963.4435 c 3.66181,-2.05397 6.59006,-4.59518 12.12437,-3.65165 5.54788,-1.07663 9.39397,0.7336 12.62437,3.82843 -8.24958,2.25899 -16.49916,1.79889 -24.74874,-0.17678 z"
       id="path3766"
       inkscape:connector-curvature="0"
       sodipodi:nodetypes="cccc" />
    <path
       style="fill:#d35f5f;stroke:#a02c2c;stroke-width:1px;stroke-linecap:butt;stroke-linejoin:miter;stroke-opacity:1"
       d="m 358.74578,963.97383 c 8.12466,-1.33745 16.61243,-1.43009 25.03643,0 -5.2468,5.24681 -19.95135,5.08508 -25.03643,0 z"
       id="path3764"
       inkscape:connector-curvature="0"
       sodipodi:nodetypes="ccc" />
    <path
       style="fill:none;stroke:#000000;stroke-width:1px;stroke-linecap:butt;stroke-linejoin:miter;stroke-opacity:1"
       d="m 362,947.61218 c -1.4653,3.23712 0.0573,4.34 3.25,4.25 4.83332,2.67025 8.31424,1.59701 11.5,0 4.7261,-0.19497 3.65683,-2.20099 3.25,-4"
       id="path3768"
       inkscape:connector-curvature="0"
       sodipodi:nodetypes="cccc" />
    <path
       style="fill:#ffffff;stroke:#000000;stroke-width:1px;stroke-linecap:butt;stroke-linejoin:miter;stroke-opacity:1"
       d="m 344.25001,930.05063 c 6.2302,-3.79937 13.08315,-4.15207 20.75,0 -3.23172,6.14435 -15.5084,6.01322 -20.75,0 z"
       id="path3770"
       inkscape:connector-curvature="0"
       sodipodi:nodetypes="ccc" />
    <path
       style="fill:#ffffff;stroke:#000000;stroke-width:1px;stroke-linecap:butt;stroke-linejoin:miter;stroke-opacity:1"
       d="m 397.00001,930.05063 c -6.2302,-3.79937 -13.08315,-4.15207 -20.75,0 3.23172,6.14435 15.5084,6.01322 20.75,0 z"
       id="path3770-1"
       inkscape:connector-curvature="0"
       sodipodi:nodetypes="ccc" />
    <path
       style="fill:#784421;stroke:#000000;stroke-width:1px;stroke-linecap:butt;stroke-linejoin:miter;stroke-opacity:1"
       d="m 331.10356,52.75 c -0.53143,23.436688 9.89242,33.060377 29.64644,52.25 6.9717,-2.13524 13.69399,-2.52461 20,0 24.50799,-15.703353 29.5568,-30.745358 29.75,-53.75 -15.34832,14.649207 -8.77515,25.243781 -33.25,30.25 l -13.5,0 C 344.89731,76.703588 345.13758,63.381831 331.10356,52.75 z"
       id="path3790"
       inkscape:connector-curvature="0"
       transform="translate(5.9604645e-8,892.36218)"
       sodipodi:nodetypes="ccccccc" />
    <path
       style="fill:#668000;stroke:#000000;stroke-width:1px;stroke-linecap:butt;stroke-linejoin:miter;stroke-opacity:1"
       d="m 387.23706,927.01843 c -1.76391,-0.0225 -3.57653,0.23534 -5.4375,0.75 -0.68626,0.91763 -1.09375,2.04724 -1.09375,3.28125 0,1.06644 0.28714,2.06326 0.8125,2.90625 0.003,0.005 0.0282,-0.005 0.0312,0 2.84519,0.87179 6.29675,0.80521 9.40625,-0.15625 0.47173,-0.81134 0.75,-1.74387 0.75,-2.75 0,-1.43968 -0.56338,-2.7384 -1.46875,-3.71875 -0.98355,-0.18127 -1.98604,-0.29954 -3,-0.3125 z"
       id="path3770-1-7"
       inkscape:connector-curvature="0" />
    <path
       style="fill:#668000;stroke:#000000;stroke-width:1px;stroke-linecap:butt;stroke-linejoin:miter;stroke-opacity:1"
       d="m 354.05831,927.06262 c 1.76391,-0.0225 3.57653,0.23534 5.4375,0.75 0.68626,0.91763 1.09375,2.04724 1.09375,3.28125 0,1.06644 -0.28714,2.06326 -0.8125,2.90625 -0.003,0.005 -0.0282,-0.005 -0.0312,0 -2.84519,0.87179 -6.29675,0.80521 -9.40625,-0.15625 -0.47173,-0.81134 -0.75,-1.74387 -0.75,-2.75 0,-1.43968 0.56338,-2.7384 1.46875,-3.71875 0.98355,-0.18127 1.98604,-0.29954 3,-0.3125 z"
       id="path3770-1-7-0"
       inkscape:connector-curvature="0" />
    <path
       sodipodi:type="arc"
       style="fill:#000000;fill-opacity:1;fill-rule:nonzero;stroke:#000000;stroke-width:1.20000005;stroke-linejoin:miter;stroke-miterlimit:4;stroke-opacity:1;stroke-dasharray:none;stroke-dashoffset:0"
       id="path3849-9"
       sodipodi:cx="462.6246"
       sodipodi:cy="63.126369"
       sodipodi:rx="2.1213202"
       sodipodi:ry="2.1213202"
       d="m 464.74592,63.126369 c 0,1.171573 -0.94974,2.121321 -2.12132,2.121321 -1.17157,0 -2.12132,-0.949748 -2.12132,-2.121321 0,-1.171572 0.94975,-2.12132 2.12132,-2.12132 1.17158,0 2.12132,0.949748 2.12132,2.12132 z"
       transform="matrix(0.83333333,0,0,0.83333333,0.73657861,878.49878)" />
    <path
       sodipodi:type="arc"
       style="fill:#000000;fill-opacity:1;fill-rule:nonzero;stroke:#000000;stroke-width:1.20000005;stroke-linejoin:miter;stroke-miterlimit:4;stroke-opacity:1;stroke-dasharray:none;stroke-dashoffset:0"
       id="path3849-4"
       sodipodi:cx="462.6246"
       sodipodi:cy="63.126369"
       sodipodi:rx="2.1213202"
       sodipodi:ry="2.1213202"
       d="m 464.74592,63.126369 c 0,1.171573 -0.94974,2.121321 -2.12132,2.121321 -1.17157,0 -2.12132,-0.949748 -2.12132,-2.121321 0,-1.171572 0.94975,-2.12132 2.12132,-2.12132 1.17158,0 2.12132,0.949748 2.12132,2.12132 z"
       transform="matrix(0.83333333,0,0,0.83333333,-30.43862,878.47734)" />
    <path
       style="fill:#502d16;stroke:#000000;stroke-width:1px;stroke-linecap:butt;stroke-linejoin:miter;stroke-opacity:1"
       d="m 377.125,921.73718 c 3.52082,-3.75003 12.78978,-2.00378 19.25,-2.875 -6.52759,2.92898 -12.59802,2.93404 -19.25,2.875 z"
       id="path3898"
       inkscape:connector-curvature="0"
       sodipodi:nodetypes="ccc" />
    <path
       style="fill:#502d16;stroke:#000000;stroke-width:1px;stroke-linecap:butt;stroke-linejoin:miter;stroke-opacity:1"
       d="m 364.375,921.73718 c -3.52082,-3.75003 -12.78978,-2.00378 -19.25,-2.875 6.52759,2.92898 12.59802,2.93404 19.25,2.875 z"
       id="path3898-8"
       inkscape:connector-curvature="0"
       sodipodi:nodetypes="ccc" />
    <path
       style="fill:#217867;stroke:#000000;stroke-width:1px;stroke-linecap:butt;stroke-linejoin:miter;stroke-opacity:1"
       d="m 331.7544,848.3017 c 24.21553,-0.97659 52.03428,-1.29835 78.09977,0.5 -1.23819,-7.56805 -0.56394,-12.97054 -7.74265,-23.08453 -27.75376,-6.12814 -50.72091,-5.17611 -61.51829,10e-6 -10.39209,15.06459 -5.1319,15.04073 -8.83883,22.58452 z"
       id="path3922"
       inkscape:connector-curvature="0"
       sodipodi:nodetypes="ccccc" />
    <path
       style="fill:#217867;stroke:#000000;stroke-width:1px;stroke-linecap:butt;stroke-linejoin:miter;stroke-opacity:1"
       d="m 331.85795,847.94818 c 24.63089,-2.55687 51.244,-3.30194 77.64266,0.60356 -11.14925,10.49711 -72.33453,8.87724 -77.64266,-0.60356 z"
       id="path3924"
       inkscape:connector-curvature="0"
       sodipodi:nodetypes="ccc" />
    <path
       style="fill:none;stroke:#000000;stroke-width:1px;stroke-linecap:butt;stroke-linejoin:miter;stroke-opacity:1"
       d="m 347.40022,834.61672 c -2.88121,0.19991 -4.84325,4.15733 -8.75673,4.38541 1.76106,-2.21516 3.74045,-4.32115 4.22488,-7.17462"
       id="path3926"
       inkscape:connector-curvature="0"
       sodipodi:nodetypes="ccc" />
    <path
       style="fill:none;stroke:#000000;stroke-width:1px;stroke-linecap:butt;stroke-linejoin:miter;stroke-opacity:1"
       d="m 405,835.61218 c -2.62454,-1.89299 -3.32649,-4.33529 -10.25,-5"
       id="path3928"
       inkscape:connector-curvature="0"
       sodipodi:nodetypes="cc" />
    <path
       style="fill:none;stroke:#000000;stroke-width:1px;stroke-linecap:butt;stroke-linejoin:miter;stroke-opacity:1"
       d="m 354.9676,831.49539 c 19.05758,-0.054 16.79323,3.75934 32.52692,3.18198"
       id="path3930"
       inkscape:connector-curvature="0"
       sodipodi:nodetypes="cc" />
    <path
       style="fill:#333333;stroke:#000000;stroke-width:1px;stroke-linecap:butt;stroke-linejoin:miter;stroke-opacity:1"
       d="m 414.33162,938.78316 1.85615,0 2.47488,-27.75394 -1.32583,-0.0884 -2.65165,21.43417 z"
       id="path3934"
       inkscape:connector-curvature="0"
       sodipodi:nodetypes="cccccc" />
    <path
       style="fill:#784421;stroke:#000000;stroke-width:1px;stroke-linecap:butt;stroke-linejoin:miter;stroke-opacity:1"
       d="M 343.75,3.2499998 C 336.98113,6.6766717 330.9815,14.335864 331.25,22.5 c 6.09955,-4.885353 13.0701,-5.851231 20.5,-4.75 -4.68112,-4.545554 -7.96797,-9.2902905 -8,-14.5000002 z"
       id="path3936"
       inkscape:connector-curvature="0"
       transform="translate(5.9604645e-8,892.36218)"
       sodipodi:nodetypes="cccc" />
    <path
       style="fill:#784421;stroke:#000000;stroke-width:1px;stroke-linecap:butt;stroke-linejoin:miter;stroke-opacity:1"
       d="m 400.5,897.61218 c 5.47946,3.05557 9.18084,8.03166 10,15.75 -6.75,-3.34416 -13.5,-2.53042 -20.25,-2 6.16202,-4.58333 7.93119,-9.16667 10.25,-13.75 z"
       id="path3938"
       inkscape:connector-curvature="0"
       sodipodi:nodetypes="cccc" />
    <g
       id="g4098">
      <path
         sodipodi:nodetypes="ccc"
         inkscape:connector-curvature="0"
         id="path3878-8-2"
         d="m 41.3634,938.4003 c -21.37348,-4.7833 -8.06292,36.6268 1.25,31.25 z"
         style="fill:#deaa87;stroke:#000000;stroke-width:1px;stroke-linecap:butt;stroke-linejoin:miter;stroke-opacity:1" />
      <path
         sodipodi:nodetypes="cc"
         inkscape:connector-curvature="0"
         id="path3920-4"
         d="m 40.63661,942.1503 c -10.3413,-0.4299 -9.07962,8.3258 -3.5,20.5"
         style="fill:none;stroke:#000000;stroke-width:1px;stroke-linecap:butt;stroke-linejoin:miter;stroke-opacity:1" />
      <path
         sodipodi:nodetypes="ccc"
         inkscape:connector-curvature="0"
         id="path3878-5"
         d="m 120.63661,938.4003 c 21.37347,-4.7833 8.06292,36.6268 -1.25,31.25 z"
         style="fill:#deaa87;stroke:#000000;stroke-width:1px;stroke-linecap:butt;stroke-linejoin:miter;stroke-opacity:1" />
      <path
         sodipodi:nodetypes="cc"
         inkscape:connector-curvature="0"
         id="path3918-5"
         d="m 121.13661,941.6503 c 12.86813,1.3352 7.09675,11.363 4,21"
         style="fill:none;stroke:#000000;stroke-width:1px;stroke-linecap:butt;stroke-linejoin:miter;stroke-opacity:1" />
      <path
         sodipodi:nodetypes="ccccc"
         inkscape:connector-curvature="0"
         id="path3932-1"
         d="m 121.83143,949.7664 -0.58454,11.3839 2.95041,-2.7105 0.38969,-7.0471 z"
         style="fill:#1a1a1a;stroke:#000000;stroke-width:1px;stroke-linecap:butt;stroke-linejoin:miter;stroke-opacity:1" />
      <path
         sodipodi:nodetypes="sccccccss"
         inkscape:connector-curvature="0"
         id="path3759-7"
         d="m 81.13651,905.5741 c -23.19602,0 -42.0001,18.8041 -42.0001,42.0001 -0.0386,3.4825 0.45587,7.1302 1.3125,10.5 0.01,0.038 0.0186,0.076 0.0285,0.1141 2.25766,21.6809 10.86206,45.8237 29.95931,49.8751 7.13317,1.3034 14.26634,1.1289 21.39951,0 20.65333,-5.0499 23.47764,-23.3654 28.87507,-44.6251 1.54247,-5.8085 2.42531,-10.2496 2.42531,-15.8641 0,-23.196 -18.80408,-42.0001 -42.0001,-42.0001 z"
         style="fill:#deaa87;fill-opacity:1;fill-rule:nonzero;stroke:#000000;stroke-width:1.00000012;stroke-linejoin:miter;stroke-miterlimit:4;stroke-opacity:1;stroke-dasharray:none;stroke-dashoffset:0" />
      <path
         sodipodi:nodetypes="cccc"
         inkscape:connector-curvature="0"
         id="path3766-1"
         d="m 68.9933,983.2316 c 3.66181,-2.054 6.59006,-4.5952 12.12437,-3.6517 5.54788,-1.0766 9.39397,0.7336 12.62437,3.8285 -8.24958,2.259 -16.49916,1.7989 -24.74874,-0.1768 z"
         style="fill:#d35f5f;stroke:#a02c2c;stroke-width:1px;stroke-linecap:butt;stroke-linejoin:miter;stroke-opacity:1" />
      <path
         sodipodi:nodetypes="ccc"
         inkscape:connector-curvature="0"
         id="path3764-1"
         d="m 68.88239,983.7619 c 8.12466,-1.3374 16.61243,-1.4301 25.03643,0 -5.2468,5.2468 -19.95135,5.0851 -25.03643,0 z"
         style="fill:#d35f5f;stroke:#a02c2c;stroke-width:1px;stroke-linecap:butt;stroke-linejoin:miter;stroke-opacity:1" />
      <path
         sodipodi:nodetypes="cccc"
         inkscape:connector-curvature="0"
         id="path3768-5"
         d="m 72.13661,967.4003 c -1.4653,3.2371 0.0573,4.34 3.25,4.25 4.83332,2.6702 8.31424,1.597 11.5,0 4.7261,-0.195 3.65683,-2.201 3.25,-4"
         style="fill:none;stroke:#000000;stroke-width:1px;stroke-linecap:butt;stroke-linejoin:miter;stroke-opacity:1" />
      <path
         sodipodi:nodetypes="ccc"
         inkscape:connector-curvature="0"
         id="path3770-2"
         d="m 54.38662,949.8387 c 6.2302,-3.7993 13.08315,-4.152 20.75,0 -3.23172,6.1444 -15.5084,6.0132 -20.75,0 z"
         style="fill:#ffffff;stroke:#000000;stroke-width:1px;stroke-linecap:butt;stroke-linejoin:miter;stroke-opacity:1" />
      <path
         sodipodi:nodetypes="ccc"
         inkscape:connector-curvature="0"
         id="path3770-1-76"
         d="m 107.13662,949.8387 c -6.2302,-3.7993 -13.08315,-4.152 -20.75,0 3.23172,6.1444 15.5084,6.0132 20.75,0 z"
         style="fill:#ffffff;stroke:#000000;stroke-width:1px;stroke-linecap:butt;stroke-linejoin:miter;stroke-opacity:1" />
      <path
         sodipodi:nodetypes="cccccccccc"
         inkscape:connector-curvature="0"
         id="path3790-1"
         d="m 120.625,963.39343 c -15.34832,14.6492 -8.77515,25.2438 -33.25,30.25 l -2.75,0.25 c -1.01014,1.53247 -2.521109,3.16497 -3.53125,5.3125 -0.970718,-2.64775 -2.435531,-3.98257 -3.40625,-5.3125 l -3.8125,-0.25 c -18.85269,-4.7964 -18.59098,-18.1182 -32.625,-28.75 -0.53143,23.4367 9.87098,33.0604 29.625,52.24997 6.9717,-2.1353 13.69399,-2.5246 20,0 24.50799,-15.7034 29.5568,-30.74537 29.75,-53.74997 z"
         style="fill:#784421;stroke:#000000;stroke-width:1px;stroke-linecap:butt;stroke-linejoin:miter;stroke-opacity:1" />
      <path
         inkscape:connector-curvature="0"
         id="path3770-1-7-4"
         d="m 97.37367,946.8065 c -1.76391,-0.022 -3.57653,0.2354 -5.4375,0.75 -0.68626,0.9177 -1.09375,2.0473 -1.09375,3.2813 0,1.0664 0.28714,2.0632 0.8125,2.9062 0.003,0.01 0.0282,0 0.0312,0 2.84519,0.8718 6.29675,0.8052 9.40625,-0.1562 0.47173,-0.8114 0.75,-1.7439 0.75,-2.75 0,-1.4397 -0.56338,-2.7384 -1.46875,-3.7188 -0.98355,-0.1812 -1.98604,-0.2995 -3,-0.3125 z"
         style="fill:#668000;stroke:#000000;stroke-width:1px;stroke-linecap:butt;stroke-linejoin:miter;stroke-opacity:1" />
      <path
         inkscape:connector-curvature="0"
         id="path3770-1-7-0-2"
         d="m 64.19492,946.8507 c 1.76391,-0.023 3.57653,0.2354 5.4375,0.75 0.68626,0.9176 1.09375,2.0473 1.09375,3.2813 0,1.0664 -0.28714,2.0632 -0.8125,2.9062 -0.003,0.01 -0.0282,0 -0.0312,0 -2.84519,0.8718 -6.29675,0.8052 -9.40625,-0.1562 -0.47173,-0.8114 -0.75,-1.7439 -0.75,-2.75 0,-1.4397 0.56338,-2.7384 1.46875,-3.7188 0.98355,-0.1813 1.98604,-0.2995 3,-0.3125 z"
         style="fill:#668000;stroke:#000000;stroke-width:1px;stroke-linecap:butt;stroke-linejoin:miter;stroke-opacity:1" />
      <path
         transform="matrix(0.83333333,0,0,0.83333333,-289.12682,898.2869)"
         d="m 464.74592,63.126369 c 0,1.171573 -0.94974,2.121321 -2.12132,2.121321 -1.17157,0 -2.12132,-0.949748 -2.12132,-2.121321 0,-1.171572 0.94975,-2.12132 2.12132,-2.12132 1.17158,0 2.12132,0.949748 2.12132,2.12132 z"
         sodipodi:ry="2.1213202"
         sodipodi:rx="2.1213202"
         sodipodi:cy="63.126369"
         sodipodi:cx="462.6246"
         id="path3849-9-3"
         style="fill:#000000;fill-opacity:1;fill-rule:nonzero;stroke:#000000;stroke-width:1.20000005;stroke-linejoin:miter;stroke-miterlimit:4;stroke-opacity:1;stroke-dasharray:none;stroke-dashoffset:0"
         sodipodi:type="arc" />
      <path
         transform="matrix(0.83333333,0,0,0.83333333,-320.30202,898.2654)"
         d="m 464.74592,63.126369 c 0,1.171573 -0.94974,2.121321 -2.12132,2.121321 -1.17157,0 -2.12132,-0.949748 -2.12132,-2.121321 0,-1.171572 0.94975,-2.12132 2.12132,-2.12132 1.17158,0 2.12132,0.949748 2.12132,2.12132 z"
         sodipodi:ry="2.1213202"
         sodipodi:rx="2.1213202"
         sodipodi:cy="63.126369"
         sodipodi:cx="462.6246"
         id="path3849-4-2"
         style="fill:#000000;fill-opacity:1;fill-rule:nonzero;stroke:#000000;stroke-width:1.20000005;stroke-linejoin:miter;stroke-miterlimit:4;stroke-opacity:1;stroke-dasharray:none;stroke-dashoffset:0"
         sodipodi:type="arc" />
      <path
         sodipodi:nodetypes="ccc"
         inkscape:connector-curvature="0"
         id="path3898-2"
         d="m 87.26161,941.5253 c 3.52082,-3.7501 12.78978,-2.0038 19.25,-2.875 -6.52759,2.929 -12.59802,2.934 -19.25,2.875 z"
         style="fill:#502d16;stroke:#000000;stroke-width:1px;stroke-linecap:butt;stroke-linejoin:miter;stroke-opacity:1" />
      <path
         sodipodi:nodetypes="ccc"
         inkscape:connector-curvature="0"
         id="path3898-8-1"
         d="m 74.51161,941.5253 c -3.52082,-3.7501 -12.78978,-2.0038 -19.25,-2.875 6.52759,2.929 12.59802,2.934 19.25,2.875 z"
         style="fill:#502d16;stroke:#000000;stroke-width:1px;stroke-linecap:butt;stroke-linejoin:miter;stroke-opacity:1" />
      <path
         sodipodi:nodetypes="cccccc"
         inkscape:connector-curvature="0"
         id="path3934-6"
         d="m 124.46823,958.5713 1.85615,0 2.47488,-27.754 -1.32583,-0.088 -2.65165,21.4342 z"
         style="fill:#333333;stroke:#000000;stroke-width:1px;stroke-linecap:butt;stroke-linejoin:miter;stroke-opacity:1" />
      <path
         sodipodi:nodetypes="cccc"
         inkscape:connector-curvature="0"
         id="path3936-8"
         d="m 53.88661,915.4003 c -6.76887,3.4266 -12.7685,11.0858 -12.5,19.25 6.09955,-4.8854 13.0701,-5.8513 20.5,-4.75 -4.68112,-4.5456 -7.96797,-9.2903 -8,-14.5 z"
         style="fill:#784421;stroke:#000000;stroke-width:1px;stroke-linecap:butt;stroke-linejoin:miter;stroke-opacity:1" />
      <path
         sodipodi:nodetypes="cccc"
         inkscape:connector-curvature="0"
         id="path3938-5"
         d="m 110.63661,917.4003 c 5.47946,3.0555 9.18084,8.0316 10,15.75 -6.75,-3.3442 -13.5,-2.5304 -20.25,-2 6.16202,-4.5834 7.93119,-9.1667 10.25,-13.75 z"
         style="fill:#784421;stroke:#000000;stroke-width:1px;stroke-linecap:butt;stroke-linejoin:miter;stroke-opacity:1" />
    </g>
    <path
       style="fill:none;stroke:#000000;stroke-width:1px;stroke-linecap:butt;stroke-linejoin:miter;stroke-opacity:1"
       d="m 49,1020.3622 c -20.487131,8.3444 -48.35331111,16.3809 -54.9999999,28.5 l 0,25"
       id="path4051"
       inkscape:connector-curvature="0"
       sodipodi:nodetypes="ccc" />
    <path
       style="fill:#217867;stroke:#000000;stroke-width:1px;stroke-linecap:butt;stroke-linejoin:miter;stroke-opacity:1"
       d="m 57.464989,1009.9462 c -5.891104,1.2007 -9.654863,5.715 -11.563708,8.9068 3.290034,22.3147 8.663993,28.2988 29.79163,41.1764 0.877409,-8.9872 0.689896,-18.4852 5.545942,-26.8094 -15.183176,-3.8889 -22.931071,-14.1398 -23.773864,-23.2738 z"
       id="path4043"
       inkscape:connector-curvature="0"
       sodipodi:nodetypes="ccccc" />
    <path
       style="fill:none;stroke:#000000;stroke-width:1px;stroke-linecap:butt;stroke-linejoin:miter;stroke-opacity:1"
       d="m 114.75,1022.289 c 20.30582,9.3074 40.10194,15.0469 61,28.5 l 0,28.25"
       id="path4053"
       inkscape:connector-curvature="0"
       sodipodi:nodetypes="ccc" />
    <path
       style="fill:#217867;stroke:#000000;stroke-width:1px;stroke-linecap:butt;stroke-linejoin:miter;stroke-opacity:1"
       d="m 106,1010.3622 c 5.32945,1.5077 8.98366,3.8911 11.64645,10.7322 -3.1464,22.7566 -8.90725,28.9775 -27.89645,39.0178 0.236456,-9.4843 -2.830369,-19.0961 -7.25,-27.25 15.780225,-3.1292 20.9359,-12.1019 23.5,-22.5 z"
       id="path4045"
       inkscape:connector-curvature="0"
       sodipodi:nodetypes="ccccc" />
    <rect
       style="fill:none;stroke:#0000ff;stroke-width:1.99999988000000010;stroke-linejoin:miter;stroke-miterlimit:4;stroke-opacity:1;stroke-dasharray:none;stroke-dashoffset:0"
       id="rect2985-7"
       width="158"
       height="158"
       x="1"
       y="893.36218" />
  </g>
</svg>
