<?xml version="1.0" encoding="UTF-8" standalone="no"?>
<!-- Created with Inkscape (http://www.inkscape.org/) -->

<svg
   xmlns:dc="http://purl.org/dc/elements/1.1/"
   xmlns:cc="http://creativecommons.org/ns#"
   xmlns:rdf="http://www.w3.org/1999/02/22-rdf-syntax-ns#"
   xmlns:svg="http://www.w3.org/2000/svg"
   xmlns="http://www.w3.org/2000/svg"
   xmlns:sodipodi="http://sodipodi.sourceforge.net/DTD/sodipodi-0.dtd"
   xmlns:inkscape="http://www.inkscape.org/namespaces/inkscape"
   width="160"
   height="160"
   id="svg2"
   version="1.1"
   inkscape:version="0.48.5 r10040"
   sodipodi:docname="momicon.svg"
   inkscape:export-filename="C:\Users\Nick\Desktop\HTML5 Games\Childhood\img\momicon.png"
   inkscape:export-xdpi="90"
   inkscape:export-ydpi="90">
  <defs
     id="defs4" />
  <sodipodi:namedview
     id="base"
     pagecolor="#ffffff"
     bordercolor="#666666"
     borderopacity="1.0"
     inkscape:pageopacity="0.0"
     inkscape:pageshadow="2"
     inkscape:zoom="1"
     inkscape:cx="162.01681"
     inkscape:cy="33.1729"
     inkscape:document-units="px"
     inkscape:current-layer="layer1"
     showgrid="false"
     showguides="true"
     inkscape:guide-bbox="true"
     inkscape:window-width="1920"
     inkscape:window-height="1018"
     inkscape:window-x="-8"
     inkscape:window-y="-8"
     inkscape:window-maximized="1" />
  <metadata
     id="metadata7">
    <rdf:RDF>
      <cc:Work
         rdf:about="">
        <dc:format>image/svg+xml</dc:format>
        <dc:type
           rdf:resource="http://purl.org/dc/dcmitype/StillImage" />
        <dc:title></dc:title>
      </cc:Work>
    </rdf:RDF>
  </metadata>
  <g
     inkscape:label="Layer 1"
     inkscape:groupmode="layer"
     id="layer1"
     transform="translate(0,-892.36218)">
    <rect
       style="fill:#b3b3b3;fill-opacity:1;fill-rule:nonzero;stroke:#000000;stroke-width:2;stroke-miterlimit:4;stroke-dasharray:none"
       id="rect2985"
       width="159"
       height="159"
       x="0.5"
       y="892.86218" />
    <rect
       style="fill:#502d16;fill-opacity:1;fill-rule:nonzero;stroke:#28170b;stroke-width:1;stroke-linejoin:miter;stroke-miterlimit:4;stroke-opacity:1;stroke-dasharray:none;stroke-dashoffset:0"
       id="rect4071"
       width="77.428192"
       height="44.194176"
       x="44.194176"
       y="102.01724"
       transform="translate(0,892.36218)" />
    <path
       style="fill:#e9c6af;fill-opacity:1;fill-rule:nonzero;stroke:#000000;stroke-width:1;stroke-linejoin:miter;stroke-miterlimit:4;stroke-opacity:1;stroke-dasharray:none;stroke-dashoffset:0"
       d="m 455,865.36218 c -22.64367,0 -41,18.35633 -41,41 0.2857,12.77442 6.125,16.03144 6.125,29 2.79721,13.88046 14.1035,27.937 24.25836,32.5431 7.40486,3.6061 12.65392,4.81819 20.98571,0.88476 11.33179,-5.18343 21.76711,-18.353 24.47468,-31.42786 -0.16406,-12.83118 6.12919,-18.45624 6.15625,-31 0,-22.64367 -18.35633,-41 -41,-41 z"
       id="path3755"
       inkscape:connector-curvature="0"
       sodipodi:nodetypes="sccccccs" />
    <path
       style="fill:#c83737;stroke:#782121;stroke-width:1px;stroke-linecap:butt;stroke-linejoin:miter;stroke-opacity:1"
       d="m 444.05806,949.9354 c 3.95283,-1.88092 4.54821,-5.95296 11.57322,-4.07062 5.28055,-1.41492 9.17416,1.06828 11.88389,4.07063 -7.47029,1.24347 -15.7512,1.34837 -23.45711,-1e-5 z"
       id="path3781"
       inkscape:connector-curvature="0"
       sodipodi:nodetypes="cccc" />
    <path
       style="fill:#c83737;stroke:#782121;stroke-width:1px;stroke-linecap:butt;stroke-linejoin:miter;stroke-opacity:1"
       d="m 444,950.36218 c 7.648,-0.71398 15.36715,-0.92992 23.25,0 -9.91751,6.21684 -15.27937,5.321 -23.25,0 z"
       id="path3779"
       inkscape:connector-curvature="0"
       sodipodi:nodetypes="ccc" />
    <path
       style="fill:none;stroke:#000000;stroke-width:1px;stroke-linecap:butt;stroke-linejoin:miter;stroke-opacity:1"
       d="m 446.95074,932.87993 c 0.16955,2.15181 -0.8378,4.56512 3.49922,4.1643 3.56299,2.86227 7.47736,1.47194 9.99846,0.25 2.39095,-0.16256 3.69087,-1.35364 2.89219,-4.1211"
       id="path3783"
       inkscape:connector-curvature="0"
       sodipodi:nodetypes="cccc" />
    <path
       style="fill:#ffffff;stroke:#000000;stroke-width:1px;stroke-linecap:butt;stroke-linejoin:miter;stroke-opacity:1"
       d="m 460.75,917.61218 c 5.58623,-5.39381 12.74207,-3.74011 18.25,0 -6.57082,5.38444 -13.80849,4.76295 -18.25,0 z"
       id="path3785"
       inkscape:connector-curvature="0"
       sodipodi:nodetypes="ccc" />
    <path
       style="fill:#ffffff;stroke:#000000;stroke-width:1px;stroke-linecap:butt;stroke-linejoin:miter;stroke-opacity:1"
       d="m 451,917.61218 c -5.58623,-5.3938 -12.74207,-3.7401 -18.25,0 6.57082,5.38444 13.80849,4.76295 18.25,0 z"
       id="path3785-7"
       inkscape:connector-curvature="0"
       sodipodi:nodetypes="ccc" />
    <path
       style="fill:#0000ff;stroke:#000000;stroke-width:1px;stroke-linecap:butt;stroke-linejoin:miter;stroke-opacity:1"
       d="m 468.65625,914.17468 c -1.3499,0.0376 -2.69577,0.31666 -4,0.84375 -0.68626,0.91763 -1.09375,2.04724 -1.09375,3.28125 0,0.61628 0.12554,1.19683 0.3125,1.75 2.99457,1.60244 6.58673,1.86017 10.25,0.4375 0.004,-0.009 -0.004,-0.0222 0,-0.0312 0.27832,-0.65801 0.4375,-1.39686 0.4375,-2.15625 0,-1.28917 -0.4447,-2.46855 -1.1875,-3.40625 -1.55592,-0.4879 -3.1328,-0.76296 -4.71875,-0.71875 z"
       id="path3785-4"
       inkscape:connector-curvature="0" />
    <path
       style="fill:#0000ff;stroke:#000000;stroke-width:1px;stroke-linecap:butt;stroke-linejoin:miter;stroke-opacity:1"
       d="m 442.9953,914.16779 c -1.79513,-0.05 -3.59559,0.3189 -5.34375,0.9375 -0.45811,0.80268 -0.71875,1.72839 -0.71875,2.71875 0,0.9746 0.24285,1.89365 0.6875,2.6875 3.45064,1.31445 6.8409,1.16341 9.71875,-0.21875 0.37589,-0.74423 0.59375,-1.57802 0.59375,-2.46875 0,-0.99036 -0.26064,-1.91607 -0.71875,-2.71875 -1.37265,-0.58855 -2.79324,-0.89777 -4.21875,-0.9375 z"
       id="path3785-7-9"
       inkscape:connector-curvature="0" />
    <path
       sodipodi:type="arc"
       style="fill:#000000;fill-opacity:1;fill-rule:nonzero;stroke:#000000;stroke-width:1;stroke-linejoin:miter;stroke-miterlimit:4;stroke-opacity:1;stroke-dasharray:none;stroke-dashoffset:0"
       id="path3881-8"
       sodipodi:cx="420.5"
       sodipodi:cy="84.5"
       sodipodi:rx="2.5"
       sodipodi:ry="2.5"
       d="m 423,84.5 a 2.5,2.5 0 1 1 -5,0 2.5,2.5 0 1 1 5,0 z"
       transform="translate(48.5625,833.86218)" />
    <path
       sodipodi:type="arc"
       style="fill:#000000;fill-opacity:1;fill-rule:nonzero;stroke:#000000;stroke-width:1;stroke-linejoin:miter;stroke-miterlimit:4;stroke-opacity:1;stroke-dasharray:none;stroke-dashoffset:0"
       id="path3881-82"
       sodipodi:cx="420.5"
       sodipodi:cy="84.5"
       sodipodi:rx="2.5"
       sodipodi:ry="2.5"
       d="m 423,84.5 a 2.5,2.5 0 1 1 -5,0 2.5,2.5 0 1 1 5,0 z"
       transform="translate(21.9375,833.61218)" />
    <path
       style="fill:#502d16;stroke:#28170b;stroke-width:1px;stroke-linecap:butt;stroke-linejoin:miter;stroke-opacity:1"
       d="m 459.97359,908.13827 c 10.5355,-4.02024 20.55926,-8.05113 23.15568,-1.6681 -2.48098,2.26975 -10.92941,0.0884 -23.15568,1.6681 z"
       id="path3908"
       inkscape:connector-curvature="0"
       sodipodi:nodetypes="ccc" />
    <path
       style="fill:#502d16;stroke:#28170b;stroke-width:1px;stroke-linecap:butt;stroke-linejoin:miter;stroke-opacity:1"
       d="m 450.625,907.86218 c -8.92972,-3.14873 -17.34178,-6.62008 -20.5,-0.875 1.31925,2.91157 9.35458,-0.0718 20.5,0.875 z"
       id="path3910"
       inkscape:connector-curvature="0"
       sodipodi:nodetypes="ccc" />
    <path
       style="fill:#502d16;stroke:#000000;stroke-width:1px;stroke-linecap:butt;stroke-linejoin:miter;stroke-opacity:1"
       d="m 461.125,857.04968 c -6.0555,0.46167 -12.37377,-0.12294 -18.03125,2.5 -6.42505,-0.70757 -12.86355,-0.0252 -16.25,5.90625 -3.7262,5.69453 -8.98302,1.76618 -11.53125,6.90625 -0.69029,6.2422 -6.42056,9.44051 -5.4375,16.21875 -4.53766,4.13527 -2.01098,9.49027 -5.09375,15.25 -3.45398,16.15249 -7.8786,13.51293 -9.28125,32.59375 1.94112,6.42146 -1.72584,13.14457 -1.21875,19.5625 -0.24641,4.97674 -0.0771,9.4444 -2.8125,13.75 1.40549,2.7394 -0.29405,6.86155 4.1875,6.65625 3.87451,2.4342 5.38631,-3.0581 10.0625,-2.25 5.94183,-2.3234 14.72531,-0.90405 19.875,-4.59375 4.31042,-6.4034 -2.26684,-18.53618 0.0625,-25.34375 1.48441,-5.43123 -3.76987,-10.59879 -1.90625,-16.0625 -0.43048,-6.38407 0.84907,-12.25183 1.9375,-18.5 -0.99444,-6.5868 5.31299,-10.22214 5.375,-16.28125 -0.0697,-5.08346 1.66211,-9.75527 5.3125,-13.375 3.77939,-3.69845 6.63802,-4.341 11.625,-5.125 0.15489,-0.0991 0.31317,-0.1638 0.46875,-0.25 0.006,0.006 0.0252,-0.006 0.0312,0 1.94297,0.69297 5.519,1.394 7.875,2 2.44957,-0.18548 3.72224,-1.40268 6,-1.75 0.25,-0.25 0.625,0 1.51237,0.0174 0.88737,0.0174 1.58553,0.341 3.01888,0.38884 5.56069,-0.47237 5.97355,4.88481 9.34375,7.96875 2.90653,3.92654 3.51858,8.91362 6.625,12.96875 4.17755,5.37358 6.60771,0.2618 7.875,6.65625 1.21013,6.70212 1.17699,26.04023 -1.25,32.5625 -0.0355,5.48223 -3.52391,13.32892 -6.34375,17.71875 -2.44598,3.47202 -4.30574,5.79291 -6.9375,8.40625 -0.183,5.0838 0.51894,8.30695 3.1875,8.46875 5.45497,3.3033 19.10611,5.6685 25.84375,6.625 5.43174,0.6701 14.45274,4.95335 13.125,-3.15625 -1.34459,-5.7341 -5.20861,-11.42841 -1.875,-17.03125 0.50103,-5.88956 0.49224,-12.12022 -1.25,-17.84375 -3.07676,-4.57815 -3.63583,-10.0306 -5.34375,-14.875 -0.91323,-5.50939 -0.49241,-10.65428 -0.71875,-16.3125 -3.45939,-5.00436 -0.52643,-11.50235 -4.84375,-15.875 -2.53863,-5.65282 -4.50359,-11.28132 -8.1875,-16.34375 -4.70857,-3.17685 -4.0995,-8.85706 -10.7812,-11.375 -7.43636,-1.1904 -9.37496,-5.41638 -16.125,-3.46875 -3.08451,0.0679 -5.07012,-3.3226 -8.125,-3.3125 z"
       id="path3912"
       inkscape:connector-curvature="0"
       sodipodi:nodetypes="cccccccccccccccccccccccccccccccccccccccccc" />
    <path
       style="fill:#e9c6af;stroke:#000000;stroke-width:1px;stroke-linecap:butt;stroke-linejoin:miter;stroke-opacity:1"
       d="m 490.75,902.86218 c 16.43433,-9.9216 5.91811,39.56728 -1,32.75 1.76725,-11.27514 1.89614,-22.1407 1,-32.75 z"
       id="path3945"
       inkscape:connector-curvature="0"
       sodipodi:nodetypes="ccc" />
    <path
       style="fill:none;stroke:#000000;stroke-width:1px;stroke-linecap:butt;stroke-linejoin:miter;stroke-opacity:1"
       d="m 491.0026,907.7283 c 6.78957,-6.62535 6.62659,7.94632 3.2474,17.38388"
       id="path3955"
       inkscape:connector-curvature="0"
       sodipodi:nodetypes="cc" />
    <path
       style="fill:#e9c6af;stroke:#000000;stroke-width:1px;stroke-linecap:butt;stroke-linejoin:miter;stroke-opacity:1"
       d="m 61.164736,1004.6325 -2.12132,64.8804 c 15.310212,5.8161 30.769265,5.4958 44.194174,0 l -2.47488,-67.7089 z"
       id="path4034"
       inkscape:connector-curvature="0"
       sodipodi:nodetypes="ccccc" />
    <path
       style="fill:#e9c6af;fill-opacity:1;fill-rule:nonzero;stroke:#000000;stroke-width:1;stroke-linejoin:miter;stroke-miterlimit:4;stroke-opacity:1;stroke-dasharray:none;stroke-dashoffset:0"
       d="m 81.0123,914.0141 c -22.64367,0 -41,18.3564 -41,41 0.2857,12.7745 6.125,16.0315 6.125,29 2.79721,13.8805 14.1035,27.937 24.25836,32.5431 7.40486,3.6061 12.65392,4.8182 20.98571,0.8848 11.33179,-5.1834 21.76711,-18.353 24.47468,-31.4279 -0.16406,-12.8311 6.12919,-18.4562 6.15625,-31 0,-22.6436 -18.35633,-41 -41,-41 z"
       id="path3755-5"
       inkscape:connector-curvature="0"
       sodipodi:nodetypes="sccccccs" />
    <path
       style="fill:#c83737;stroke:#782121;stroke-width:1px;stroke-linecap:butt;stroke-linejoin:miter;stroke-opacity:1"
       d="m 70.07036,998.5874 c 3.95283,-1.881 4.54821,-5.953 11.57322,-4.0707 5.28055,-1.4149 9.17416,1.0683 11.88389,4.0707 -7.47029,1.2434 -15.7512,1.3483 -23.45711,0 z"
       id="path3781-5"
       inkscape:connector-curvature="0"
       sodipodi:nodetypes="cccc" />
    <path
       style="fill:#c83737;stroke:#782121;stroke-width:1px;stroke-linecap:butt;stroke-linejoin:miter;stroke-opacity:1"
       d="m 70.0123,999.0141 c 7.648,-0.7139 15.36715,-0.9299 23.25,0 -9.91751,6.2169 -15.27937,5.321 -23.25,0 z"
       id="path3779-1"
       inkscape:connector-curvature="0"
       sodipodi:nodetypes="ccc" />
    <path
       style="fill:none;stroke:#000000;stroke-width:1px;stroke-linecap:butt;stroke-linejoin:miter;stroke-opacity:1"
       d="m 72.96304,981.5319 c 0.16955,2.1518 -0.8378,4.5651 3.49922,4.1643 3.56299,2.8623 7.47736,1.4719 9.99846,0.25 2.39095,-0.1626 3.69087,-1.3536 2.89219,-4.1211"
       id="path3783-7"
       inkscape:connector-curvature="0"
       sodipodi:nodetypes="cccc" />
    <path
       style="fill:#ffffff;stroke:#000000;stroke-width:1px;stroke-linecap:butt;stroke-linejoin:miter;stroke-opacity:1"
       d="m 86.7623,966.2641 c 5.58623,-5.3938 12.74207,-3.7401 18.25,0 -6.57082,5.3845 -13.80849,4.763 -18.25,0 z"
       id="path3785-1"
       inkscape:connector-curvature="0"
       sodipodi:nodetypes="ccc" />
    <path
       style="fill:#ffffff;stroke:#000000;stroke-width:1px;stroke-linecap:butt;stroke-linejoin:miter;stroke-opacity:1"
       d="m 77.0123,966.2641 c -5.58623,-5.3938 -12.74207,-3.7401 -18.25,0 6.57082,5.3845 13.80849,4.763 18.25,0 z"
       id="path3785-7-1"
       inkscape:connector-curvature="0"
       sodipodi:nodetypes="ccc" />
    <path
       style="fill:#0000ff;stroke:#000000;stroke-width:1px;stroke-linecap:butt;stroke-linejoin:miter;stroke-opacity:1"
       d="m 94.66855,962.8266 c -1.3499,0.038 -2.69577,0.3167 -4,0.8438 -0.68626,0.9176 -1.09375,2.0472 -1.09375,3.2812 0,0.6163 0.12554,1.1969 0.3125,1.75 2.99457,1.6025 6.58673,1.8602 10.25,0.4375 0.004,-0.01 -0.004,-0.022 0,-0.031 0.27832,-0.658 0.4375,-1.3968 0.4375,-2.1562 0,-1.2892 -0.4447,-2.4686 -1.1875,-3.4063 -1.55592,-0.4879 -3.1328,-0.7629 -4.71875,-0.7187 z"
       id="path3785-4-5"
       inkscape:connector-curvature="0" />
    <path
       style="fill:#0000ff;stroke:#000000;stroke-width:1px;stroke-linecap:butt;stroke-linejoin:miter;stroke-opacity:1"
       d="m 69.0076,962.8198 c -1.79513,-0.05 -3.59559,0.3189 -5.34375,0.9375 -0.45811,0.8026 -0.71875,1.7283 -0.71875,2.7187 0,0.9746 0.24285,1.8937 0.6875,2.6875 3.45064,1.3145 6.8409,1.1634 9.71875,-0.2187 0.37589,-0.7443 0.59375,-1.5781 0.59375,-2.4688 0,-0.9904 -0.26064,-1.9161 -0.71875,-2.7187 -1.37265,-0.5886 -2.79324,-0.8978 -4.21875,-0.9375 z"
       id="path3785-7-9-2"
       inkscape:connector-curvature="0" />
    <path
       sodipodi:type="arc"
       style="fill:#000000;fill-opacity:1;fill-rule:nonzero;stroke:#000000;stroke-width:1;stroke-linejoin:miter;stroke-miterlimit:4;stroke-opacity:1;stroke-dasharray:none;stroke-dashoffset:0"
       id="path3881-8-7"
       sodipodi:cx="420.5"
       sodipodi:cy="84.5"
       sodipodi:rx="2.5"
       sodipodi:ry="2.5"
       d="m 423,84.5 a 2.5,2.5 0 1 1 -5,0 2.5,2.5 0 1 1 5,0 z"
       transform="translate(-325.4252,882.5141)" />
    <path
       sodipodi:type="arc"
       style="fill:#000000;fill-opacity:1;fill-rule:nonzero;stroke:#000000;stroke-width:1;stroke-linejoin:miter;stroke-miterlimit:4;stroke-opacity:1;stroke-dasharray:none;stroke-dashoffset:0"
       id="path3881-82-6"
       sodipodi:cx="420.5"
       sodipodi:cy="84.5"
       sodipodi:rx="2.5"
       sodipodi:ry="2.5"
       d="m 423,84.5 a 2.5,2.5 0 1 1 -5,0 2.5,2.5 0 1 1 5,0 z"
       transform="translate(-352.0502,882.2641)" />
    <path
       style="fill:#502d16;stroke:#28170b;stroke-width:1px;stroke-linecap:butt;stroke-linejoin:miter;stroke-opacity:1"
       d="m 85.98589,956.7902 c 10.5355,-4.0202 20.55926,-8.0511 23.15568,-1.6681 -2.48098,2.2698 -10.92941,0.088 -23.15568,1.6681 z"
       id="path3908-1"
       inkscape:connector-curvature="0"
       sodipodi:nodetypes="ccc" />
    <path
       style="fill:#502d16;stroke:#28170b;stroke-width:1px;stroke-linecap:butt;stroke-linejoin:miter;stroke-opacity:1"
       d="m 76.6373,956.5141 c -8.92972,-3.1487 -17.34178,-6.62 -20.5,-0.875 1.31925,2.9116 9.35458,-0.072 20.5,0.875 z"
       id="path3910-4"
       inkscape:connector-curvature="0"
       sodipodi:nodetypes="ccc" />
    <path
       style="fill:#2ca05a;stroke:#000000;stroke-width:1px;stroke-linecap:butt;stroke-linejoin:miter;stroke-opacity:1"
       d="M -4.2426407,154.6967 C 14.864288,147.46528 31.34303,140.56238 60.543416,132.06928 c 11.153809,17.6467 11.501134,25.80737 13.702796,43.84062 l 12.727922,0 c 2.560845,-18.29937 3.926517,-25.74932 14.909906,-43.29772 24.20452,7.40412 42.75919,16.2207 61.81118,24.91295 l 0,27.22361 -167.9378607,0 z"
       id="path4036"
       inkscape:connector-curvature="0"
       transform="translate(0,892.36218)"
       sodipodi:nodetypes="ccccccccc" />
    <path
       style="fill:#502d16;stroke:#000000;stroke-width:1px;stroke-linecap:butt;stroke-linejoin:miter;stroke-opacity:1"
       d="m 87.125,13.34375 c -6.0555,0.4617 -12.37377,-0.1229 -18.03125,2.5 -6.42505,-0.7075 -12.86355,-0.02505 -16.25,5.90625 -3.7262,5.6945 -8.98302,1.76625 -11.53125,6.90625 -0.69029,6.2422 -6.42056,9.44055 -5.4375,16.21875 -4.53766,4.1353 -2.01098,9.4903 -5.09375,15.25 -3.45398,16.1525 -7.8786,13.51295 -9.28125,32.59375 1.054103,3.487121 0.462423,7.058241 -0.21875,10.625 -0.161864,0.39901 -0.341521,0.79432 -0.53125,1.1875 -0.58117,3.48243 -1.908204,6.67995 -3.125,9.96875 -1.040916,4.6183 -0.441484,9.38565 -1.5,13.96875 -1.36625,4.9109 -0.227846,10.103 -0.6875,15.0625 -1.868364,4.7006 -2.908145,9.8344 4.65625,12.875 2.252463,3.4704 8.516952,5.6661 13.5625,6.875 4.94049,3.6796 13.636576,3.1421 20.4375,3.875 5.302656,1.2478 8.297955,-5.7717 8.15625,-10.4375 0.02739,-4.79012 0.531875,-9.74129 -0.90625,-14.34375 0.109794,-1.46779 0.15625,-2.98451 0.15625,-3.875 0,-2.30091 -1.922367,-6.18434 -3.375,-9.03125 -0.01873,-0.30234 -0.0069,-0.60436 -0.03125,-0.90625 -0.370278,-1.74082 -0.849542,-3.47313 -1.4375,-5.15625 C 56.516002,122.17835 56.64392,120.78784 56.25,120 c -2.419728,-4.83946 0.422739,-12.07726 -3.5,-16 -0.255762,-0.25576 -0.196892,-1.19689 -0.5,-1.5 -0.207723,-0.20772 -0.991071,-0.91859 -1.022477,-3.953923 C 51.903223,95.245577 47.88638,89.9012 49.75,84.4375 c -0.43048,-6.3841 0.84907,-12.2518 1.9375,-18.5 -0.99444,-6.5868 5.31299,-10.22205 5.375,-16.28125 -0.0697,-5.0834 1.66211,-9.7552 5.3125,-13.375 3.77939,-3.6984 6.63802,-4.341 11.625,-5.125 0.15489,-0.099 0.31317,-0.1638 0.46875,-0.25 0.006,0.01 0.02525,-0.01 0.03125,0 1.94297,0.693 5.519,1.394 7.875,2 2.44957,-0.1854 3.72224,-1.4026 6,-1.75 0.25,-0.25 0.64388,-0.017 1.53125,0 0.88737,0.017 1.56665,0.35835 3,0.40625 5.56069,-0.4724 5.97355,4.88485 9.34375,7.96875 2.90653,3.9266 3.51858,8.91365 6.625,12.96875 4.17755,5.3736 6.60771,0.26185 7.875,6.65625 1.21013,6.7022 1.17699,26.0403 -1.25,32.5625 -0.0355,5.4823 -3.52391,13.32895 -6.34375,17.71875 -2.44598,3.472 -4.0508,5.04514 -6.0625,7.4375 -1.39297,3.36463 -0.1683,6.61135 -1.09375,8.125 -1.08846,3.88559 -1.71748,6.89785 -1.8125,10.40625 1.17352,3.3347 -0.208491,5.3648 -0.875,8.8125 -0.827844,3.2505 -0.423329,5.5585 2,7.5625 1.87292,2.7497 2.48407,6.1629 2.59375,9.4375 -0.8331,4.0185 2.66325,6.3807 6.28125,6.375 3.24764,0.8304 6.72921,2.18645 10.03125,0.71875 3.74019,-2.2778 8.36544,-2.2248 12.09375,-4.5 2.69824,-0.5739 4.98997,-2.58095 7.15625,-4.09375 2.45292,-1.9327 5.6888,-3.8583 5.8125,-7.375 0.0625,-3.0071 2.91855,-5.45515 1.1875,-8.53125 -0.90477,-2.1902 -1.54399,-4.46835 -2.21875,-6.71875 -0.51909,-2.9669 0.75237,-6.22235 -0.90625,-8.96875 -0.57236,-2.48342 -1.12554,-4.97408 -2.15625,-7.28125 -0.004,-0.009 0.004,-0.0225 0,-0.0312 -0.0675,-3.3785 0.27075,-6.31162 1.3125,-8.0625 0.50103,-5.8896 0.49224,-12.12015 -1.25,-17.84375 -3.07676,-4.5781 -3.63583,-10.0306 -5.34375,-14.875 -0.91323,-5.5094 -0.49241,-10.6542 -0.71875,-16.3125 -3.45939,-5.0043 -0.52643,-11.5023 -4.84375,-15.875 -2.53863,-5.6528 -4.50359,-11.28135 -8.1875,-16.34375 -4.70857,-3.1769 -4.09955,-8.8571 -10.78125,-11.375 -7.43636,-1.1904 -9.37496,-5.41635 -16.125,-3.46875 -3.08451,0.068 -5.07012,-3.3226 -8.125,-3.3125 z"
       transform="translate(0,892.36218)"
       id="path3912-2"
       inkscape:connector-curvature="0"
       sodipodi:nodetypes="cccccccccccccccccscccsssccccccccccscccccccccccccccccccccccccccccccc" />
    <path
       style="fill:#e9c6af;stroke:#000000;stroke-width:1px;stroke-linecap:butt;stroke-linejoin:miter;stroke-opacity:1"
       d="m 116.7623,951.5141 c 16.43433,-9.9216 5.91811,39.5673 -1,32.75 1.76725,-11.2751 1.89614,-22.1407 1,-32.75 z"
       id="path3945-3"
       inkscape:connector-curvature="0"
       sodipodi:nodetypes="ccc" />
    <path
       style="fill:none;stroke:#000000;stroke-width:1px;stroke-linecap:butt;stroke-linejoin:miter;stroke-opacity:1"
       d="m 117.0149,956.3803 c 6.78957,-6.6254 6.62659,7.9463 3.2474,17.3838"
       id="path3955-2"
       inkscape:connector-curvature="0"
       sodipodi:nodetypes="cc" />
    <rect
       style="fill:none;fill-opacity:1;fill-rule:nonzero;stroke:#000000;stroke-width:2;stroke-miterlimit:4;stroke-dasharray:none"
       id="rect2985-2"
       width="159"
       height="159"
       x="0.5"
       y="892.86218" />
  </g>
</svg>
