<?xml version="1.0" encoding="UTF-8" standalone="no"?>
<!-- Created with Inkscape (http://www.inkscape.org/) -->

<svg
   xmlns:dc="http://purl.org/dc/elements/1.1/"
   xmlns:cc="http://creativecommons.org/ns#"
   xmlns:rdf="http://www.w3.org/1999/02/22-rdf-syntax-ns#"
   xmlns:svg="http://www.w3.org/2000/svg"
   xmlns="http://www.w3.org/2000/svg"
   xmlns:xlink="http://www.w3.org/1999/xlink"
   xmlns:sodipodi="http://sodipodi.sourceforge.net/DTD/sodipodi-0.dtd"
   xmlns:inkscape="http://www.inkscape.org/namespaces/inkscape"
   width="160"
   height="160"
   id="svg2"
   version="1.1"
   inkscape:version="0.48.5 r10040"
   sodipodi:docname="president.svg"
   inkscape:export-filename="C:\Users\Nick\Desktop\HTML5 Games\Childhood\img\president.png"
   inkscape:export-xdpi="90"
   inkscape:export-ydpi="90">
  <defs
     id="defs4">
    <linearGradient
       id="linearGradient3782">
      <stop
         style="stop-color:#333333;stop-opacity:1;"
         offset="0"
         id="stop3784" />
      <stop
         style="stop-color:#000000;stop-opacity:1;"
         offset="1"
         id="stop3786" />
    </linearGradient>
    <radialGradient
       inkscape:collect="always"
       xlink:href="#linearGradient3782"
       id="radialGradient3796"
       cx="377.99994"
       cy="920.72961"
       fx="377.99994"
       fy="920.72961"
       r="42.749996"
       gradientTransform="matrix(4.9375787,0,0,1.3539493,-1488.4045,-332.94008)"
       gradientUnits="userSpaceOnUse" />
    <radialGradient
       inkscape:collect="always"
       xlink:href="#linearGradient3782-4"
       id="radialGradient3796-0"
       cx="377.99994"
       cy="920.72961"
       fx="377.99994"
       fy="920.72961"
       r="42.749996"
       gradientTransform="matrix(4.9375787,0,0,1.3539493,-1633.4745,-214.06628)"
       gradientUnits="userSpaceOnUse" />
    <linearGradient
       id="linearGradient3782-4">
      <stop
         style="stop-color:#333333;stop-opacity:1;"
         offset="0"
         id="stop3784-9" />
      <stop
         style="stop-color:#000000;stop-opacity:1;"
         offset="1"
         id="stop3786-4" />
    </linearGradient>
  </defs>
  <sodipodi:namedview
     id="base"
     pagecolor="#ffffff"
     bordercolor="#666666"
     borderopacity="1.0"
     inkscape:pageopacity="0.0"
     inkscape:pageshadow="2"
     inkscape:zoom="1"
     inkscape:cx="274.01521"
     inkscape:cy="59.952703"
     inkscape:document-units="px"
     inkscape:current-layer="layer1"
     showgrid="false"
     fit-margin-top="0"
     fit-margin-left="0"
     fit-margin-right="0"
     fit-margin-bottom="0"
     inkscape:window-width="1920"
     inkscape:window-height="1018"
     inkscape:window-x="-8"
     inkscape:window-y="-8"
     inkscape:window-maximized="1" />
  <metadata
     id="metadata7">
    <rdf:RDF>
      <cc:Work
         rdf:about="">
        <dc:format>image/svg+xml</dc:format>
        <dc:type
           rdf:resource="http://purl.org/dc/dcmitype/StillImage" />
        <dc:title />
      </cc:Work>
    </rdf:RDF>
  </metadata>
  <g
     inkscape:label="Layer 1"
     inkscape:groupmode="layer"
     id="layer1"
     transform="translate(-5.9604645e-8,-892.36218)">
    <path
       style="fill:#784421;stroke:#000000;stroke-width:1px;stroke-linecap:butt;stroke-linejoin:miter;stroke-opacity:1"
       d="m 337.53026,924.0223 c -16.32766,-7.49764 -5.69684,35.31371 2.12378,30.05204 z"
       id="path3824-6"
       inkscape:connector-curvature="0"
       sodipodi:nodetypes="ccc" />
    <path
       style="fill:none;stroke:#000000;stroke-width:1px;stroke-linecap:butt;stroke-linejoin:miter;stroke-opacity:1"
       d="m 337.64349,34.8421 c -9.21737,-2.989399 -5.04549,9.55274 -3.00521,19.622213"
       id="path3973"
       inkscape:connector-curvature="0"
       transform="translate(5.9604645e-8,892.36218)"
       sodipodi:nodetypes="cc" />
    <path
       style="fill:#784421;stroke:#000000;stroke-width:1px;stroke-linecap:butt;stroke-linejoin:miter;stroke-opacity:1"
       d="m 418.60968,924.0223 c 16.32765,-7.49764 5.69683,35.31371 -2.12379,30.05204 z"
       id="path3824"
       inkscape:connector-curvature="0"
       sodipodi:nodetypes="ccc" />
    <path
       style="fill:none;stroke:#000000;stroke-width:1px;stroke-linecap:butt;stroke-linejoin:miter;stroke-opacity:1"
       d="m 419.31432,34.8421 c 7.99035,-3.600722 3.74088,8.903596 3.53554,16.086679"
       id="path3971"
       inkscape:connector-curvature="0"
       transform="translate(5.9604645e-8,892.36218)"
       sodipodi:nodetypes="cc" />
    <rect
       style="fill:#b3b3b3;fill-opacity:1;fill-rule:nonzero;stroke:#0000ff;stroke-width:1.99999988000000010;stroke-miterlimit:4;stroke-dasharray:none"
       id="rect2985"
       width="158"
       height="158"
       x="1"
       y="893.36218" />
    <path
       style="fill:#784421;fill-opacity:1;fill-rule:nonzero;stroke:#000000;stroke-width:1;stroke-linejoin:miter;stroke-miterlimit:4;stroke-opacity:1;stroke-dasharray:none;stroke-dashoffset:0"
       d="m 378,-11 c -23.19596,0 -42,18.8040405 -42,42 0,41.925972 14.98626,52.636339 32,67 6.20997,2.11844 12.68672,3.16978 20.21875,0 l 0.0312,0 C 412.17877,75.700486 419.90387,70.253209 420,31 420,7.8040405 401.19596,-11 378,-11 z"
       transform="translate(5.9604645e-8,892.36218)"
       id="path3755"
       inkscape:connector-curvature="0"
       sodipodi:nodetypes="scccccs" />
    <path
       style="fill:url(#radialGradient3796);fill-opacity:1;fill-rule:nonzero;stroke:#000000;stroke-width:0.99999994000000003;stroke-linejoin:miter;stroke-miterlimit:4;stroke-opacity:1;stroke-dashoffset:0"
       d="m 419.89643,932.86217 c -6.16879,-23.02223 -26.25015,-32.50919 -41.99967,-32.4496 -15.74951,0.0596 -35.23255,8.62461 -41.61644,32.4496 -4.41942,-29.34444 14.31978,-52.24999 41.71966,-52.24999 28.46055,0 46.8462,25.02687 41.89645,52.24999 z"
       id="path3779"
       inkscape:connector-curvature="0"
       sodipodi:nodetypes="cscsc" />
    <path
       style="fill:#782121;stroke:#552200;stroke-width:0.99999994px;stroke-linecap:butt;stroke-linejoin:miter;stroke-opacity:1"
       d="m 363.27609,971.27713 c 4.80195,-0.93873 7.70758,-3.83376 14.56536,-2.65165 7.5342,-0.73278 10.38049,1.75857 14.77956,3.18198 -11.92645,5.63929 -21.41224,4.66027 -29.34492,-0.53033 z"
       id="path3800"
       inkscape:connector-curvature="0"
       sodipodi:nodetypes="cccc" />
    <path
       style="fill:#782121;stroke:#552200;stroke-width:0.99999994px;stroke-linecap:butt;stroke-linejoin:miter;stroke-opacity:1"
       d="m 363.45234,971.86218 28.47446,0 c -5.35669,6.59791 -23.1071,6.62161 -28.47446,0 z"
       id="path3798"
       inkscape:connector-curvature="0"
       sodipodi:nodetypes="ccc" />
    <path
       style="fill:none;stroke:#000000;stroke-width:0.99999994px;stroke-linecap:butt;stroke-linejoin:miter;stroke-opacity:1"
       d="m 366.28508,955.47594 c -0.6718,2.1173 0.4918,4.43708 4.28551,4.0636 4.25626,2.33959 8.51253,1.8631 12.7688,0 3.34352,0.16113 5.6927,-1.08101 4.84333,-3.86523"
       id="path3802"
       inkscape:connector-curvature="0"
       sodipodi:nodetypes="cccc" />
    <path
       style="fill:#ffffff;stroke:#000000;stroke-width:1px;stroke-linecap:butt;stroke-linejoin:miter;stroke-opacity:1"
       d="m 349.00002,935.63544 c 6.68102,-5.67248 14.0285,-6.29414 22.25,-0.29199 -8.7734,6.32641 -15.04421,5.56929 -22.25,0.29199 z"
       id="path3804"
       inkscape:connector-curvature="0"
       sodipodi:nodetypes="ccc" />
    <path
       style="fill:#ffffff;stroke:#000000;stroke-width:1px;stroke-linecap:butt;stroke-linejoin:miter;stroke-opacity:1"
       d="m 405.00002,935.63544 c -6.68102,-5.67248 -14.0285,-6.29414 -22.25,-0.29199 8.7734,6.32641 15.04421,5.56929 22.25,0.29199 z"
       id="path3804-1"
       inkscape:connector-curvature="0"
       sodipodi:nodetypes="ccc" />
    <path
       style="fill:#502d16;stroke:#000000;stroke-width:1px;stroke-linecap:butt;stroke-linejoin:miter;stroke-opacity:1"
       d="m 359.61711,931.09625 c -1.19386,0.0368 -2.37662,0.25958 -3.53125,0.59375 -0.75783,1.00577 -1.21875,2.23742 -1.21875,3.59375 0,1.59589 0.64147,3.04884 1.65625,4.125 3.02162,0.76044 6.09298,0.48542 9.5,-1 0.55217,-0.90876 0.875,-1.98394 0.875,-3.125 0,-1.03733 -0.25611,-1.99212 -0.71875,-2.84375 -0.007,-0.0124 -0.0244,-0.0189 -0.0312,-0.0312 -2.24661,-0.92603 -4.41545,-1.37782 -6.53125,-1.3125 z"
       id="path3804-8"
       inkscape:connector-curvature="0" />
    <path
       style="fill:#502d16;stroke:#000000;stroke-width:1px;stroke-linecap:butt;stroke-linejoin:miter;stroke-opacity:1"
       d="m 394.51882,931.06816 c -2.17338,-0.0671 -4.43845,0.39501 -6.75,1.375 -0.57424,0.92128 -0.90625,2.02196 -0.90625,3.1875 0,0.87923 0.192,1.68478 0.53125,2.4375 3.66556,1.75428 6.94825,2.1372 10.15625,1.34375 0.84092,-1.034 1.34375,-2.34458 1.34375,-3.78125 0,-1.62781 -0.66774,-3.10519 -1.71875,-4.1875 -0.88151,-0.19935 -1.75212,-0.34709 -2.65625,-0.375 z"
       id="path3804-1-2"
       inkscape:connector-curvature="0" />
    <path
       transform="translate(-93.264884,870.85792)"
       sodipodi:type="arc"
       style="fill:#000000;fill-opacity:1;fill-rule:nonzero;stroke:#000000;stroke-width:1;stroke-linejoin:miter;stroke-miterlimit:4;stroke-opacity:1;stroke-dasharray:none;stroke-dashoffset:0"
       id="path3920-7"
       sodipodi:cx="486.13593"
       sodipodi:cy="64.717361"
       sodipodi:rx="2.6516504"
       sodipodi:ry="2.6516504"
       d="m 488.78758,64.717361 c 0,1.464467 -1.18719,2.651651 -2.65165,2.651651 -1.46447,0 -2.65166,-1.187184 -2.65166,-2.651651 0,-1.464466 1.18719,-2.65165 2.65166,-2.65165 1.46446,0 2.65165,1.187184 2.65165,2.65165 z" />
    <path
       transform="translate(-125.33469,870.68115)"
       sodipodi:type="arc"
       style="fill:#000000;fill-opacity:1;fill-rule:nonzero;stroke:#000000;stroke-width:1;stroke-linejoin:miter;stroke-miterlimit:4;stroke-opacity:1;stroke-dasharray:none;stroke-dashoffset:0"
       id="path3920-1"
       sodipodi:cx="486.13593"
       sodipodi:cy="64.717361"
       sodipodi:rx="2.6516504"
       sodipodi:ry="2.6516504"
       d="m 488.78758,64.717361 c 0,1.464467 -1.18719,2.651651 -2.65165,2.651651 -1.46447,0 -2.65166,-1.187184 -2.65166,-2.651651 0,-1.464466 1.18719,-2.65165 2.65166,-2.65165 1.46446,0 2.65165,1.187184 2.65165,2.65165 z" />
    <path
       style="fill:#333333;stroke:#1a1a1a;stroke-width:1px;stroke-linecap:butt;stroke-linejoin:miter;stroke-opacity:1"
       d="m 406.05608,924.7294 c 0,2.83591 -7.97966,-1.32827 -22.98097,2.47488 9.918,-6.3921 22.98097,-6.17679 22.98097,-2.47488 z"
       id="path3947"
       inkscape:connector-curvature="0"
       sodipodi:nodetypes="ccc" />
    <path
       style="fill:#333333;stroke:#1a1a1a;stroke-width:1px;stroke-linecap:butt;stroke-linejoin:miter;stroke-opacity:1"
       d="m 371.40783,927.06153 c -10.6891,-2.86413 -22.45064,1.15417 -22.45064,-1.44823 0,-3.87001 13.10609,-4.0594 22.45064,1.44823 z"
       id="path3949"
       inkscape:connector-curvature="0"
       sodipodi:nodetypes="ccc" />
    <path
       style="fill:none;stroke:#502d16;stroke-width:0.5;stroke-linecap:butt;stroke-linejoin:miter;stroke-miterlimit:4;stroke-opacity:1;stroke-dasharray:none"
       d="m 360.75,917.26383 c 2.16201,-2.16201 30.49994,-2.16517 31.75,0"
       id="path3951"
       inkscape:connector-curvature="0"
       sodipodi:nodetypes="cc" />
    <path
       style="fill:#000000;stroke:#000000;stroke-width:1px;stroke-linecap:butt;stroke-linejoin:miter;stroke-opacity:1"
       d="m 408.92417,927.38363 1,3.75 11.70083,-8.39645 1.625,0 c -0.29126,-0.68362 -0.31966,-1.42878 -1.625,-1.875 z"
       id="path3979"
       inkscape:connector-curvature="0"
       sodipodi:nodetypes="cccccc" />
    <path
       style="fill:#1a1a1a;stroke:#000000;stroke-width:0.99999994px;stroke-linecap:butt;stroke-linejoin:miter;stroke-opacity:1"
       d="m 387.28125,925.79968 c -2.95797,0.0802 -5.57912,0.57481 -7.59375,1.78125 -1.81221,5.0764 -2.25932,10.14225 0,15.21875 7.48765,5.8055 16.89963,0.9156 26.84375,0 1.10466,-5.1611 4.21492,-10.3389 2,-15.5 -6.62327,0.0378 -14.74246,-1.6765 -21.25,-1.5 z m 1,1.5 c 5.53913,-0.14974 12.42486,1.31336 18.0625,1.28125 1.88531,4.37898 -1.05973,8.77727 -2,13.15625 -8.4643,0.77685 -16.15787,4.92573 -22.53125,0 -1.92311,-4.3072 -1.54253,-8.63038 0,-12.9375 1.71483,-1.02361 3.95097,-1.43194 6.46875,-1.5 z"
       id="path3977"
       inkscape:connector-curvature="0"
       sodipodi:nodetypes="sccccssccccs" />
    <path
       style="opacity:0.3;fill:#c83737;stroke:#000000;stroke-width:0.99999994px;stroke-linecap:butt;stroke-linejoin:miter;stroke-opacity:1"
       d="m 381.81961,928.80073 c -1.54253,4.30712 -1.92311,8.61432 0,12.92152 6.37338,4.92573 14.0741,0.77685 22.5384,0 0.94027,-4.37898 3.88531,-8.75796 2,-13.13694 -8.2002,0.0467 -19.05096,-3.06014 -24.5384,0.21542 z"
       id="path3977-6"
       inkscape:connector-curvature="0"
       sodipodi:nodetypes="ccccc" />
    <path
       style="fill:#784421;stroke:#000000;stroke-width:1px;stroke-linecap:butt;stroke-linejoin:miter;stroke-opacity:1"
       d="m 57.5,991.36218 -2,39.00002 c 17.451693,13.6852 33.538962,16.9098 47,0 L 100,990.86218 z"
       id="path4138"
       inkscape:connector-curvature="0"
       sodipodi:nodetypes="ccccc" />
    <g
       id="g4115"
       transform="translate(-153.5,-97.5)">
      <path
         sodipodi:nodetypes="ccc"
         inkscape:connector-curvature="0"
         id="path3824-6-6"
         d="m 192.46029,1042.8961 c -16.32766,-7.4976 -5.69684,35.3137 2.12378,30.0521 z"
         style="fill:#784421;stroke:#000000;stroke-width:1px;stroke-linecap:butt;stroke-linejoin:miter;stroke-opacity:1" />
      <path
         sodipodi:nodetypes="cc"
         inkscape:connector-curvature="0"
         id="path3973-0"
         d="m 192.57352,1046.0781 c -9.21737,-2.9894 -5.04549,9.5528 -3.00521,19.6222"
         style="fill:none;stroke:#000000;stroke-width:1px;stroke-linecap:butt;stroke-linejoin:miter;stroke-opacity:1" />
      <path
         sodipodi:nodetypes="ccc"
         inkscape:connector-curvature="0"
         id="path3824-3"
         d="m 273.53971,1042.8961 c 16.32765,-7.4976 5.69683,35.3137 -2.12379,30.0521 z"
         style="fill:#784421;stroke:#000000;stroke-width:1px;stroke-linecap:butt;stroke-linejoin:miter;stroke-opacity:1" />
      <path
         sodipodi:nodetypes="cc"
         inkscape:connector-curvature="0"
         id="path3971-6"
         d="m 274.24435,1046.0781 c 7.99035,-3.6007 3.74088,8.9036 3.53554,16.0867"
         style="fill:none;stroke:#000000;stroke-width:1px;stroke-linecap:butt;stroke-linejoin:miter;stroke-opacity:1" />
      <path
         sodipodi:nodetypes="scccccs"
         inkscape:connector-curvature="0"
         id="path3755-2"
         d="m 232.93003,1000.236 c -23.19596,0 -42,18.8041 -42,42 0,41.926 14.98626,52.6364 32,67 6.20997,2.1184 12.68672,3.1698 20.21875,0 l 0.0312,0 c 23.92882,-22.2995 31.65392,-27.7468 31.75005,-67 0,-23.1959 -18.80404,-42 -42,-42 z"
         style="fill:#784421;fill-opacity:1;fill-rule:nonzero;stroke:#000000;stroke-width:1;stroke-linejoin:miter;stroke-miterlimit:4;stroke-opacity:1;stroke-dasharray:none;stroke-dashoffset:0" />
      <path
         sodipodi:nodetypes="cscsc"
         inkscape:connector-curvature="0"
         id="path3779-4"
         d="m 274.82646,1051.736 c -6.16879,-23.0222 -26.25015,-32.5092 -41.99967,-32.4496 -15.74951,0.06 -35.23255,8.6246 -41.61644,32.4496 -4.41942,-29.3444 14.31978,-52.24998 41.71966,-52.24998 28.46055,0 46.8462,25.02688 41.89645,52.24998 z"
         style="fill:url(#radialGradient3796-0);fill-opacity:1;fill-rule:nonzero;stroke:#000000;stroke-width:0.99999994;stroke-linejoin:miter;stroke-miterlimit:4;stroke-opacity:1;stroke-dashoffset:0" />
      <path
         sodipodi:nodetypes="cccc"
         inkscape:connector-curvature="0"
         id="path3800-5"
         d="m 218.20612,1090.151 c 4.80195,-0.9388 7.70758,-3.8338 14.56536,-2.6517 7.5342,-0.7328 10.38049,1.7586 14.77956,3.182 -11.92645,5.6393 -21.41224,4.6603 -29.34492,-0.5303 z"
         style="fill:#782121;stroke:#552200;stroke-width:0.99999994px;stroke-linecap:butt;stroke-linejoin:miter;stroke-opacity:1" />
      <path
         sodipodi:nodetypes="ccc"
         inkscape:connector-curvature="0"
         id="path3798-8"
         d="m 218.38237,1090.736 28.47446,0 c -5.35669,6.5979 -23.1071,6.6216 -28.47446,0 z"
         style="fill:#782121;stroke:#552200;stroke-width:0.99999994px;stroke-linecap:butt;stroke-linejoin:miter;stroke-opacity:1" />
      <path
         sodipodi:nodetypes="cccc"
         inkscape:connector-curvature="0"
         id="path3802-8"
         d="m 221.21511,1074.3498 c -0.6718,2.1173 0.4918,4.4371 4.28551,4.0636 4.25626,2.3396 8.51253,1.8631 12.7688,0 3.34352,0.1611 5.6927,-1.081 4.84333,-3.8653"
         style="fill:none;stroke:#000000;stroke-width:0.99999994px;stroke-linecap:butt;stroke-linejoin:miter;stroke-opacity:1" />
      <path
         sodipodi:nodetypes="ccc"
         inkscape:connector-curvature="0"
         id="path3804-12"
         d="m 203.93005,1054.5093 c 6.68102,-5.6725 14.0285,-6.2942 22.25,-0.292 -8.7734,6.3264 -15.04421,5.5693 -22.25,0.292 z"
         style="fill:#ffffff;stroke:#000000;stroke-width:1px;stroke-linecap:butt;stroke-linejoin:miter;stroke-opacity:1" />
      <path
         sodipodi:nodetypes="ccc"
         inkscape:connector-curvature="0"
         id="path3804-1-1"
         d="m 259.93005,1054.5093 c -6.68102,-5.6725 -14.0285,-6.2942 -22.25,-0.292 8.7734,6.3264 15.04421,5.5693 22.25,0.292 z"
         style="fill:#ffffff;stroke:#000000;stroke-width:1px;stroke-linecap:butt;stroke-linejoin:miter;stroke-opacity:1" />
      <path
         inkscape:connector-curvature="0"
         id="path3804-8-4"
         d="m 214.54714,1049.9701 c -1.19386,0.037 -2.37662,0.2596 -3.53125,0.5937 -0.75783,1.0058 -1.21875,2.2375 -1.21875,3.5938 0,1.5959 0.64147,3.0488 1.65625,4.125 3.02162,0.7604 6.09298,0.4854 9.5,-1 0.55217,-0.9088 0.875,-1.984 0.875,-3.125 0,-1.0373 -0.25611,-1.9921 -0.71875,-2.8438 -0.007,-0.012 -0.0244,-0.019 -0.0312,-0.031 -2.24661,-0.926 -4.41545,-1.3778 -6.53125,-1.3125 z"
         style="fill:#502d16;stroke:#000000;stroke-width:1px;stroke-linecap:butt;stroke-linejoin:miter;stroke-opacity:1" />
      <path
         inkscape:connector-curvature="0"
         id="path3804-1-2-9"
         d="m 249.44885,1049.942 c -2.17338,-0.067 -4.43845,0.395 -6.75,1.375 -0.57424,0.9213 -0.90625,2.022 -0.90625,3.1875 0,0.8792 0.192,1.6848 0.53125,2.4375 3.66556,1.7543 6.94825,2.1372 10.15625,1.3437 0.84092,-1.034 1.34375,-2.3445 1.34375,-3.7812 0,-1.6278 -0.66774,-3.1052 -1.71875,-4.1875 -0.88151,-0.1994 -1.75212,-0.3471 -2.65625,-0.375 z"
         style="fill:#502d16;stroke:#000000;stroke-width:1px;stroke-linecap:butt;stroke-linejoin:miter;stroke-opacity:1" />
      <path
         d="m 488.78758,64.717361 c 0,1.464467 -1.18719,2.651651 -2.65165,2.651651 -1.46447,0 -2.65166,-1.187184 -2.65166,-2.651651 0,-1.464466 1.18719,-2.65165 2.65166,-2.65165 1.46446,0 2.65165,1.187184 2.65165,2.65165 z"
         sodipodi:ry="2.6516504"
         sodipodi:rx="2.6516504"
         sodipodi:cy="64.717361"
         sodipodi:cx="486.13593"
         id="path3920-7-8"
         style="fill:#000000;fill-opacity:1;fill-rule:nonzero;stroke:#000000;stroke-width:1;stroke-linejoin:miter;stroke-miterlimit:4;stroke-opacity:1;stroke-dasharray:none;stroke-dashoffset:0"
         sodipodi:type="arc"
         transform="translate(-238.33486,989.73176)" />
      <path
         d="m 488.78758,64.717361 c 0,1.464467 -1.18719,2.651651 -2.65165,2.651651 -1.46447,0 -2.65166,-1.187184 -2.65166,-2.651651 0,-1.464466 1.18719,-2.65165 2.65166,-2.65165 1.46446,0 2.65165,1.187184 2.65165,2.65165 z"
         sodipodi:ry="2.6516504"
         sodipodi:rx="2.6516504"
         sodipodi:cy="64.717361"
         sodipodi:cx="486.13593"
         id="path3920-1-2"
         style="fill:#000000;fill-opacity:1;fill-rule:nonzero;stroke:#000000;stroke-width:1;stroke-linejoin:miter;stroke-miterlimit:4;stroke-opacity:1;stroke-dasharray:none;stroke-dashoffset:0"
         sodipodi:type="arc"
         transform="translate(-270.40466,989.55499)" />
      <path
         sodipodi:nodetypes="ccc"
         inkscape:connector-curvature="0"
         id="path3947-4"
         d="m 260.98611,1043.6032 c 0,2.8359 -7.97966,-1.3282 -22.98097,2.4749 9.918,-6.3921 22.98097,-6.1768 22.98097,-2.4749 z"
         style="fill:#333333;stroke:#1a1a1a;stroke-width:1px;stroke-linecap:butt;stroke-linejoin:miter;stroke-opacity:1" />
      <path
         sodipodi:nodetypes="ccc"
         inkscape:connector-curvature="0"
         id="path3949-5"
         d="m 226.33786,1045.9354 c -10.6891,-2.8642 -22.45064,1.1541 -22.45064,-1.4483 0,-3.87 13.10609,-4.0594 22.45064,1.4483 z"
         style="fill:#333333;stroke:#1a1a1a;stroke-width:1px;stroke-linecap:butt;stroke-linejoin:miter;stroke-opacity:1" />
      <path
         sodipodi:nodetypes="cc"
         inkscape:connector-curvature="0"
         id="path3951-2"
         d="m 215.68003,1036.1377 c 2.16201,-2.162 30.49994,-2.1652 31.75,0"
         style="fill:none;stroke:#502d16;stroke-width:0.5;stroke-linecap:butt;stroke-linejoin:miter;stroke-miterlimit:4;stroke-opacity:1;stroke-dasharray:none" />
      <path
         sodipodi:nodetypes="cccccc"
         inkscape:connector-curvature="0"
         id="path3979-9"
         d="m 263.8542,1046.2575 1,3.75 11.70083,-8.3965 1.625,0 c -0.29126,-0.6836 -0.31966,-1.4288 -1.625,-1.875 z"
         style="fill:#000000;stroke:#000000;stroke-width:1px;stroke-linecap:butt;stroke-linejoin:miter;stroke-opacity:1" />
      <path
         sodipodi:nodetypes="sccccssccccs"
         inkscape:connector-curvature="0"
         id="path3977-9"
         d="m 242.21128,1044.6735 c -2.95797,0.08 -5.57912,0.5748 -7.59375,1.7813 -1.81221,5.0764 -2.25932,10.1422 0,15.2187 7.48765,5.8055 16.89963,0.9156 26.84375,0 1.10466,-5.1611 4.21492,-10.3389 2,-15.5 -6.62327,0.038 -14.74246,-1.6765 -21.25,-1.5 z m 1,1.5 c 5.53913,-0.1497 12.42486,1.3134 18.0625,1.2813 1.88531,4.3789 -1.05973,8.7772 -2,13.1562 -8.4643,0.7769 -16.15787,4.9257 -22.53125,0 -1.92311,-4.3072 -1.54253,-8.6304 0,-12.9375 1.71483,-1.0236 3.95097,-1.4319 6.46875,-1.5 z"
         style="fill:#1a1a1a;stroke:#000000;stroke-width:0.99999994px;stroke-linecap:butt;stroke-linejoin:miter;stroke-opacity:1" />
      <path
         sodipodi:nodetypes="ccccc"
         inkscape:connector-curvature="0"
         id="path3977-6-8"
         d="m 236.74964,1047.6746 c -1.54253,4.3071 -1.92311,8.6143 0,12.9215 6.37338,4.9257 14.0741,0.7768 22.5384,0 0.94027,-4.379 3.88531,-8.758 2,-13.137 -8.2002,0.047 -19.05096,-3.0601 -24.5384,0.2155 z"
         style="opacity:0.3;fill:#c83737;stroke:#000000;stroke-width:0.99999994px;stroke-linecap:butt;stroke-linejoin:miter;stroke-opacity:1" />
    </g>
    <path
       style="fill:#000000;stroke:#000000;stroke-width:1px;stroke-linecap:butt;stroke-linejoin:miter;stroke-opacity:1"
       d="m -15.5,1036.4229 c 27.698156,-6.2658 60.465848,-6.7838 70.896447,-22.3107 9.491689,37.6709 40.167947,36.8761 46.603553,-0.75 14.8856,18.8076 48.95875,18.7593 71.5,24.0607 l 0,35.9393 -191,0 z"
       id="path4140"
       inkscape:connector-curvature="0"
       sodipodi:nodetypes="ccccccc" />
    <path
       style="fill:#ffffff;stroke:#000000;stroke-width:1px;stroke-linecap:butt;stroke-linejoin:miter;stroke-opacity:1"
       d="m 56.232756,1018.1208 17.483126,15.7457 13.611805,-0.3536 15.611803,-15.6724 1.78338,59.7631 -51.932502,0.9267 z"
       id="path4148"
       inkscape:connector-curvature="0"
       sodipodi:nodetypes="ccccccc" />
    <path
       style="fill:#536c67;stroke:#000000;stroke-width:1px;stroke-linecap:butt;stroke-linejoin:miter;stroke-opacity:1"
       d="m 75.25,1056.3622 -5.25,29.75 22.375,-0.25 -6.875,-31.25 z"
       id="path4152"
       inkscape:connector-curvature="0" />
    <path
       style="fill:#536c67;stroke:#000000;stroke-width:1px;stroke-linecap:butt;stroke-linejoin:miter;stroke-opacity:1"
       d="m 67.75,1036.3622 c 8.998478,-2.4909 17.408143,-1.4489 25.75,0 -0.110295,6.4859 -4.746063,13.1032 -7.5,20.25 -6.25,1.7418 -4.5,1.5901 -10.75,0 -2.517098,-6.4124 -7.649478,-13.171 -7.5,-20.25 z"
       id="path4150"
       inkscape:connector-curvature="0"
       sodipodi:nodetypes="ccccc" />
    <path
       style="fill:#ffffff;stroke:#000000;stroke-width:1px;stroke-linecap:butt;stroke-linejoin:miter;stroke-opacity:1"
       d="m 56.242112,1012.4766 c 6.142241,7.0754 10.256192,15.1088 22.867391,21.2619 -2.982178,6.3447 -9.536629,10.7501 -11.531419,23.9928 -4.58117,-9.499 -8.96066,-20.2058 -12.508658,-35.8918 -0.257988,-4.4162 0.403929,-6.9961 1.172686,-9.3629 z"
       id="path4144"
       inkscape:connector-curvature="0"
       sodipodi:nodetypes="ccccc" />
    <path
       style="fill:#ffffff;stroke:#000000;stroke-width:0.99999994px;stroke-linecap:butt;stroke-linejoin:miter;stroke-opacity:1"
       d="m 101.65562,1012.1229 c 1.03798,2.2149 1.62199,4.8824 1.5963,8.1579 -0.83256,12.3162 -2.69569,24.4269 -6.185649,36.2131 -4.369754,-8.5095 -8.791884,-16.9668 -15.763417,-22.8819 9.389802,-4.936 14.516077,-13.5161 20.352766,-21.4891 z"
       id="path4146"
       inkscape:connector-curvature="0"
       sodipodi:nodetypes="ccccc" />
    <rect
       style="fill:none;fill-opacity:1;fill-rule:nonzero;stroke:#0000ff;stroke-width:1.99999988000000010;stroke-miterlimit:4;stroke-dasharray:none"
       id="rect2985-3"
       width="158"
       height="158"
       x="1"
       y="893.36218" />
  </g>
</svg>
