<?xml version="1.0" encoding="UTF-8" standalone="no"?>
<!-- Created with Inkscape (http://www.inkscape.org/) -->

<svg
   xmlns:dc="http://purl.org/dc/elements/1.1/"
   xmlns:cc="http://creativecommons.org/ns#"
   xmlns:rdf="http://www.w3.org/1999/02/22-rdf-syntax-ns#"
   xmlns:svg="http://www.w3.org/2000/svg"
   xmlns="http://www.w3.org/2000/svg"
   xmlns:sodipodi="http://sodipodi.sourceforge.net/DTD/sodipodi-0.dtd"
   xmlns:inkscape="http://www.inkscape.org/namespaces/inkscape"
   width="160"
   height="160"
   id="svg2"
   version="1.1"
   inkscape:version="0.48.5 r10040"
   sodipodi:docname="scicon.svg"
   inkscape:export-filename="C:\Users\Nick\Desktop\HTML5 Games\Childhood\img\scicon.png"
   inkscape:export-xdpi="90"
   inkscape:export-ydpi="90">
  <defs
     id="defs4" />
  <sodipodi:namedview
     id="base"
     pagecolor="#ffffff"
     bordercolor="#666666"
     borderopacity="1.0"
     inkscape:pageopacity="0.0"
     inkscape:pageshadow="2"
     inkscape:zoom="1"
     inkscape:cx="468.39516"
     inkscape:cy="62.31434"
     inkscape:document-units="px"
     inkscape:current-layer="layer1"
     showgrid="false"
     fit-margin-top="0"
     fit-margin-left="0"
     fit-margin-right="0"
     fit-margin-bottom="0"
     inkscape:window-width="1920"
     inkscape:window-height="1018"
     inkscape:window-x="-8"
     inkscape:window-y="-8"
     inkscape:window-maximized="1"
     showguides="true"
     inkscape:guide-bbox="true" />
  <metadata
     id="metadata7">
    <rdf:RDF>
      <cc:Work
         rdf:about="">
        <dc:format>image/svg+xml</dc:format>
        <dc:type
           rdf:resource="http://purl.org/dc/dcmitype/StillImage" />
        <dc:title />
      </cc:Work>
    </rdf:RDF>
  </metadata>
  <g
     inkscape:label="Layer 1"
     inkscape:groupmode="layer"
     id="layer1"
     transform="translate(0,-892.36224)">
    <path
       style="fill:#d38d5f;stroke:#000000;stroke-width:1px;stroke-linecap:butt;stroke-linejoin:miter;stroke-opacity:1"
       d="m 297.30158,943.36224 2.75,28.25 c -11.43608,3.06429 -18.88002,-44.38003 -2.75,-28.25 z"
       id="path3955-5"
       inkscape:connector-curvature="0"
       sodipodi:nodetypes="ccc" />
    <path
       style="fill:none;stroke:#000000;stroke-width:1px;stroke-linecap:butt;stroke-linejoin:miter;stroke-opacity:1"
       d="m 297.3384,56.762409 c -6.50251,-10.442556 -9.97253,-3.153018 -3.47487,12.733127"
       id="path4015"
       inkscape:connector-curvature="0"
       transform="translate(0,892.36224)"
       sodipodi:nodetypes="cc" />
    <path
       style="fill:#d38d5f;stroke:#000000;stroke-width:1px;stroke-linecap:butt;stroke-linejoin:miter;stroke-opacity:1"
       d="m 374.25,943.36224 -2.75,28.25 c 11.43608,3.06429 18.88002,-44.38003 2.75,-28.25 z"
       id="path3955"
       inkscape:connector-curvature="0"
       sodipodi:nodetypes="ccc" />
    <path
       style="fill:none;stroke:#000000;stroke-width:1px;stroke-linecap:butt;stroke-linejoin:miter;stroke-opacity:1"
       d="m 374.58982,58.3534 c 6.35812,-13.873538 9.63195,-3.284729 3.5052,11.154699"
       id="path4013"
       inkscape:connector-curvature="0"
       transform="translate(0,892.36224)"
       sodipodi:nodetypes="cc" />
    <rect
       style="fill:#b3b3b3;fill-opacity:1;fill-rule:nonzero;stroke:#0000ff;stroke-width:2;stroke-linejoin:miter;stroke-miterlimit:4;stroke-opacity:1;stroke-dasharray:none;stroke-dashoffset:0"
       id="rect2985"
       width="158"
       height="158"
       x="1"
       y="893.36224" />
    <path
       style="fill:#d38d5f;fill-opacity:1;fill-rule:nonzero;stroke:#000000;stroke-width:0.99999994;stroke-linejoin:miter;stroke-miterlimit:4;stroke-opacity:1;stroke-dasharray:none;stroke-dashoffset:0"
       d="m 336,10 c -22.09139,0 -40,17.90861 -40,40 0,11.539838 4.93105,33.924217 6.84375,41.0625 1.9127,7.138283 11.31458,16.24092 22.84375,21.90625 6.57868,2.3737 14.30669,2.29268 20.21875,0 9.95779,-4.50524 20.97797,-15.512198 23.375,-22.65625 C 371.67828,83.168448 376,58.476305 376,50 376,27.90861 358.09139,10 336,10 z"
       transform="translate(0,892.36224)"
       id="path3757"
       inkscape:connector-curvature="0"
       sodipodi:nodetypes="sczcczcs" />
    <path
       style="fill:none;stroke:#000000;stroke-width:1px;stroke-linecap:butt;stroke-linejoin:miter;stroke-opacity:1"
       d="m 331.25,973.18546 c 3.04925,1.79549 5.86601,2.19605 8.25,0"
       id="path3781"
       inkscape:connector-curvature="0"
       sodipodi:nodetypes="cc" />
    <path
       style="fill:none;stroke:#000000;stroke-width:1px;stroke-linecap:butt;stroke-linejoin:miter;stroke-opacity:1"
       d="m 340.64644,968.68546 c 2.5576,0.46544 4.4948,1.30312 3.75,3.75"
       id="path3783"
       inkscape:connector-curvature="0"
       sodipodi:nodetypes="cc" />
    <path
       style="fill:none;stroke:#000000;stroke-width:1px;stroke-linecap:butt;stroke-linejoin:miter;stroke-opacity:1"
       d="m 330.7647,968.68546 c -2.5576,0.46544 -4.4948,1.30312 -3.75,3.75"
       id="path3783-7"
       inkscape:connector-curvature="0"
       sodipodi:nodetypes="cc" />
    <path
       style="fill:#d35f5f;stroke:#a02c2c;stroke-width:1px;stroke-linecap:butt;stroke-linejoin:miter;stroke-opacity:1"
       d="m 322.5,92 c 4.26402,-1.434469 6.0985,-3.838738 13.5,-2.75 7.53064,-0.6917 9.36283,1.308789 12.5,3.25 -13.09224,5.310829 -12.8951,3.71229 -26,-0.5 z"
       id="path3805"
       inkscape:connector-curvature="0"
       transform="translate(0,892.36224)"
       sodipodi:nodetypes="cccc" />
    <path
       style="fill:#d35f5f;stroke:#a02c2c;stroke-width:1px;stroke-linecap:butt;stroke-linejoin:miter;stroke-opacity:1"
       d="m 322.5,984.61224 c 9.93429,2.08596 15.61576,2.12639 26.25,0.17678 -8.90158,11.83704 -22.33417,7.23123 -26.25,-0.17678 z"
       id="path3803"
       inkscape:connector-curvature="0"
       sodipodi:nodetypes="ccc" />
    <path
       style="fill:#ffffff;stroke:#000000;stroke-width:1px;stroke-linecap:butt;stroke-linejoin:miter;stroke-opacity:1"
       d="m 342.71456,954.64978 c 3.33502,-3.78617 11.72715,-4.91909 17.67767,0.53033 -9.31674,3.16899 -9.12528,3.08799 -17.67767,-0.53033 z"
       id="path3807"
       inkscape:connector-curvature="0"
       sodipodi:nodetypes="ccc" />
    <path
       style="fill:#ffffff;stroke:#000000;stroke-width:1px;stroke-linecap:butt;stroke-linejoin:miter;stroke-opacity:1"
       d="m 330.39223,954.64978 c -3.33502,-3.78617 -11.72715,-4.91909 -17.67767,0.53033 9.31674,3.16899 9.12528,3.08799 17.67767,-0.53033 z"
       id="path3807-4"
       inkscape:connector-curvature="0"
       sodipodi:nodetypes="ccc" />
    <path
       style="fill:#502d16;stroke:#000000;stroke-width:1px;stroke-linecap:butt;stroke-linejoin:miter;stroke-opacity:1"
       d="m 350.55336,951.46514 c -0.77003,0.0178 -1.52884,0.0785 -2.25,0.21875 -0.0117,0.002 -0.0196,0.029 -0.0312,0.0312 -0.7691,0.7691 -1.25,1.82639 -1.25,3 0,0.68795 0.17856,1.33138 0.46875,1.90625 2.79703,1.00981 4.4435,1.08393 7.375,0.29956 0.41103,-0.65419 0.65625,-1.37618 0.65625,-2.20581 0,-1.0548 -0.39508,-2.00705 -1.03125,-2.75 -1.32785,-0.35863 -2.65382,-0.52967 -3.9375,-0.5 z"
       id="path3807-0"
       inkscape:connector-curvature="0"
       sodipodi:nodetypes="cccsccsccc" />
    <path
       style="fill:#502d16;stroke:#000000;stroke-width:1px;stroke-linecap:butt;stroke-linejoin:miter;stroke-opacity:1"
       d="m 322.52808,951.45062 c -1.28368,-0.0297 -2.60965,0.14137 -3.9375,0.5 -0.63617,0.74295 -1.03125,1.6952 -1.03125,2.75 0,0.82963 0.24522,1.59581 0.65625,2.25 2.9315,0.78437 4.57797,0.66606 7.375,-0.34375 0.29019,-0.57487 0.46875,-1.2183 0.46875,-1.90625 0,-1.17361 -0.4809,-2.2309 -1.25,-3 -0.0103,-0.0103 -0.0208,-0.021 -0.0312,-0.0312 -0.72116,-0.14024 -1.47997,-0.20095 -2.25,-0.21875 z"
       id="path3807-4-8"
       inkscape:connector-curvature="0" />
    <path
       sodipodi:type="arc"
       style="fill:#000000;fill-opacity:1;fill-rule:nonzero;stroke:#000000;stroke-width:1.29999995;stroke-linejoin:miter;stroke-miterlimit:4;stroke-opacity:1;stroke-dasharray:none;stroke-dashoffset:0"
       id="path3922-2"
       sodipodi:cx="435.401"
       sodipodi:cy="61.358604"
       sodipodi:rx="2.2980971"
       sodipodi:ry="2.2980971"
       d="m 437.6991,61.358604 c 0,1.269204 -1.0289,2.298098 -2.2981,2.298098 -1.2692,0 -2.2981,-1.028894 -2.2981,-2.298098 0,-1.269204 1.0289,-2.298097 2.2981,-2.298097 1.2692,0 2.2981,1.028893 2.2981,2.298097 z"
       transform="matrix(0.76923078,0,0,0.76923078,16.331442,907.47251)" />
    <path
       sodipodi:type="arc"
       style="fill:#000000;fill-opacity:1;fill-rule:nonzero;stroke:#000000;stroke-width:1.29999995;stroke-linejoin:miter;stroke-miterlimit:4;stroke-opacity:1;stroke-dasharray:none;stroke-dashoffset:0"
       id="path3922-4"
       sodipodi:cx="435.401"
       sodipodi:cy="61.358604"
       sodipodi:rx="2.2980971"
       sodipodi:ry="2.2980971"
       d="m 437.6991,61.358604 c 0,1.269204 -1.0289,2.298098 -2.2981,2.298098 -1.2692,0 -2.2981,-1.028894 -2.2981,-2.298098 0,-1.269204 1.0289,-2.298097 2.2981,-2.298097 1.2692,0 2.2981,1.028893 2.2981,2.298097 z"
       transform="matrix(0.76923078,0,0,0.76923078,-13.146072,907.56091)" />
    <path
       style="fill:#333333;stroke:#1a1a1a;stroke-width:1px;stroke-linecap:butt;stroke-linejoin:miter;stroke-opacity:1"
       d="m 343.55034,947.01069 c -1.46705,-0.70884 -1.26259,-2.18569 0,-3.71231 5.11467,-1.27227 10.50988,-4.50838 15.2028,-2.82843 1.7342,2.28974 2.03443,2.83523 1.41421,3.71232 -8.06242,-0.73947 -11.12561,1.85388 -16.61701,2.82842 z"
       id="path3949"
       inkscape:connector-curvature="0"
       sodipodi:nodetypes="ccccc" />
    <path
       style="fill:#333333;stroke:#1a1a1a;stroke-width:1px;stroke-linecap:butt;stroke-linejoin:miter;stroke-opacity:1"
       d="m 327.92077,943.3716 c 2.53708,0.88388 2.24576,2.2981 1.94454,2.82843 -0.88646,1.94274 -14.78773,-1.64638 -17.32411,-0.82322 -1.44486,-0.94281 -0.19662,-3.565 0.70711,-4.5962 4.89506,-1.33431 9.78236,2.62821 14.67246,2.59099 z"
       id="path3951"
       inkscape:connector-curvature="0"
       sodipodi:nodetypes="ccccc" />
    <path
       style="fill:#1a1a1a;stroke:#000000;stroke-width:1px;stroke-linecap:butt;stroke-linejoin:miter;stroke-opacity:1"
       d="m 297,62.5 c 2.23393,-24.077451 8.95478,-44.464674 22.75,-36.5 11.26288,7.095182 22.38932,7.17252 32.5,0.25 15.45629,-8.923695 20.5257,17.253857 22.625,36.25 17.46605,-73.46512 -96.04484,-71.3864413 -77.875,0 z"
       id="path3953"
       inkscape:connector-curvature="0"
       transform="translate(0,892.36224)"
       sodipodi:nodetypes="ccccc" />
    <g
       id="g4118">
      <path
         sodipodi:nodetypes="cccszscccc"
         inkscape:connector-curvature="0"
         id="path3975"
         d="m 294.5,841.36224 c -0.59761,2.62857 -1.24976,5.27077 0.75,7.25 9.49847,2.82475 12.19764,7.78253 15.75,13.25 4.30861,1.70476 9.33511,3.00411 13.28169,3.89808 3.94658,0.89397 4.21349,-2.53415 11.32214,-2.53415 7.10865,0 8.67038,3.76122 12.37821,3.03388 3.70783,-0.72733 9.43685,-1.85995 13.26796,-3.39781 3.952,-4.98517 6.30621,-9.92006 15.5,-14.25 1.48324,-2.75 1.23985,-5.5 0.75,-8.25 -27.66667,7.05163 -55.33333,6.60503 -83,1 z"
         style="opacity:0.5;fill:#d4aa00;stroke:none" />
      <path
         sodipodi:nodetypes="cccszscccc"
         inkscape:connector-curvature="0"
         id="path3975-1"
         d="m 294.5,841.36224 c -0.59761,2.62857 -1.24976,5.27077 0.75,7.25 9.49847,2.82475 12.19764,7.78253 15.75,13.25 4.30861,1.70476 9.33511,3.00411 13.28169,3.89808 3.94658,0.89397 4.21349,-2.53415 11.32214,-2.53415 7.10865,0 8.67038,3.76122 12.37821,3.03388 3.70783,-0.72733 9.43685,-1.85995 13.26796,-3.39781 3.952,-4.98517 6.30621,-9.92006 15.5,-14.25 1.48324,-2.75 1.23985,-5.5 0.75,-8.25 -27.66667,7.05163 -55.33333,6.60503 -83,1 z"
         style="fill:none;stroke:#000000;stroke-width:1px;stroke-linecap:butt;stroke-linejoin:miter;stroke-opacity:1" />
    </g>
    <path
       style="fill:#d38d5f;stroke:#000000;stroke-width:1px;stroke-linecap:butt;stroke-linejoin:miter;stroke-opacity:1"
       d="m 60.25,1001.1122 42,0 3.5,33 c -16.5,9.6547 -33,9.0074 -49.5,0 z"
       id="path4122"
       inkscape:connector-curvature="0"
       sodipodi:nodetypes="ccccc" />
    <path
       style="fill:#e6e6e6;stroke:#000000;stroke-width:1px;stroke-linecap:butt;stroke-linejoin:miter;stroke-opacity:1"
       d="m 51.5,1027.8622 c -18.847571,5.5976 -36.88575,10.1358 -61.5,21.5 l -0.5,41.5 187.44365,0 -0.13604,-43.0073 c -21.16987,-6.2863 -39.03484,-15.257 -66.05761,-20.2427 z"
       id="path4126"
       inkscape:connector-curvature="0"
       sodipodi:nodetypes="ccccccc" />
    <g
       id="g4095"
       transform="translate(-347,-166)">
      <path
         sodipodi:nodetypes="ccc"
         inkscape:connector-curvature="0"
         id="path3955-5-7"
         d="m 389.52579,1116.9139 2.75,28.25 c -11.43608,3.0643 -18.88002,-44.38 -2.75,-28.25 z"
         style="fill:#d38d5f;stroke:#000000;stroke-width:1px;stroke-linecap:butt;stroke-linejoin:miter;stroke-opacity:1" />
      <path
         sodipodi:nodetypes="cc"
         inkscape:connector-curvature="0"
         id="path4015-1"
         d="m 389.56261,1122.6763 c -6.50251,-10.4425 -9.97253,-3.153 -3.47487,12.7332"
         style="fill:none;stroke:#000000;stroke-width:1px;stroke-linecap:butt;stroke-linejoin:miter;stroke-opacity:1" />
      <path
         sodipodi:nodetypes="ccc"
         inkscape:connector-curvature="0"
         id="path3955-1"
         d="m 466.47421,1116.9139 -2.75,28.25 c 11.43608,3.0643 18.88002,-44.38 2.75,-28.25 z"
         style="fill:#d38d5f;stroke:#000000;stroke-width:1px;stroke-linecap:butt;stroke-linejoin:miter;stroke-opacity:1" />
      <path
         sodipodi:nodetypes="cc"
         inkscape:connector-curvature="0"
         id="path4013-5"
         d="m 466.81403,1124.2673 c 6.35812,-13.8735 9.63195,-3.2847 3.5052,11.1547"
         style="fill:none;stroke:#000000;stroke-width:1px;stroke-linecap:butt;stroke-linejoin:miter;stroke-opacity:1" />
      <path
         sodipodi:nodetypes="sczcczcs"
         inkscape:connector-curvature="0"
         id="path3757-2"
         d="m 428.22421,1075.9139 c -22.09139,0 -40,17.9086 -40,40 0,11.5399 4.93105,33.9242 6.84375,41.0625 1.9127,7.1383 11.31458,16.2409 22.84375,21.9063 6.57868,2.3737 14.30669,2.2927 20.21875,0 9.95779,-4.5053 20.97797,-15.5122 23.375,-22.6563 2.39703,-7.144 6.71875,-31.8362 6.71875,-40.3125 0,-22.0914 -17.90861,-40 -40,-40 z"
         style="fill:#d38d5f;fill-opacity:1;fill-rule:nonzero;stroke:#000000;stroke-width:0.99999994;stroke-linejoin:miter;stroke-miterlimit:4;stroke-opacity:1;stroke-dasharray:none;stroke-dashoffset:0" />
      <path
         sodipodi:nodetypes="cc"
         inkscape:connector-curvature="0"
         id="path3781-7"
         d="m 423.47421,1146.7371 c 3.04925,1.7955 5.86601,2.1961 8.25,0"
         style="fill:none;stroke:#000000;stroke-width:1px;stroke-linecap:butt;stroke-linejoin:miter;stroke-opacity:1" />
      <path
         sodipodi:nodetypes="cc"
         inkscape:connector-curvature="0"
         id="path3783-6"
         d="m 432.87065,1142.2371 c 2.5576,0.4655 4.4948,1.3032 3.75,3.75"
         style="fill:none;stroke:#000000;stroke-width:1px;stroke-linecap:butt;stroke-linejoin:miter;stroke-opacity:1" />
      <path
         sodipodi:nodetypes="cc"
         inkscape:connector-curvature="0"
         id="path3783-7-1"
         d="m 422.98891,1142.2371 c -2.5576,0.4655 -4.4948,1.3032 -3.75,3.75"
         style="fill:none;stroke:#000000;stroke-width:1px;stroke-linecap:butt;stroke-linejoin:miter;stroke-opacity:1" />
      <path
         sodipodi:nodetypes="cccc"
         inkscape:connector-curvature="0"
         id="path3805-4"
         d="m 414.72421,1157.9139 c 4.26402,-1.4344 6.0985,-3.8387 13.5,-2.75 7.53064,-0.6917 9.36283,1.3088 12.5,3.25 -13.09224,5.3109 -12.8951,3.7123 -26,-0.5 z"
         style="fill:#d35f5f;stroke:#a02c2c;stroke-width:1px;stroke-linecap:butt;stroke-linejoin:miter;stroke-opacity:1" />
      <path
         sodipodi:nodetypes="ccc"
         inkscape:connector-curvature="0"
         id="path3803-2"
         d="m 414.72421,1158.1639 c 9.93429,2.086 15.61576,2.1264 26.25,0.1768 -8.90158,11.837 -22.33417,7.2312 -26.25,-0.1768 z"
         style="fill:#d35f5f;stroke:#a02c2c;stroke-width:1px;stroke-linecap:butt;stroke-linejoin:miter;stroke-opacity:1" />
      <path
         sodipodi:nodetypes="ccc"
         inkscape:connector-curvature="0"
         id="path3807-3"
         d="m 434.93877,1128.2015 c 3.33502,-3.7862 11.72715,-4.9191 17.67767,0.5303 -9.31674,3.169 -9.12528,3.088 -17.67767,-0.5303 z"
         style="fill:#ffffff;stroke:#000000;stroke-width:1px;stroke-linecap:butt;stroke-linejoin:miter;stroke-opacity:1" />
      <path
         sodipodi:nodetypes="ccc"
         inkscape:connector-curvature="0"
         id="path3807-4-2"
         d="m 422.61644,1128.2015 c -3.33502,-3.7862 -11.72715,-4.9191 -17.67767,0.5303 9.31674,3.169 9.12528,3.088 17.67767,-0.5303 z"
         style="fill:#ffffff;stroke:#000000;stroke-width:1px;stroke-linecap:butt;stroke-linejoin:miter;stroke-opacity:1" />
      <path
         sodipodi:nodetypes="cccsccsccc"
         inkscape:connector-curvature="0"
         id="path3807-0-2"
         d="m 442.77757,1125.0168 c -0.77003,0.018 -1.52884,0.078 -2.25,0.2188 -0.0117,0 -0.0196,0.029 -0.0312,0.031 -0.7691,0.7691 -1.25,1.8264 -1.25,3 0,0.6879 0.17856,1.3314 0.46875,1.9062 2.79703,1.0098 4.4435,1.084 7.375,0.2996 0.41103,-0.6542 0.65625,-1.3762 0.65625,-2.2058 0,-1.0548 -0.39508,-2.0071 -1.03125,-2.75 -1.32785,-0.3587 -2.65382,-0.5297 -3.9375,-0.5 z"
         style="fill:#502d16;stroke:#000000;stroke-width:1px;stroke-linecap:butt;stroke-linejoin:miter;stroke-opacity:1" />
      <path
         inkscape:connector-curvature="0"
         id="path3807-4-8-1"
         d="m 414.75229,1125.0023 c -1.28368,-0.03 -2.60965,0.1414 -3.9375,0.5 -0.63617,0.743 -1.03125,1.6952 -1.03125,2.75 0,0.8296 0.24522,1.5958 0.65625,2.25 2.9315,0.7844 4.57797,0.6661 7.375,-0.3437 0.29019,-0.5749 0.46875,-1.2183 0.46875,-1.9063 0,-1.1736 -0.4809,-2.2309 -1.25,-3 -0.0103,-0.01 -0.0208,-0.021 -0.0312,-0.031 -0.72116,-0.1402 -1.47997,-0.2009 -2.25,-0.2187 z"
         style="fill:#502d16;stroke:#000000;stroke-width:1px;stroke-linecap:butt;stroke-linejoin:miter;stroke-opacity:1" />
      <path
         transform="matrix(0.76923078,0,0,0.76923078,108.55565,1081.0242)"
         d="m 437.6991,61.358604 c 0,1.269204 -1.0289,2.298098 -2.2981,2.298098 -1.2692,0 -2.2981,-1.028894 -2.2981,-2.298098 0,-1.269204 1.0289,-2.298097 2.2981,-2.298097 1.2692,0 2.2981,1.028893 2.2981,2.298097 z"
         sodipodi:ry="2.2980971"
         sodipodi:rx="2.2980971"
         sodipodi:cy="61.358604"
         sodipodi:cx="435.401"
         id="path3922-2-6"
         style="fill:#000000;fill-opacity:1;fill-rule:nonzero;stroke:#000000;stroke-width:1.29999995;stroke-linejoin:miter;stroke-miterlimit:4;stroke-opacity:1;stroke-dasharray:none;stroke-dashoffset:0"
         sodipodi:type="arc" />
      <path
         transform="matrix(0.76923078,0,0,0.76923078,79.078133,1081.1126)"
         d="m 437.6991,61.358604 c 0,1.269204 -1.0289,2.298098 -2.2981,2.298098 -1.2692,0 -2.2981,-1.028894 -2.2981,-2.298098 0,-1.269204 1.0289,-2.298097 2.2981,-2.298097 1.2692,0 2.2981,1.028893 2.2981,2.298097 z"
         sodipodi:ry="2.2980971"
         sodipodi:rx="2.2980971"
         sodipodi:cy="61.358604"
         sodipodi:cx="435.401"
         id="path3922-4-8"
         style="fill:#000000;fill-opacity:1;fill-rule:nonzero;stroke:#000000;stroke-width:1.29999995;stroke-linejoin:miter;stroke-miterlimit:4;stroke-opacity:1;stroke-dasharray:none;stroke-dashoffset:0"
         sodipodi:type="arc" />
      <path
         sodipodi:nodetypes="ccccc"
         inkscape:connector-curvature="0"
         id="path3949-5"
         d="m 435.77455,1120.5624 c -1.46705,-0.7089 -1.26259,-2.1857 0,-3.7123 5.11467,-1.2723 10.50988,-4.5084 15.2028,-2.8285 1.7342,2.2898 2.03443,2.8353 1.41421,3.7124 -8.06242,-0.7395 -11.12561,1.8538 -16.61701,2.8284 z"
         style="fill:#333333;stroke:#1a1a1a;stroke-width:1px;stroke-linecap:butt;stroke-linejoin:miter;stroke-opacity:1" />
      <path
         sodipodi:nodetypes="ccccc"
         inkscape:connector-curvature="0"
         id="path3951-7"
         d="m 420.14498,1116.9233 c 2.53708,0.8839 2.24576,2.2981 1.94454,2.8284 -0.88646,1.9428 -14.78773,-1.6464 -17.32411,-0.8232 -1.44486,-0.9428 -0.19662,-3.565 0.70711,-4.5962 4.89506,-1.3343 9.78236,2.6282 14.67246,2.591 z"
         style="fill:#333333;stroke:#1a1a1a;stroke-width:1px;stroke-linecap:butt;stroke-linejoin:miter;stroke-opacity:1" />
      <path
         sodipodi:nodetypes="ccccc"
         inkscape:connector-curvature="0"
         id="path3953-6"
         d="m 389.22421,1128.4139 c 2.23393,-24.0774 8.95478,-44.4646 22.75,-36.5 11.26288,7.0952 22.38932,7.1725 32.5,0.25 15.45629,-8.9237 20.5257,17.2539 22.625,36.25 17.46605,-73.4651 -96.04484,-71.3864 -77.875,0 z"
         style="fill:#1a1a1a;stroke:#000000;stroke-width:1px;stroke-linecap:butt;stroke-linejoin:miter;stroke-opacity:1" />
      <path
         sodipodi:nodetypes="cccszscccc"
         inkscape:connector-curvature="0"
         id="path3975-18"
         d="m 386.72421,1114.9139 c -0.59761,2.6286 -1.24976,5.2708 0.75,7.25 9.49847,2.8248 12.19764,7.7826 15.75,13.25 4.30861,1.7048 9.33511,3.0041 13.28169,3.8981 3.94658,0.894 4.21349,-2.5341 11.32214,-2.5341 7.10865,0 8.67038,3.7612 12.37821,3.0338 3.70783,-0.7273 9.43685,-1.8599 13.26796,-3.3978 3.952,-4.9851 6.30621,-9.92 15.5,-14.25 1.48324,-2.75 1.23985,-5.5 0.75,-8.25 -27.66667,7.0517 -55.33333,6.6051 -83,1 z"
         style="opacity:0.5;fill:#d4aa00;stroke:none" />
      <path
         sodipodi:nodetypes="cccszscccc"
         inkscape:connector-curvature="0"
         id="path3975-1-9"
         d="m 386.72421,1114.9139 c -0.59761,2.6286 -1.24976,5.2708 0.75,7.25 9.49847,2.8248 12.19764,7.7826 15.75,13.25 4.30861,1.7048 9.33511,3.0041 13.28169,3.8981 3.94658,0.894 4.21349,-2.5341 11.32214,-2.5341 7.10865,0 8.67038,3.7612 12.37821,3.0338 3.70783,-0.7273 9.43685,-1.8599 13.26796,-3.3978 3.952,-4.9851 6.30621,-9.92 15.5,-14.25 1.48324,-2.75 1.23985,-5.5 0.75,-8.25 -27.66667,7.0517 -55.33333,6.6051 -83,1 z"
         style="fill:none;stroke:#000000;stroke-width:1px;stroke-linecap:butt;stroke-linejoin:miter;stroke-opacity:1" />
    </g>
    <path
       style="fill:#333333;stroke:#000000;stroke-width:1px;stroke-linecap:butt;stroke-linejoin:miter;stroke-opacity:1"
       d="m 57.5,1019.1122 c 16.594088,4.0189 32.403774,4.6386 47,0 3.98604,2.9167 6.09608,5.8334 6.75,8.75 -19.885572,5.5498 -40.199034,4.6812 -60.75,0.25 0.43008,-4.1056 3.613292,-6.6119 7,-9 z"
       id="path4124"
       inkscape:connector-curvature="0"
       sodipodi:nodetypes="ccccc" />
    <rect
       style="fill:none;fill-opacity:1;fill-rule:nonzero;stroke:#0000ff;stroke-width:2;stroke-linejoin:miter;stroke-miterlimit:4;stroke-opacity:1;stroke-dasharray:none;stroke-dashoffset:0"
       id="rect2985-2"
       width="158"
       height="158"
       x="1"
       y="893.36224" />
  </g>
</svg>
