<?xml version="1.0" encoding="UTF-8" standalone="no"?>
<!-- Created with Inkscape (http://www.inkscape.org/) -->

<svg
   xmlns:dc="http://purl.org/dc/elements/1.1/"
   xmlns:cc="http://creativecommons.org/ns#"
   xmlns:rdf="http://www.w3.org/1999/02/22-rdf-syntax-ns#"
   xmlns:svg="http://www.w3.org/2000/svg"
   xmlns="http://www.w3.org/2000/svg"
   xmlns:sodipodi="http://sodipodi.sourceforge.net/DTD/sodipodi-0.dtd"
   xmlns:inkscape="http://www.inkscape.org/namespaces/inkscape"
   width="50"
   height="50"
   id="svg2"
   version="1.1"
   inkscape:version="0.48.5 r10040"
   sodipodi:docname="starcaptain.svg"
   inkscape:export-filename="C:\Users\Nick\Desktop\HTML5 Games\Childhood\img\starcaptain.png"
   inkscape:export-xdpi="90"
   inkscape:export-ydpi="90">
  <defs
     id="defs4" />
  <sodipodi:namedview
     id="base"
     pagecolor="#ffffff"
     bordercolor="#666666"
     borderopacity="1.0"
     inkscape:pageopacity="0.0"
     inkscape:pageshadow="2"
     inkscape:zoom="1"
     inkscape:cx="36.632397"
     inkscape:cy="24.261052"
     inkscape:document-units="px"
     inkscape:current-layer="layer1"
     showgrid="false"
     fit-margin-top="0"
     fit-margin-left="0"
     fit-margin-right="0"
     fit-margin-bottom="0"
     inkscape:window-width="1920"
     inkscape:window-height="1018"
     inkscape:window-x="-8"
     inkscape:window-y="-8"
     inkscape:window-maximized="1" />
  <metadata
     id="metadata7">
    <rdf:RDF>
      <cc:Work
         rdf:about="">
        <dc:format>image/svg+xml</dc:format>
        <dc:type
           rdf:resource="http://purl.org/dc/dcmitype/StillImage" />
        <dc:title></dc:title>
      </cc:Work>
    </rdf:RDF>
  </metadata>
  <g
     inkscape:label="Layer 1"
     inkscape:groupmode="layer"
     id="layer1"
     transform="translate(-221.5,-150.86218)">
    <path
       style="fill:#999999;stroke:#000000;stroke-width:0.99999994000000003px;stroke-linecap:butt;stroke-linejoin:miter;stroke-opacity:1"
       d="m 245.77053,154.13453 c -10.63318,6.13907 -5.41978,12.79418 -9.53125,16.90625 -2.75562,2.65522 -5.35618,4.72654 -9.71875,5.96875 0,2.1708 0.0625,5.4375 0.0625,5.4375 2.78646,0.61018 8.70796,1.28719 11.1875,2.71875 0.28592,10.34095 1.56972,10.15625 8.25,10.15625 l 0.3125,0 c 0.0504,0 0.10124,-2e-4 0.15625,0 l 0.0312,0 0.21875,0 0.0312,0 c 0.055,-2e-4 0.10585,0 0.15625,0 l 0.3125,0 c 6.68028,0 7.96408,0.1847 8.25,-10.15625 2.47954,-1.43156 8.40104,-2.10857 11.1875,-2.71875 0,0 0.0625,-3.2667 0.0625,-5.4375 -4.36257,-1.24221 -6.96313,-3.31353 -9.71875,-5.96875 -4.11147,-4.11207 1.10193,-10.76718 -9.53125,-16.90625 l -0.75,0 -0.21875,0 z"
       id="path2987-1"
       inkscape:connector-curvature="0"
       sodipodi:nodetypes="cccccssccccsscccccccc" />
  </g>
</svg>
