<?xml version="1.0" encoding="UTF-8" standalone="no"?>
<!-- Created with Inkscape (http://www.inkscape.org/) -->

<svg
   xmlns:dc="http://purl.org/dc/elements/1.1/"
   xmlns:cc="http://creativecommons.org/ns#"
   xmlns:rdf="http://www.w3.org/1999/02/22-rdf-syntax-ns#"
   xmlns:svg="http://www.w3.org/2000/svg"
   xmlns="http://www.w3.org/2000/svg"
   xmlns:sodipodi="http://sodipodi.sourceforge.net/DTD/sodipodi-0.dtd"
   xmlns:inkscape="http://www.inkscape.org/namespaces/inkscape"
   width="1024"
   height="640"
   id="svg2"
   version="1.1"
   inkscape:version="0.48.5 r10040"
   sodipodi:docname="New document 1">
  <defs
     id="defs4" />
  <sodipodi:namedview
     id="base"
     pagecolor="#ffffff"
     bordercolor="#666666"
     borderopacity="1.0"
     inkscape:pageopacity="0.0"
     inkscape:pageshadow="2"
     inkscape:zoom="1"
     inkscape:cx="594.78142"
     inkscape:cy="366.67822"
     inkscape:document-units="px"
     inkscape:current-layer="layer1"
     showgrid="false"
     inkscape:window-width="1920"
     inkscape:window-height="1018"
     inkscape:window-x="-8"
     inkscape:window-y="-8"
     inkscape:window-maximized="1" />
  <metadata
     id="metadata7">
    <rdf:RDF>
      <cc:Work
         rdf:about="">
        <dc:format>image/svg+xml</dc:format>
        <dc:type
           rdf:resource="http://purl.org/dc/dcmitype/StillImage" />
        <dc:title></dc:title>
      </cc:Work>
    </rdf:RDF>
  </metadata>
  <g
     inkscape:label="Layer 1"
     inkscape:groupmode="layer"
     id="layer1"
     transform="translate(0,-412.36218)">
    <rect
       style="fill:#87aade;fill-opacity:1;fill-rule:nonzero;stroke:none"
       id="rect3807"
       width="1024"
       height="640"
       x="0"
       y="412.36218" />
    <path
       sodipodi:type="arc"
       style="fill:#ffffff;fill-opacity:1;fill-rule:nonzero;stroke:#000000;stroke-width:2.41978383;stroke-linejoin:miter;stroke-miterlimit:4;stroke-opacity:1;stroke-dasharray:none;stroke-dashoffset:0"
       id="path2985"
       sodipodi:cx="729"
       sodipodi:cy="210"
       sodipodi:rx="46"
       sodipodi:ry="46"
       d="m 775,210 a 46,46 0 1 1 -92,0 46,46 0 1 1 92,0 z"
       transform="matrix(0.8265972,0,0,0.82644307,115.08824,315.61142)" />
    <path
       style="fill:none;stroke:#000000;stroke-width:1px;stroke-linecap:butt;stroke-linejoin:miter;stroke-opacity:1"
       d="m 749.0883,511.47843 c 0,0 71.91395,37.18994 66.95437,114.04914 -78.52674,46.28082 -99.19167,84.29719 -99.19167,84.29719 l 109.11084,6.61155"
       id="path2987"
       inkscape:connector-curvature="0"
       sodipodi:nodetypes="cccc" />
    <path
       style="fill:none;stroke:#000000;stroke-width:1px;stroke-linecap:butt;stroke-linejoin:miter;stroke-opacity:1"
       d="m 745.78191,675.11416 28.93089,-74.37988 3.30639,-55.37168 -11.57235,-30.5784 -87.61931,0 -56.20861,23.1404"
       id="path2989"
       inkscape:connector-curvature="0"
       sodipodi:nodetypes="cccccc" />
    <path
       style="fill:none;stroke:#000000;stroke-width:1px;stroke-linecap:butt;stroke-linejoin:miter;stroke-opacity:1"
       d="m 815.21607,626.35402 c -39.58069,6.38558 -79.8592,4.39902 -117.37681,35.53705 l 119.03001,20.66107"
       id="path2991"
       inkscape:connector-curvature="0"
       sodipodi:nodetypes="ccc" />
    <path
       sodipodi:type="arc"
       style="fill:#ffffff;fill-opacity:1;fill-rule:nonzero;stroke:#000000;stroke-width:2.30169582;stroke-linejoin:miter;stroke-miterlimit:4;stroke-opacity:1;stroke-dasharray:none;stroke-dashoffset:0"
       id="path2993"
       sodipodi:cx="397"
       sodipodi:cy="368"
       sodipodi:rx="44"
       sodipodi:ry="44"
       d="m 441,368 a 44,44 0 1 1 -88,0 44,44 0 1 1 88,0 z"
       transform="matrix(0.86903214,0,0,0.86881704,83.81369,319.248)" />
    <path
       sodipodi:type="arc"
       style="fill:#ffffff;fill-opacity:1;fill-rule:nonzero;stroke:#000000;stroke-width:2.30169582;stroke-linejoin:miter;stroke-miterlimit:4;stroke-opacity:1;stroke-dasharray:none;stroke-dashoffset:0"
       id="path2995"
       sodipodi:cx="405"
       sodipodi:cy="553"
       sodipodi:rx="10"
       sodipodi:ry="10"
       d="m 415,553 a 10,10 0 1 1 -20,0 10,10 0 1 1 20,0 z"
       transform="matrix(0.86903214,0,0,0.86881704,83.81369,319.248)" />
    <path
       transform="matrix(0.69522571,0,0,0.69505363,-85.64758,259.82092)"
       sodipodi:type="arc"
       style="fill:#ffffff;fill-opacity:1;fill-rule:nonzero;stroke:#000000;stroke-width:2.87711954;stroke-linejoin:miter;stroke-miterlimit:4;stroke-opacity:1;stroke-dasharray:none;stroke-dashoffset:0"
       id="path2995-1"
       sodipodi:cx="405"
       sodipodi:cy="553"
       sodipodi:rx="10"
       sodipodi:ry="10"
       d="m 415,553 a 10,10 0 1 1 -20,0 10,10 0 1 1 20,0 z" />
    <path
       transform="matrix(0.69522571,0,0,0.69505363,256.75109,218.98651)"
       sodipodi:type="arc"
       style="fill:#ffffff;fill-opacity:1;fill-rule:nonzero;stroke:#000000;stroke-width:2.87711954;stroke-linejoin:miter;stroke-miterlimit:4;stroke-opacity:1;stroke-dasharray:none;stroke-dashoffset:0"
       id="path2995-7"
       sodipodi:cx="405"
       sodipodi:cy="553"
       sodipodi:rx="10"
       sodipodi:ry="10"
       d="m 415,553 a 10,10 0 1 1 -20,0 10,10 0 1 1 20,0 z" />
    <path
       transform="matrix(0.86903214,0,0,0.86881704,294.11947,169.81147)"
       sodipodi:type="arc"
       style="fill:#ffffff;fill-opacity:1;fill-rule:nonzero;stroke:#000000;stroke-width:2.30169582;stroke-linejoin:miter;stroke-miterlimit:4;stroke-opacity:1;stroke-dasharray:none;stroke-dashoffset:0"
       id="path2995-4"
       sodipodi:cx="405"
       sodipodi:cy="553"
       sodipodi:rx="10"
       sodipodi:ry="10"
       d="m 415,553 a 10,10 0 1 1 -20,0 10,10 0 1 1 20,0 z" />
    <path
       style="fill:none;stroke:#000000;stroke-width:1px;stroke-linecap:butt;stroke-linejoin:miter;stroke-opacity:1"
       d="m 597.41168,786.67157 41.71355,-27.80215 -16.51161,42.57204 z"
       id="path3029"
       inkscape:connector-curvature="0" />
    <path
       style="fill:none;stroke:#000000;stroke-width:1px;stroke-linecap:butt;stroke-linejoin:miter;stroke-opacity:1"
       d="m 628.69684,523.42001 8.69032,13.90107 -54.74902,33.01505 -8.69032,-19.11398 z"
       id="path3031"
       inkscape:connector-curvature="0" />
    <rect
       style="fill:#ffffff;fill-opacity:1;fill-rule:nonzero;stroke:#000000;stroke-width:1.99999988;stroke-linejoin:miter;stroke-miterlimit:4;stroke-opacity:1;stroke-dasharray:none;stroke-dashoffset:0"
       id="rect3033"
       width="982"
       height="198"
       x="21"
       y="833.36218"
       rx="15.000001"
       ry="14.999997" />
    <path
       style="fill:#a05a2c;fill-opacity:1;fill-rule:nonzero;stroke:#000000"
       d="M 355 -73 L 355 47 L 400 47 L 400 33 C 400 24.69 406.69 18 415 18 L 619 18 C 627.31 18 634 24.69 634 33 L 634 47 L 678 47 L 678 -73 L 355 -73 z "
       transform="translate(0,412.36218)"
       id="rect3809" />
    <rect
       style="fill:#a05a2c;fill-opacity:1;fill-rule:nonzero;stroke:#000000;stroke-width:1;stroke-linejoin:miter;stroke-miterlimit:4;stroke-opacity:1;stroke-dasharray:none;stroke-dashoffset:0"
       id="rect3814"
       width="289"
       height="64"
       x="374"
       y="339.36218" />
  </g>
</svg>
