<?xml version="1.0" encoding="UTF-8" standalone="no"?>
<!-- Created with Inkscape (http://www.inkscape.org/) -->

<svg
   xmlns:dc="http://purl.org/dc/elements/1.1/"
   xmlns:cc="http://creativecommons.org/ns#"
   xmlns:rdf="http://www.w3.org/1999/02/22-rdf-syntax-ns#"
   xmlns:svg="http://www.w3.org/2000/svg"
   xmlns="http://www.w3.org/2000/svg"
   xmlns:xlink="http://www.w3.org/1999/xlink"
   xmlns:sodipodi="http://sodipodi.sourceforge.net/DTD/sodipodi-0.dtd"
   xmlns:inkscape="http://www.inkscape.org/namespaces/inkscape"
   width="240"
   height="240"
   id="svg2"
   version="1.1"
   inkscape:version="0.48.5 r10040"
   sodipodi:docname="venus.svg"
   inkscape:export-filename="C:\Users\Nick\Desktop\HTML5 Games\Childhood\img\venus.png"
   inkscape:export-xdpi="90"
   inkscape:export-ydpi="90">
  <defs
     id="defs4">
    <linearGradient
       id="linearGradient4073">
      <stop
         style="stop-color:#999999;stop-opacity:0.2;"
         offset="0"
         id="stop4075" />
      <stop
         style="stop-color:#ffffcc;stop-opacity:0.2;"
         offset="1"
         id="stop4077" />
    </linearGradient>
    <radialGradient
       inkscape:collect="always"
       xlink:href="#linearGradient4073"
       id="radialGradient4079"
       cx="64"
       cy="-135"
       fx="64"
       fy="-135"
       r="84"
       gradientUnits="userSpaceOnUse"
       gradientTransform="matrix(1.2533566,0,0,1.2533566,-16.214823,34.203142)" />
    <radialGradient
       inkscape:collect="always"
       xlink:href="#linearGradient4073"
       id="radialGradient4081"
       gradientUnits="userSpaceOnUse"
       gradientTransform="matrix(1.2533566,0,0,1.2533566,-16.214823,34.203142)"
       cx="64"
       cy="-135"
       fx="64"
       fy="-135"
       r="84" />
    <radialGradient
       inkscape:collect="always"
       xlink:href="#linearGradient4073"
       id="radialGradient4083"
       gradientUnits="userSpaceOnUse"
       gradientTransform="matrix(1.2533566,0,0,1.2533566,-16.214823,34.203142)"
       cx="64"
       cy="-135"
       fx="64"
       fy="-135"
       r="84" />
  </defs>
  <sodipodi:namedview
     id="base"
     pagecolor="#ffffff"
     bordercolor="#666666"
     borderopacity="1.0"
     inkscape:pageopacity="0.0"
     inkscape:pageshadow="2"
     inkscape:zoom="1"
     inkscape:cx="103.86667"
     inkscape:cy="125.805"
     inkscape:document-units="px"
     inkscape:current-layer="layer1"
     showgrid="false"
     inkscape:window-width="1920"
     inkscape:window-height="1018"
     inkscape:window-x="-8"
     inkscape:window-y="-8"
     inkscape:window-maximized="1" />
  <metadata
     id="metadata7">
    <rdf:RDF>
      <cc:Work
         rdf:about="">
        <dc:format>image/svg+xml</dc:format>
        <dc:type
           rdf:resource="http://purl.org/dc/dcmitype/StillImage" />
        <dc:title></dc:title>
      </cc:Work>
    </rdf:RDF>
  </metadata>
  <g
     inkscape:label="Layer 1"
     inkscape:groupmode="layer"
     id="layer1"
     transform="translate(0,-812.36218)">
    <path
       sodipodi:type="arc"
       style="fill:#ffd42a;fill-opacity:1;fill-rule:nonzero;stroke:none"
       id="path2985-22"
       sodipodi:cx="406"
       sodipodi:cy="244.36218"
       sodipodi:rx="111"
       sodipodi:ry="111"
       d="m 517,244.36218 c 0,61.30361 -49.69639,111 -111,111 -61.30361,0 -111,-49.69639 -111,-111 0,-61.3036 49.69639,-111 111,-111 61.30361,0 111,49.6964 111,111 z"
       transform="matrix(1.0810811,0,0,1.0810811,-318.91892,668.18685)" />
    <path
       style="fill:#ff0066;fill-opacity:1;fill-rule:nonzero;stroke:none"
       d="m 69.3125,823.5625 c -2.347211,1.09545 -4.644652,2.26009 -6.90625,3.5 -0.588453,0.96448 -1.078854,1.6011 -1.6875,1.375 -1.30928,9.6119 -7.952198,15.23216 -11.0625,24.375 -3.281883,6.87278 -6.081885,12.79933 -9.21875,19.3125 1.620814,4.09601 -5.071895,9.44964 -4.4375,12.0625 -3.375185,7.81054 -6.372975,15.6559 -9.53125,22.375 -2.570608,6.13091 -5.165573,13.46072 -8.75,14.53125 -2.098091,9.87176 -7.67289,11.91092 -6.96875,20.84375 -3.0169447,7.22372 -0.35274,13.43363 -4.65625,20.5 -0.7225566,0.59068 -1.2908058,1.36174 -1.6875,2.25 0.948028,3.3977 2.048836,6.73107 3.28125,10 0.1148477,-0.56255 0.1995964,-1.22582 0.28125,-2 1.636854,-5.3669 8.434754,-13.44139 5.6875,-19.53125 1.258798,-2.23591 2.55416,-6.68359 1.3125,-7.25 7.100706,-2.83285 -2.480403,-11.00121 5.125,-13.15625 -5.604397,-0.41695 5.398373,-4.48808 0.65625,-7.03125 7.180762,-3.72859 10.542936,-14.61633 11.9375,-19.90625 4.161709,-5.43555 1.883312,-7.09516 6.71875,-13.625 1.432508,-5.65908 4.351591,-11.2274 6.78125,-17.25 -0.30571,-0.71286 -0.212478,-1.54629 0.125,-2.5 0.09384,0.32963 0.270004,0.47643 0.125,-0.3125 1.139116,-2.86708 4.245346,-6.63444 5.46875,-10.6875 3.525236,-6.57152 5.262755,-17.99789 11.46875,-21.90625 -1.086698,-6.51573 8.681458,-12.21446 6.375,-15.25 -0.141967,1.32827 -0.311807,0.54651 -0.4375,-0.71875 z m -11.90625,24.90625 c -0.102267,0.0247 -0.24004,0.1911 -0.40625,0.625 0.694294,2.08303 0.849408,-0.73192 0.40625,-0.625 z m -7.09375,2.15625 -0.5,0.34375 0.5,-0.34375 z M 12.25,942.96875 c 0.318916,0.61731 -1.896096,1.11845 0,0 z m 3.84375,2.71875 c -0.462953,0.16792 0.45373,-0.0528 0,0 z"
       id="path2985-23"
       inkscape:connector-curvature="0" />
    <path
       style="fill:#ff0066;fill-opacity:1;fill-rule:nonzero;stroke:none"
       d="m 216.5625,861.15625 c -1.12958,0.0797 -3.4152,-0.33796 -3.625,3.78125 -8.86545,2.87739 -11.01724,13.09264 -15.34375,16.40625 -6.91662,8.56163 -12.7021,13.18121 -18.90625,21.96875 -6.81053,6.46738 -16.33066,12.96098 -20.78125,22.34375 -6.72037,3.47777 -13.14764,12.17186 -15.9375,14.9375 -8.1199,5.12982 -10.05552,10.3078 -16.6875,15.75 -9.11364,5.56219 -17.8857,12.70193 -26.375,17.84375 -9.57755,2.87328 -14.413333,8.85183 -22.46875,12.125 -7.897124,5.24107 -15.483633,6.37607 -24.125,8.875 -9.088084,1.51149 -17.868961,6.5613 -27.5,6.625 -1.249067,-0.3324 -2.162136,-0.3701 -2.84375,-0.2187 2.564109,3.6244 5.340676,7.0941 8.28125,10.4062 1.30274,-0.2663 2.513336,-1.1729 3.4375,-3 9.555958,-1.5622 16.246831,-3.7356 24.75,-5.8125 3.039652,-2.0614 11.391809,-1.3044 16.8125,-5.84375 5.594226,-3.38428 11.855186,-4.45454 16.0625,-9.6875 7.516487,-2.5288 17.32617,-8.94048 24.09375,-13.96875 6.74644,-3.08375 10.7952,-7.01478 16.1875,-11.8125 8.41865,-3.75078 8.77561,-14.19556 17.625,-15.34375 5.67964,-6.68548 11.47014,-12.81686 18.28125,-18.375 3.87465,-9.42348 11.74551,-13.68201 19.375,-19.90625 5.168,-10.85017 12.06916,-11.75983 17.28125,-21.28125 6.43619,-3.17862 6.62577,-12.82715 13.09375,-12.9375 2.2123,-1.79932 3.66477,-3.63717 4.4375,-5.40625 -1.60634,-2.55751 -3.30463,-5.04584 -5.09375,-7.46875 -0.0118,9.7e-4 -0.0192,-8.5e-4 -0.0312,0 z M 149.375,931.5625 c -0.50368,0.16655 -2.23231,2.23752 -0.0937,0.6875 0.29266,-0.56503 0.26164,-0.74302 0.0937,-0.6875 z m -123.0625,70.9687 c 2.316045,0.1975 -1.711423,1.2818 0,0 z"
       id="path2985-14"
       inkscape:connector-curvature="0" />
    <path
       style="fill:#0000dd;fill-opacity:1;fill-rule:nonzero;stroke:none"
       d="m 202.46875,845.21875 c -3.20909,3.4036 -4.26613,7.07286 -9.03125,7 -4.31999,5.30594 -9.5752,12.1557 -13.5,12.28125 -4.14049,10.18961 -10.21761,3.66349 -14.625,13.40625 -9.64114,5.18912 -17.0763,11.36004 -26.65625,16.125 -7.22891,3.1193 -6.6402,8.32758 -13.4375,8.4375 -4.24192,4.39444 -14.04725,8.2225 -13.53125,9.40625 -8.3613,0.45783 -13.618132,7.67848 -22.84375,7.96875 -5.331289,1.67283 -4.272496,3.42055 -12.0625,2.71875 -5.771828,4.343 -12.762842,3.53877 -18.6875,6.71875 -10.105035,-0.70334 -12.737391,2.44512 -21.625,4.5 -9.365016,2.82844 -17.852906,4.78496 -27.3125,7.15625 1.128666,0.83622 -5.404227,1.7296 -8.5625,3.3125 0.27789353,2.82403 0.6547509,5.6119 1.125,8.375 0.6327083,-0.29528 1.357345,-0.85164 2.125,-1.78125 6.640613,-2.31548 13.708778,-3.95121 20.8125,-6.3125 8.866755,-1.04531 14.75435,-4.73124 23.09375,-5.5625 6.458229,-3.14952 15.379726,-1.57955 20.96875,-5.65625 9.078832,-4.03826 17.47689,-2.89193 26.84375,-8.25 8.81913,0.55908 10.52545,-6.9494 19.75,-6.25 6.99555,-6.79155 15.64693,-9.11518 22.5625,-15.03125 4.84717,-4.18453 12.25685,-5.92409 17.46875,-11.625 7.62092,-1.57923 15.24287,-11.91547 20.5,-12.59375 5.54041,-4.44787 14.16819,-14.5164 18.90625,-15 0.85544,-6.25056 2.932,-6.1462 6.625,-6.09375 1.4499,-3.74844 4.6786,-5.8896 6.46875,-7.84375 -1.73063,-1.85908 -3.53068,-3.66008 -5.375,-5.40625 z m -193.5,95.96875 -0.25,0.0625 0.25,-0.0625 z"
       id="path2985-76"
       inkscape:connector-curvature="0" />
    <path
       style="fill:#0000dd;fill-opacity:1;fill-rule:nonzero;stroke:none"
       d="m 140.40625,814.125 c -5.8688,6.23963 -9.51445,14.94708 -9.9375,23.28125 -1.9099,7.95182 -5.00696,15.64986 -5.1875,23.96875 0.12277,9.62608 -5.4744,18.49921 -3.15625,28.09375 -0.76462,7.39616 -2.62006,13.99264 -1.96875,21.875 1.97661,7.93527 -2.77161,17.39654 3.34375,24.1875 -6.05102,2.56941 1.02748,12.48909 -0.78125,17.75 0.78394,2.00916 1.51867,4.74103 2.4375,7 -0.13827,0.0406 -0.36763,0.62512 0.0625,0.40625 0.0154,-0.10861 9.4e-4,-0.18699 0,-0.25 1.05923,2.55307 2.37543,4.44631 4.28125,3.78125 -1.36659,6.31841 2.09861,15.3297 4.90625,21.65625 -0.0492,0.12637 -0.0823,0.2501 -0.125,0.375 -0.0467,0.0157 -0.0524,0.0669 -0.0312,0.15625 -1.76081,5.44621 2.42523,9.53999 2.34375,15.43755 1.93894,8.443 5.31812,15.6953 10.125,22.8437 -4.25915,-1.5166 0.72246,7.7098 1.40625,6.9687 0.93384,2.8127 1.89559,6.3466 3.25,9.5313 0.0602,-0.2092 0.15837,-0.4286 0.3125,-0.7187 2.24113,0.5536 0.94916,1.7332 0.125,1.7187 0.89133,1.9206 1.95759,3.6482 3.25,4.9687 3.09893,-0.9453 6.13813,-2.0349 9.125,-3.2187 -0.39655,-3.476 -3.42497,-7.8865 -5.34375,-10.8125 -2.48617,-7.0186 -7.27952,-14.4103 -8.8125,-22.25 -4.51042,-8.3273 -3.83036,-17.40188 -6.9375,-26.25 -3.54036,-8.02115 -2.34198,-16.93515 -6.5625,-24.5 -3.12346,-1.95409 -3.91089,-5.43446 -4.21875,-9.03125 -0.27552,0.2893 -1.75377,-0.31217 -0.28125,-0.625 0.14968,0.15527 0.20504,0.27549 0.25,0.375 -0.27621,-3.47581 -0.12231,-7.02383 -1.21875,-9.34375 -0.0908,-4.2228 -0.68709,-8.38429 -1.09375,-12.5625 -0.11031,0.39955 -1.76565,0.49393 -0.5625,-0.46875 0.32117,0.11932 0.46971,0.23995 0.53125,0.34375 -0.36888,-3.8257 -0.5689,-7.67107 -0.0937,-11.5625 -0.1978,-7.67451 0.21224,-15.2458 1,-22.90625 -0.45403,-4.81123 0.22594,-8.60707 1.03125,-12.875 0.25433,0.0569 1.157,-0.52005 0.125,-0.40625 -0.0359,0.0425 -0.0371,0.0587 -0.0625,0.0937 0.42321,-2.23679 0.85246,-4.56536 1.21875,-7.34375 1.37433,-6.50076 0.74761,-13.72739 2.59375,-19.96875 0.35704,0.68985 1.04922,0.85662 0.40625,-1.21875 0.39141,-1.08879 0.87664,-2.14513 1.46875,-3.15625 1.27863,-8.79321 3.54263,-17.16924 7.09375,-25.21875 3.32241,-2.32506 5.94221,-3.8958 3.34375,-7.59375 0.17927,-0.32618 0.27119,-0.62362 0.375,-0.90625 -2.37208,-0.57648 -4.76261,-1.06685 -7.1875,-1.5 0.72409,0.57715 -1.55042,1.69427 -0.15625,-0.0312 -0.227,-0.0402 -0.46006,-0.0548 -0.6875,-0.0937 z m -8.09375,136.96875 c 0.0459,-0.0482 0.0399,-0.11505 0,-0.21875 0.006,0.0726 -0.006,0.14623 0,0.21875 z m 19.5,91.09375 c -0.15219,-0.328 -0.29423,-0.6631 -0.4375,-1 -0.20625,0.7163 0.0548,0.9933 0.4375,1 z M 144.28125,822.625 c 0.12939,0.008 0.25782,0.0561 0.4375,0.0937 0.98994,2.80453 -2.37839,-0.20639 -0.4375,-0.0937 z m -15.21875,17.9375 c -0.36015,1.26053 -0.319,1.11649 0,0 z m -5.28125,28.59375 c -0.31965,0.004 0.43011,1.45739 0.21875,0.0937 -0.0947,-0.0714 -0.17309,-0.0943 -0.21875,-0.0937 z m 5.65625,31 c 1.02647,1.07931 -2.10771,1.20171 0,0 z m 0.75,52.9375 c 4.32825,1.41625 1.71644,5.90631 0,0 z m -1.6875,12.1875 0.0312,0.0312 -0.0312,-0.0312 z m 9.03125,1.15625 c -0.26205,1.28525 -2.48566,2.86365 0,0 z m 7.40625,28.9375 c 1.20602,0.52893 -1.01458,2.09672 0,0 z m -6.34375,5.7812 c 2.09872,1.0747 -1.6108,2.0742 0,0 z m 14.25,17.75 -0.0937,0.25 0.0937,-0.25 z m -9.78125,1.7813 c -0.43146,-0.1187 -0.49561,2.0914 0.34375,0.5313 -0.13323,-0.3501 -0.24418,-0.5039 -0.34375,-0.5313 z m 4.46875,11.0937 c -0.19858,0.093 -0.11291,1.0602 0.59375,1.1563 -0.25571,-0.9572 -0.4746,-1.2121 -0.59375,-1.1563 z m 12.78125,5.6876 c 2.32814,1.3478 -0.51379,3.8492 0,0 z"
       id="path2985"
       inkscape:connector-curvature="0" />
    <path
       style="fill:#00dd00;fill-opacity:1;fill-rule:nonzero;stroke:none"
       d="m 23.4375,861.125 c -1.960368,2.65282 -3.82187,5.37373 -5.5625,8.1875 0.429644,5.22119 -0.46998,10.23897 2.125,15.8125 -3.752779,2.34243 6.285834,8.87553 0.78125,6.9375 -2.999609,5.38749 3.921845,10.53837 1.21875,13.59375 0.891762,9.89128 -2.824895,16.86442 3.34375,26.03125 1.426115,5.86042 5.036653,12.44376 5.9375,20.53125 -0.690469,5.0224 -0.751355,12.01975 1.84375,16.84375 1.842603,8.87811 6.255511,18.58959 11.1875,27.5 4.232014,5.1367 3.46113,6.8028 7.28125,11.125 4.894217,5.8009 9.597342,10.8532 13.40625,17.3125 0.720238,2.1433 3.630595,4.8354 5.5,5.9688 -0.08914,0.055 -0.144755,0.1974 -0.09375,0.4374 0.315862,-0.032 0.456715,-0.1065 0.5,-0.1874 0.09306,0.048 0.196643,0.1196 0.28125,0.1562 -4.897469,4.7133 4.081349,9.9883 8.5625,14.0625 3.494616,1.2442 7.052092,2.3291 10.6875,3.25 -0.355536,-0.7967 -0.998702,-1.8374 -2,-3.1875 -5.773059,-0.2113 -6.440898,-8.6518 -12.09375,-11.7812 -1.486792,-0.4657 0.590527,-6.7208 -4.25,-8.2813 0.243332,-0.1463 0.540969,-0.5429 -0.0625,-0.4063 -0.07921,0.1455 -0.108226,0.239 -0.125,0.3126 -0.07677,-0.022 -0.138652,-0.043 -0.21875,-0.063 -0.42986,-5.0395 -9.16749,-11.6701 -12.78125,-16.7812 -0.785276,-1.053 -1.640776,-2.1838 -2.5,-3.2812 1.22966,0.6233 -0.463541,-2.3959 -0.3125,-0.375 -2.828421,-3.6327 -5.340606,-7.20676 -3.6875,-9.06255 -1.857074,-6.82271 -6.968925,-0.0658 -4.96875,-8.84375 -4.702236,-2.36037 -3.364256,-8.17944 -8.1875,-11.125 1.133191,-5.86442 -2.767779,-10.27906 -2.53125,-15.65625 1.909431,-4.03647 -0.658711,-11.7702 -1,-16.09375 0.791721,-6.82382 -7.080048,-6.42842 -4.5,-12.78125 -3.90742,-7.71535 -4.446759,-6.84008 -3.9375,-13.625 2.247106,-6.1795 -0.113334,-17.28838 -0.5,-20.65625 0.351953,-2.47062 1.154893,-10.90708 -2.28125,-9.6875 2.097052,-4.32981 -3.073539,-7.84871 -0.9375,-11.34375 -1.778215,-5.1147 3.328491,-6.27016 -0.8125,-10.65625 -1.241065,-0.02 0.0863,-2.14743 0.6875,-4.1875 z m 8.65625,107.78125 c -1.39898,0.23728 1.38575,2.82339 0.875,0.0625 -0.392549,-0.0845 -0.675146,-0.0964 -0.875,-0.0625 z m 14.3125,27.46875 c 2.609016,1.43254 -2.365187,1.37686 0,0 z m 30.1875,34.3438 c -0.11715,0.051 -0.329168,0.4293 -0.625,1.5 0.691998,-0.033 0.88273,-1.6122 0.625,-1.5 z M 75.5,1040.2812 c 1.394161,0.059 1.16061,3.3691 -0.3125,0.063 0.107414,-0.028 0.219556,-0.067 0.3125,-0.063 z"
       id="path2985-2"
       inkscape:connector-curvature="0" />
    <path
       style="fill:#00dd00;fill-opacity:1;fill-rule:nonzero;stroke:none"
       d="m 236.65625,960.5625 c -6.2671,3.15543 -14.93766,3.9945 -17.8125,7.03125 -4.94522,4.26574 -13.10782,6.7649 -17.96875,9.5625 2.61781,2.80602 -12.90701,3.05747 -14.4375,7.375 0.31524,-2.42305 -0.59961,-0.17637 -0.375,0.15625 -5.15538,2.10822 -7.27876,6.13936 -15.53125,6.65625 -3.55794,1.94065 -3.86958,4.10703 -6.34375,2.65625 -5.97786,1.27677 -9.56436,4.38602 -11.78125,4.65625 -6.77588,2.22115 -9.10536,4.60145 -17.34375,5.93755 -2.78048,0.2713 2.85582,4.1405 -4.09375,1.3437 -8.04157,-1.5871 -8.42099,4.5993 -15.0625,5.375 -6.41037,-1.8257 -12.53715,5.4316 -18.71875,6.0937 -7.545796,2.1527 -9.623997,6.306 -17.40625,7.0313 -6.45796,2.7707 -6.233985,1.9328 -13.0625,3.1875 -2.522963,3.5325 -11.186279,2.6262 -15.40625,3.1562 2.706371,1.8923 5.511625,3.6755 8.375,5.3438 4.766285,-1.3641 9.642152,-4.6349 14.375,-2.375 4.207949,-5.539 12.028623,-3.9572 19.125,-6.875 0.349174,-4.9017 10.79311,-4.0628 14.125,-6.9062 3.96829,-1.7274 4.78101,-6.4219 8.625,-2.8126 6.43346,-6.3579 9.26702,1.2872 11.78125,-7.1874 3.40101,4.3926 11.92938,-1.7323 10.78125,-0.875 4.33024,-1.3432 12.50061,-4.1121 14.625,-4.5626 9.08075,0.1092 9.08601,-8.43972 15.0625,-4.5312 1.70117,-3.0905 11.9652,-4.79559 11.96875,-6.34375 0.84174,2.62403 6.492,-5.57123 7.25,-3.1875 4.46946,-4.3661 14.6928,-5.71268 19.21875,-9.90625 4.19589,-1.65553 10.16845,-4.11181 15.65625,-7.5 0.7871,-3.98291 6.30958,-0.197 9.53125,-4.5625 0.95638,0.2852 1.78066,0.34307 2.53125,0.28125 0.86068,-2.70383 1.64205,-5.43554 2.3125,-8.21875 z m -175.6875,69.3437 0.0625,0.125 -0.0625,-0.125 z"
       id="path2985-15"
       inkscape:connector-curvature="0" />
    <path
       style="fill:#00dd00;fill-opacity:1;fill-rule:nonzero;stroke:none"
       d="m 110.78125,812.71875 c -3.52734,0.26839 -7.03324,0.68319 -10.46875,1.25 4.7e-4,0.0102 -5.5e-4,0.021 0,0.0312 0.21689,4.03616 6.59318,10.24995 8.71875,12.6875 -1.91689,2.4041 3.71277,9.94775 5.6875,14.75 1.17584,0.98003 2.45505,2.30679 3.40625,3.53125 -0.76425,-0.10826 -1.1704,2.07688 0.78125,1.09375 0.97722,1.58913 1.02546,2.79063 -1.0625,2.46875 5.27995,7.82439 8.51586,7.62462 9.90625,17.0625 6.69452,-2.0318 0.44163,1.23644 1.09375,1.15625 4.46203,6.11205 8.61266,14.94619 11.3125,21.59375 5.86144,1.73668 2.46687,10.72437 10.25,12.78125 2.52305,-0.92267 2.34826,8.10191 6.8125,11.78125 4.11098,1.97037 0.50401,8.52171 9.9375,10.40625 -6.16779,2.42759 0.59743,5.82517 4.53125,7.875 2.78163,3.16193 4.42307,3.35627 7.34375,8.84375 6.16101,3.0991 3.90322,6.17077 8.03125,8.40625 3.20088,1.06123 6.73161,9.52471 6.15625,7.25 1.27118,5.95388 10.47096,8.1747 11.6875,14.09375 6.82336,4.74772 4.89898,1.62641 3.75,5.625 1.58264,3.38657 7.94176,6.23398 3.53125,8.6875 5.35202,-1.08962 9.26343,5.09969 12.5,6.96875 1.67795,-2.98606 3.23341,-6.0503 4.65625,-9.1875 -1.2708,-0.59761 -2.71053,-1.30259 -3.375,-2.84375 0.26113,7.59761 -4.86344,-3.36142 -4.1875,0.75 -1.52906,-4.55955 -1.78753,-3.74479 -4.875,-10.3125 -1.36689,-2.15963 -2.9865,-3.78442 -4.65625,-5.3125 -0.0165,-0.0667 -0.17235,-0.19392 -0.34375,-0.3125 -2.68005,-2.41778 -5.48769,-4.60544 -7.65625,-8.09375 -4.72,-5.05874 -10.52779,-11.83706 -13.3125,-16.875 -1.86606,-0.79706 -2.56292,-1.99158 -2.875,-3.21875 0.19795,-0.0604 0.24056,-0.5493 -0.25,-1.5 -0.22479,-2.18568 -0.2372,-3.95983 -4.84375,-2.96875 -0.61973,-5.03997 -14.4878,-12.51654 -8.40625,-9.5625 0.29417,-4.50988 -2.93113,-0.76972 -4.21875,-6.03125 -4.8855,-3.03491 -4.72975,-7.92671 -7.40625,-7.3125 2.36587,-4.72361 -4.42976,-4.48871 -1.8125,-6.78125 -4.46386,-2.78253 2.95175,-5.24422 -4.78125,-7.875 -0.71124,-1.6038 -3.28518,1.92015 -1.375,-1.59375 -6.97696,-3.156 -6.85647,-8.9905 -8.34375,-14.71875 -4.24233,3.98025 0.80921,-0.54106 -2.25,-2.875 1.40298,-0.5044 0.61109,-5.57541 -2.4375,-2 -1.22554,-1.27765 -2.14769,-2.94717 -2.96875,-4.78125 0.0348,-0.38587 -0.36317,-2.17968 -1.28125,-4.21875 0.29628,1.3624 0.52078,2.25275 0.71875,2.9375 -1.90361,-4.67601 -3.29675,-10.12991 -6.65625,-13.25 -0.58463,-5.16244 -6.24657,-8.20926 -6.5,-12.9375 -6.33895,-1.06249 -1.85991,-10.2679 -7.75,-11.0625 -0.98941,-6.8582 -4.88002,-12.21385 -6.65625,-16.40625 -0.0209,0.002 -0.0416,-0.002 -0.0625,0 z M 109.40625,815 c 3.76951,8.93554 -14.586454,1.75597 -3.1875,2.4375 l 1.6875,-1 1.5,-1.4375 z m 4.3125,4.90625 c 1.62841,0.007 -0.89179,3.53921 -0.375,0.0312 0.14764,-0.0342 0.26644,-0.0317 0.375,-0.0312 z m 2.9375,3.46875 c -0.1064,-0.0289 -0.18938,0.15578 -0.125,0.71875 1.13733,1.29062 0.4442,-0.6321 0.125,-0.71875 z m -8.4375,3.5625 c 0.003,0.0105 0.0401,0.017 0.0625,0.0312 -0.006,-0.01 0.0154,-0.0143 0,-0.0312 -0.0509,-0.0145 -0.065,-0.0105 -0.0625,0 z m 9.125,0.75 0.1875,0.59375 -0.1875,-0.59375 z m -5.40625,8.90625 0.40625,0.65625 -0.40625,-0.65625 z m 19.25,17 c 0.58917,0.24504 -1.10923,0.81257 0,0 z m -7.71875,0.53125 c 0.40201,0.11158 -0.56641,0.88943 0,0 z m 6.34375,11.09375 c -0.01,0.011 -0.0496,-0.006 -0.0625,0.0312 0.0525,0.0217 0.067,-10e-4 0.0625,-0.0312 z m 7.34375,12.15625 c 2.21017,4.92286 -1.54411,2.63838 0,0 z m 9.53125,4.46875 c 1.58719,0.33923 -0.11228,1.83279 0,0 z m -5.625,1.3125 c 3.31511,0.23616 -1.15575,5.45558 -1.9375,0.25 0.82451,-0.21452 1.46391,-0.28374 1.9375,-0.25 z m 8.53125,5.75 c 0.21194,-0.0162 0.54089,-0.007 1,0.0625 1.34856,1.86694 -2.4836,0.0511 -1,-0.0625 z m 14.53125,18 c -0.069,0.0422 -0.032,0.24387 0.21875,0.75 2.54164,2.21392 0.0801,-0.9329 -0.21875,-0.75 z m 1.5625,0.625 0.0312,0.21875 -0.0312,-0.21875 z m 0.59375,3 0.34375,0.6875 -0.34375,-0.6875 z m 2.5,4.875 c 1.71819,0.10876 -0.65351,4.37228 -0.40625,0.0312 0.15283,-0.0335 0.2917,-0.0385 0.40625,-0.0312 z m -4.375,7.40625 c -1.17157,-0.0411 -2.37153,1.00151 1,0.5 -0.20972,-0.3516 -0.60948,-0.48632 -1,-0.5 z m 3.46875,5.125 c 0.55783,0.0287 0.83135,0.61154 0,0 z m 26.5,15.53125 c -0.088,0.0271 -0.0813,0.10742 0.0312,0.28125 2.05834,0.55728 0.3501,-0.39881 -0.0312,-0.28125 z m 24.625,28.8125 -0.25,0.0312 0.25,-0.0312 z m 1.59375,3.4375 c -0.13332,0.3872 0.35182,-0.0414 0,0 z m -3.3125,4.0625 c -0.32213,1.34133 -3.45756,-0.0743 0,0 z m 4.375,4.90625 c 0.12945,-0.004 0.26512,0.013 0.4375,0.0312 0.2462,2.42764 -2.37919,0.0354 -0.4375,-0.0312 z"
       id="path2985-1"
       inkscape:connector-curvature="0" />
    <path
       style="fill:#00dd00;fill-opacity:1;fill-rule:nonzero;stroke:none"
       d="m 221.49172,973.93129 c 0.0223,13.78483 -22.4655,6.97001 -14.72268,-4.50007 4.0688,-6.57369 15.02372,-3.23079 14.72268,4.50007 z"
       id="path3215"
       inkscape:connector-curvature="0" />
    <path
       style="fill:#00dd00;fill-opacity:1;fill-rule:nonzero;stroke:none"
       d="m 80.109152,1027.3861 c 1.078604,12.707 -27.095291,8.181 -13.227104,-1.7323 3.825371,-2.1022 11.085077,-3.2515 13.227104,1.7323 z"
       id="path3217"
       inkscape:connector-curvature="0" />
    <path
       style="fill:#0000dd;fill-opacity:1;fill-rule:nonzero;stroke:none"
       d="m 132.4828,911.4589 c -8.56908,15.27693 -24.38915,-3.55996 -10.33338,-12.37497 7.72655,-5.23716 15.41892,3.96472 10.33338,12.37497 z"
       id="path3231"
       inkscape:connector-curvature="0" />
    <path
       sodipodi:type="arc"
       style="opacity:0.6;fill:url(#radialGradient4083);fill-opacity:1;fill-rule:nonzero;stroke:none"
       id="path4071"
       sodipodi:cx="64"
       sodipodi:cy="-135"
       sodipodi:rx="84"
       sodipodi:ry="84"
       d="m 148,-135 a 84,84 0 1 1 -168,0 84,84 0 1 1 168,0 z"
       transform="matrix(1.4285714,0,0,1.4285714,28.57143,1125.2193)" />
  </g>
</svg>
